{
DisplayStrings = (
"nnhnn oohoon"
);
copyright = "Copyright (c) 2012 by vernon adams. All rights reserved.";
customParameters = (
{
name = glyphOrder;
value = (
    ".notdef",
    Eth,
    eth,
    Lslash,
    lslash,
    Scaron,
    scaron,
    Yacute,
    yacute,
    Thorn,
    thorn,
    Zcaron,
    zcaron,
    onehalf,
    onequarter,
    threequarters,
    brokenbar,
    minus,
    multiply,
    space,
    exclam,
    quotedbl,
    numbersign,
    dollar,
    percent,
    ampersand,
    quotesingle,
    parenleft,
    parenright,
    asterisk,
    plus,
    comma,
    hyphen,
    period,
    slash,
    zero,
    one,
    two,
    three,
    four,
    five,
    six,
    seven,
    eight,
    nine,
    colon,
    semicolon,
    less,
    equal,
    greater,
    question,
    at,
    A,
    B,
    C,
    D,
    E,
    F,
    G,
    H,
    I,
    J,
    K,
    L,
    M,
    N,
    O,
    P,
    Q,
    R,
    S,
    T,
    U,
    V,
    W,
    X,
    Y,
    Z,
    bracketleft,
    backslash,
    bracketright,
    asciicircum,
    underscore,
    grave,
    a,
    b,
    c,
    d,
    e,
    f,
    g,
    h,
    i,
    j,
    k,
    l,
    m,
    n,
    o,
    p,
    q,
    r,
    s,
    t,
    u,
    v,
    w,
    x,
    y,
    z,
    braceleft,
    bar,
    braceright,
    asciitilde,
    Adieresis,
    Aring,
    Ccedilla,
    Eacute,
    Ntilde,
    Odieresis,
    Udieresis,
    aacute,
    agrave,
    acircumflex,
    adieresis,
    atilde,
    aring,
    ccedilla,
    eacute,
    egrave,
    ecircumflex,
    edieresis,
    iacute,
    igrave,
    icircumflex,
    idieresis,
    ntilde,
    oacute,
    ograve,
    ocircumflex,
    odieresis,
    otilde,
    uacute,
    ugrave,
    ucircumflex,
    udieresis,
    dagger,
    degree,
    cent,
    sterling,
    section,
    bullet,
    paragraph,
    germandbls,
    registered,
    copyright,
    trademark,
    acute,
    dieresis,
    notequal,
    AE,
    Oslash,
    infinity,
    plusminus,
    lessequal,

glyphs = (
{
glyphname = Eth;
layers = (
{
layerId = "E08CDE4C-5D6C-43D8-8149-5F9E51F0B944";
name = Bold;
paths = (
{
closed = 1;
nodes = (
"365 148 LINE",
"365 658 LINE",
"571 658 LINE",
"571 795 LINE",
"365 795 LINE",
"365 1308 LINE",
"529 1308 LINE SMOOTH",
"647 1308 OFFCURVE",
"750 1298 OFFCURVE",
"840 1278 CURVE SMOOTH",
"1107 1218 OFFCURVE",
"1248 1048 OFFCURVE",
"1248 721 CURVE SMOOTH",
"1248 638 OFFCURVE",
"1235 560 OFFCURVE",
"1210 490 CURVE SMOOTH",
"1131 268 OFFCURVE",
"929 148 OFFCURVE",
"626 148 CURVE SMOOTH"
);
},
{
closed = 1;
nodes = (
"193 0 LINE",
"610 0 LINE SMOOTH",
"739 0 OFFCURVE",
"854 17 OFFCURVE",
"956 51 CURVE SMOOTH",
"1234 144 OFFCURVE",
"1430 359 OFFCURVE",
"1430 724 CURVE SMOOTH",
"1430 1273 OFFCURVE",
"1056 1456 OFFCURVE",
"508 1456 CURVE SMOOTH",
"193 1456 LINE",
"193 795 LINE",
"-1 795 LINE",
"-1 658 LINE",
"193 658 LINE"
);
}
);
width = 1546;
}
);
unicode = 00D0;
},
{
glyphname = eth;
layers = (
{
layerId = "E08CDE4C-5D6C-43D8-8149-5F9E51F0B944";
name = Bold;
paths = (
{
closed = 1;
nodes = (
"189 92.9999 OFFCURVE",
"347 -23 OFFCURVE",
"581 -23 CURVE SMOOTH",
"662 -23 OFFCURVE",
"734 -8 OFFCURVE",
"798 22 CURVE SMOOTH",
"1006 121 OFFCURVE",
"1093 361 OFFCURVE",
"1093 672 CURVE SMOOTH",
"1093 805 OFFCURVE",
"1075 921 OFFCURVE",
"1045 1026 CURVE",
"1190 1026 LINE",
"1190 1163 LINE",
"992.999 1163 LINE",
"920 1315 OFFCURVE",
"812 1428 OFFCURVE",
"653 1490 CURVE",
"574 1406 LINE",
"684 1344 OFFCURVE",
"766 1271 OFFCURVE",
"826 1163 CURVE",
"620 1163 LINE",
"620 1026 LINE",
"882 1026 LINE",
"906 937 OFFCURVE",
"917 847 OFFCURVE",
"918 733 CURVE",
"918 723 LINE",
"846 838 OFFCURVE",
"725 897 OFFCURVE",
"545 897 CURVE SMOOTH",
"475 897 OFFCURVE",
"412 886 OFFCURVE",
"356 864 CURVE SMOOTH",
"199 802 OFFCURVE",
"88 662 OFFCURVE",
"88 446 CURVE SMOOTH",
"88 380 OFFCURVE",
"98.9999 318 OFFCURVE",
"122 261 CURVE SMOOTH"
);
},
{
closed = 1;
nodes = (
"903 290 OFFCURVE",
"798 118 OFFCURVE",
"573 118 CURVE SMOOTH",
"526 118 OFFCURVE",
"484 126 OFFCURVE",
"446 142 CURVE SMOOTH",
"339 188 OFFCURVE",
"264 291 OFFCURVE",
"264 441 CURVE SMOOTH",
"264 638 OFFCURVE",
"373 757 OFFCURVE",
"572 757 CURVE SMOOTH",
"742 757 OFFCURVE",
"859 664 OFFCURVE",
"903 536 CURVE",
"903 512 LINE SMOOTH"
);
}
);
width = 1190;
}
);
unicode = 00F0;
},
{
glyphname = Lslash;
layers = (
{
layerId = "E08CDE4C-5D6C-43D8-8149-5F9E51F0B944";
name = Bold;
paths = (
{
closed = 1;
nodes = (
"202 0 LINE",
"1073 0 LINE",
"1073 148 LINE",
"374 148 LINE",
"374 712 LINE",
"659 890 LINE",
"659 1027 LINE",
"374 849 LINE",
"374 1456 LINE",
"202 1456 LINE",
"202 742 LINE",
"15 626 LINE",
"15 489 LINE",
"202 605 LINE"
);
}
);
width = 1120;
}
);
unicode = 0141;
},
{
glyphname = lslash;
layers = (
{
layerId = "E08CDE4C-5D6C-43D8-8149-5F9E51F0B944";
name = Bold;
paths = (
{
closed = 1;
nodes = (
"168 0 LINE",
"333 0 LINE",
"333 788 LINE",
"504 890 LINE",
"504 1027 LINE",
"333 925 LINE",
"333 1492 LINE",
"168 1492 LINE",
"168 826 LINE",
"0 726 LINE",
"0 589 LINE",
"168 689 LINE"
);
}
);
width = 503;
}
);
unicode = 0142;
},
{
glyphname = Scaron;
layers = (
{
layerId = "E08CDE4C-5D6C-43D8-8149-5F9E51F0B944";
name = Bold;
paths = (
{
closed = 1;
nodes = (
"280 35 OFFCURVE",
"486 -22 OFFCURVE",
"664 -22 CURVE SMOOTH",
"989.999 -22 OFFCURVE",
"1135 166 OFFCURVE",
"1135 395 CURVE SMOOTH",
"1135 578 OFFCURVE",
"1052 709 OFFCURVE",
"676 817 CURVE SMOOTH",
"370 905 OFFCURVE",
"318 982.999 OFFCURVE",
"324 1120 CURVE SMOOTH",
"330 1262 OFFCURVE",
"441 1334 OFFCURVE",
"656 1334 CURVE SMOOTH",
"780 1334 OFFCURVE",
"921 1288 OFFCURVE",
"1033 1218 CURVE",
"1085 1359 LINE",
"930 1456 OFFCURVE",
"773 1483 OFFCURVE",
"636 1483 CURVE SMOOTH",
"344 1483 OFFCURVE",
"145 1339 OFFCURVE",
"141 1109 CURVE SMOOTH",
"137 902 OFFCURVE",
"224 769 OFFCURVE",
"566 671 CURVE SMOOTH",
"911 572 OFFCURVE",
"951 500 OFFCURVE",
"951 401 CURVE SMOOTH",
"951 230 OFFCURVE",
"855 123 OFFCURVE",
"649 123 CURVE SMOOTH",
"503 123 OFFCURVE",
"305 187 OFFCURVE",
"174 289 CURVE",
"146 123 LINE"
);
},
{
closed = 1;
nodes = (
"562 1600 LINE",
"718 1600 LINE",
"956 1923 LINE",
"802 1923 LINE",
"634 1708 LINE",
"470 1923 LINE",
"323 1923 LINE"
);
}
);
width = 1244;
}
);
unicode = 0160;
},
{
glyphname = scaron;
layers = (
{
layerId = "E08CDE4C-5D6C-43D8-8149-5F9E51F0B944";
name = Bold;
paths = (
{
closed = 1;
nodes = (
"183 16 OFFCURVE",
"314 -22 OFFCURVE",
"456 -22 CURVE SMOOTH",
"585 -22 OFFCURVE",
"811 17 OFFCURVE",
"811 284 CURVE SMOOTH",
"811 445 OFFCURVE",
"724 520 OFFCURVE",
"501 596 CURVE SMOOTH",
"330 654 OFFCURVE",
"272 691 OFFCURVE",
"272 774 CURVE SMOOTH",
"272 862 OFFCURVE",
"334 907 OFFCURVE",
"450 907 CURVE SMOOTH",
"590 907 OFFCURVE",
"673 861 OFFCURVE",
"731 832 CURVE",
"775 967 LINE",
"702 1008 OFFCURVE",
"577 1048 OFFCURVE",
"451 1048 CURVE SMOOTH",
"240 1048 OFFCURVE",
"108 946 OFFCURVE",
"108 771 CURVE SMOOTH",
"108 612 OFFCURVE",
"193 532 OFFCURVE",
"409 463 CURVE SMOOTH",
"601 402 OFFCURVE",
"652 361 OFFCURVE",
"652 268 CURVE SMOOTH",
"652 126 OFFCURVE",
"551 116 OFFCURVE",
"444 116 CURVE SMOOTH",
"320 116 OFFCURVE",
"199 160 OFFCURVE",
"128 222 CURVE",
"108 71 LINE"
);
},
{
closed = 1;
nodes = (
"417 1178 LINE",
"573 1178 LINE",
"811 1501 LINE",
"657 1501 LINE",
"489 1286 LINE",
"325 1501 LINE",
"178 1501 LINE"
);
}
);
width = 907;
}
);
unicode = 0161;
},
{
glyphname = Yacute;
layers = (
{
layerId = "E08CDE4C-5D6C-43D8-8149-5F9E51F0B944";
name = Bold;
paths = (
{
closed = 1;
nodes = (
"543 0 LINE",
"715 0 LINE",
"715 585 LINE",
"1258 1456 LINE",
"1067 1456 LINE",
"632 727 LINE",
"201 1456 LINE",
"9.99999 1456 LINE",
"543 582 LINE"
);
},
{
closed = 1;
nodes = (
"552 1602 LINE",
"682 1602 LINE",
"989.999 1922 LINE",
"778 1922 LINE"
);
}
);
width = 1266;
}
);
unicode = 00DD;
},
{
glyphname = yacute;
layers = (
{
layerId = "E08CDE4C-5D6C-43D8-8149-5F9E51F0B944";
name = Bold;
paths = (
{
closed = 1;
nodes = (
"290 -436 OFFCURVE",
"428 -464 OFFCURVE",
"534 -464 CURVE SMOOTH",
"798 -464 OFFCURVE",
"1033 -286 OFFCURVE",
"1033 67 CURVE SMOOTH",
"1033 1026 LINE",
"869 1026 LINE",
"869 496 LINE SMOOTH",
"869 308 OFFCURVE",
"756 116 OFFCURVE",
"568 116 CURVE SMOOTH",
"431 116 OFFCURVE",
"318 216 OFFCURVE",
"318 398 CURVE SMOOTH",
"321 644 LINE SMOOTH",
"321 923 OFFCURVE",
"282 1026 OFFCURVE",
"282 1026 CURVE",
"117 999.999 LINE",
"117 999.999 OFFCURVE",
"156 884 OFFCURVE",
"156 627 CURVE SMOOTH",
"153 399 LINE SMOOTH",
"145 172 OFFCURVE",
"286 -22 OFFCURVE",
"543 -22 CURVE SMOOTH",
"646 -22 OFFCURVE",
"799 23 OFFCURVE",
"869 145 CURVE",
"869 46 LINE SMOOTH",
"869 -159 OFFCURVE",
"739 -327 OFFCURVE",
"520 -327 CURVE SMOOTH",
"440 -327 OFFCURVE",
"317 -300 OFFCURVE",
"217 -250 CURVE",
"198 -403 LINE"
);
},
{
closed = 1;
nodes = (
"535 1173 LINE",
"665 1173 LINE",
"972.999 1493 LINE",
"761 1493 LINE"
);
}
);
width = 1186;
}
);
unicode = 00FD;
},
{
glyphname = Thorn;
layers = (
{
layerId = "E08CDE4C-5D6C-43D8-8149-5F9E51F0B944";
name = Bold;
paths = (
{
closed = 1;
nodes = (
"203 0 LINE",
"375 0 LINE",
"375 443 LINE",
"597 443 LINE SMOOTH",
"764 443 OFFCURVE",
"913 480 OFFCURVE",
"1018 546 CURVE SMOOTH",
"1121 611 OFFCURVE",
"1200 714 OFFCURVE",
"1200 876 CURVE SMOOTH",
"1200 1231 OFFCURVE",
"899 1312 OFFCURVE",
"544 1312 CURVE SMOOTH",
"375 1312 LINE",
"375 1456 LINE",
"203 1456 LINE"
);
},
{
closed = 1;
nodes = (
"375 592 LINE",
"375 1164 LINE",
"588 1164 LINE SMOOTH",
"828 1164 OFFCURVE",
"1016 1114 OFFCURVE",
"1016 874 CURVE SMOOTH",
"1016 825 OFFCURVE",
"1007 782 OFFCURVE",
"987.999 747 CURVE SMOOTH",
"930 639 OFFCURVE",
"802 592 OFFCURVE",
"636 592 CURVE SMOOTH"
);
}
);
width = 1274;
}
);
unicode = 00DE;
},
{
glyphname = thorn;
layers = (
{
layerId = "E08CDE4C-5D6C-43D8-8149-5F9E51F0B944";
name = Bold;
paths = (
{
closed = 1;
nodes = (
"158 -427 LINE",
"323 -427 LINE",
"323 135 LINE",
"409 30 OFFCURVE",
"524 -23 OFFCURVE",
"668 -23 CURVE SMOOTH",
"747 -23 OFFCURVE",
"815 -8 OFFCURVE",
"874 22 CURVE SMOOTH",
"1037 106 OFFCURVE",
"1139 284 OFFCURVE",
"1139 527 CURVE SMOOTH",
"1139 598 OFFCURVE",
"1129 664 OFFCURVE",
"1110 728 CURVE SMOOTH",
"1054 916 OFFCURVE",
"912 1051 OFFCURVE",
"668 1051 CURVE SMOOTH",
"507 1051 OFFCURVE",
"399 981.999 OFFCURVE",
"325 882 CURVE",
"325 1455 LINE",
"158 1455 LINE"
);
},
{
closed = 1;
nodes = (
"963 296 OFFCURVE",
"870 109 OFFCURVE",
"644 109 CURVE SMOOTH",
"592 109 OFFCURVE",
"546 119 OFFCURVE",
"506 138 CURVE SMOOTH",
"389 195 OFFCURVE",
"323 321 OFFCURVE",
"323 494 CURVE SMOOTH",
"323 732 OFFCURVE",
"411 917 OFFCURVE",
"650 917 CURVE SMOOTH",
"875 917 OFFCURVE",
"963 745 OFFCURVE",
"963 521 CURVE SMOOTH"
);
}
);
width = 1239;
}
);
unicode = 00FE;
},
{
glyphname = Zcaron;
layers = (
{
layerId = "E08CDE4C-5D6C-43D8-8149-5F9E51F0B944";
name = Bold;
paths = (
{
closed = 1;
nodes = (
"58 0 LINE",
"1146 0 LINE",
"1146 148 LINE",
"286 148 LINE",
"1154 1368 LINE",
"1154 1456 LINE",
"90 1456 LINE",
"90 1308 LINE",
"922 1308 LINE",
"58 92 LINE"
);
},
{
closed = 1;
nodes = (
"593 1600 LINE",
"749 1600 LINE",
"986.999 1923 LINE",
"833 1923 LINE",
"665 1708 LINE",
"501 1923 LINE",
"354 1923 LINE"
);
}
);
width = 1222;
}
);
unicode = 017D;
},
{
glyphname = zcaron;
layers = (
{
layerId = "E08CDE4C-5D6C-43D8-8149-5F9E51F0B944";
name = Bold;
paths = (
{
closed = 1;
nodes = (
"80 0 LINE",
"920 0 LINE",
"920 134 LINE",
"305 134 LINE",
"903 939 LINE",
"903 1026 LINE",
"106 1026 LINE",
"106 891 LINE",
"680 891 LINE",
"80 89 LINE"
);
},
{
closed = 1;
nodes = (
"432 1173 LINE",
"588 1173 LINE",
"826 1496 LINE",
"672 1496 LINE",
"504 1281 LINE",
"340 1496 LINE",
"193 1496 LINE"
);
}
);
width = 978;
}
);
unicode = 017E;
},
{
glyphname = onehalf;
layers = (
{
layerId = "E08CDE4C-5D6C-43D8-8149-5F9E51F0B944";
name = Bold;
paths = (
{
closed = 1;
nodes = (
"651 604 LINE",
"1197 604 LINE",
"1197 722 LINE",
"833 722 LINE",
"925 802 OFFCURVE",
"1018 879 OFFCURVE",
"1092 967.999 CURVE SMOOTH",
"1146 1033 OFFCURVE",
"1198 1108 OFFCURVE",
"1198 1213 CURVE SMOOTH",
"1198 1248 OFFCURVE",
"1191 1279 OFFCURVE",
"1178 1307 CURVE SMOOTH",
"1139 1388 OFFCURVE",
"1053 1440 OFFCURVE",
"935 1440 CURVE SMOOTH",
"797 1440 OFFCURVE",
"702 1370 OFFCURVE",
"659 1270 CURVE",
"744 1192 LINE",
"777 1262 OFFCURVE",
"834 1323 OFFCURVE",
"929 1323 CURVE SMOOTH",
"1008 1323 OFFCURVE",
"1069 1286 OFFCURVE",
"1069 1211 CURVE SMOOTH",
"1069 1183 OFFCURVE",
"1059 1152 OFFCURVE",
"1038 1118 CURVE SMOOTH",
"1017 1084 OFFCURVE",
"988.999 1047 OFFCURVE",
"952 1006 CURVE SMOOTH",
"863 908 OFFCURVE",
"757 812 OFFCURVE",
"651 715 CURVE"
);
},
{
closed = 1;
nodes = (
"1828 604 LINE",
"2193 604 LINE",
"2193 720 LINE",
"2071 720 LINE",
"2071 1427 LINE",
"1966 1412 LINE",
"1914 1381 OFFCURVE",
"1865 1354 OFFCURVE",
"1798 1333 CURVE",
"1797 1203 LINE",
"1847 1222 OFFCURVE",
"1905 1248 OFFCURVE",
"1949 1271 CURVE",
"1949 1168 LINE SMOOTH",
"1949 1116 OFFCURVE",
"1950 1067 OFFCURVE",
"1950 1008 CURVE SMOOTH",
"1950 723 LINE",
"1828 723 LINE"
);
},
{
closed = 1;
nodes = (
"-337 0 LINE",
"-186 0 LINE",
"717 1436 LINE",
"568 1436 LINE"
);
}
);
width = 2748;
}
);
unicode = 00BD;
},
{
glyphname = onequarter;
layers = (
{
layerId = "E08CDE4C-5D6C-43D8-8149-5F9E51F0B944";
name = Bold;
paths = (
{
closed = 1;
nodes = (
"638 604 LINE",
"1003 604 LINE",
"1003 720 LINE",
"881 720 LINE",
"881 1427 LINE",
"776 1412 LINE",
"724 1381 OFFCURVE",
"675 1354 OFFCURVE",
"608 1333 CURVE",
"607 1203 LINE",
"657 1222 OFFCURVE",
"715 1248 OFFCURVE",
"759 1271 CURVE",
"759 1168 LINE SMOOTH",
"759 1116 OFFCURVE",
"760 1067 OFFCURVE",
"760 1008 CURVE SMOOTH",
"760 723 LINE",
"638 723 LINE"
);
},
{
closed = 1;
nodes = (
"1914 615 LINE",
"2034 615 LINE",
"2034 803 LINE",
"2155 803 LINE",
"2145 910 LINE",
"2036 910 LINE",
"2036 1412 LINE",
"1902 1412 LINE",
"1536 894 LINE",
"1536 803 LINE",
"1914 803 LINE"
);
},
{
closed = 1;
nodes = (
"-337 0 LINE",
"-186 0 LINE",
"717 1436 LINE",
"568 1436 LINE"
);
},
{
closed = 1;
nodes = (
"1675 910 LINE",
"1914 1244 LINE",
"1914 910 LINE"
);
}
);
width = 2455;
}
);
unicode = 00BC;
},
{
glyphname = threequarters;
layers = (
{
layerId = "E08CDE4C-5D6C-43D8-8149-5F9E51F0B944";
name = Bold;
paths = (
{
closed = 1;
nodes = (
"660 626 OFFCURVE",
"742 586 OFFCURVE",
"849 586 CURVE SMOOTH",
"889 586 OFFCURVE",
"928 592 OFFCURVE",
"964 603 CURVE SMOOTH",
"1062 634 OFFCURVE",
"1148 708 OFFCURVE",
"1148 834 CURVE SMOOTH",
"1148 937 OFFCURVE",
"1094 998.999 OFFCURVE",
"1020 1032 CURVE",
"1082 1065 OFFCURVE",
"1127 1124 OFFCURVE",
"1127 1213 CURVE SMOOTH",
"1127 1250 OFFCURVE",
"1119 1282 OFFCURVE",
"1104 1310 CURVE SMOOTH",
"1062 1388 OFFCURVE",
"973.999 1441 OFFCURVE",
"855 1441 CURVE SMOOTH",
"751 1441 OFFCURVE",
"658 1394 OFFCURVE",
"603 1340 CURVE",
"661 1244 LINE",
"710 1284 OFFCURVE",
"771 1322 OFFCURVE",
"853 1322 CURVE SMOOTH",
"934 1322 OFFCURVE",
"993.999 1291 OFFCURVE",
"993.999 1210 CURVE SMOOTH",
"993.999 1110 OFFCURVE",
"898 1089 OFFCURVE",
"797 1089 CURVE SMOOTH",
"748 1089 LINE",
"748 969.999 LINE",
"774 969.999 LINE SMOOTH",
"783 969.999 OFFCURVE",
"797 970.999 OFFCURVE",
"804 970.999 CURVE SMOOTH",
"917 970.999 OFFCURVE",
"1019 948 OFFCURVE",
"1019 837 CURVE SMOOTH",
"1019 745 OFFCURVE",
"938 701 OFFCURVE",
"844 701 CURVE SMOOTH",
"779 701 OFFCURVE",
"719 727 OFFCURVE",
"663 779 CURVE",
"603 683 LINE"
);
},
{
closed = 1;
nodes = (
"1914 615 LINE",
"2034 615 LINE",
"2034 803 LINE",
"2155 803 LINE",
"2145 910 LINE",
"2036 910 LINE",
"2036 1412 LINE",
"1902 1412 LINE",
"1536 894 LINE",
"1536 803 LINE",
"1914 803 LINE"
);
},
{
closed = 1;
nodes = (
"-337 0 LINE",
"-186 0 LINE",
"717 1436 LINE",
"568 1436 LINE"
);
},
{
closed = 1;
nodes = (
"1675 910 LINE",
"1914 1244 LINE",
"1914 910 LINE"
);
}
);
width = 2455;
}
);
unicode = 00BE;
},
{
glyphname = brokenbar;
layers = (
{
layerId = "E08CDE4C-5D6C-43D8-8149-5F9E51F0B944";
name = Bold;
paths = (
{
closed = 1;
nodes = (
"168 -491 LINE",
"325 -491 LINE",
"325 393 LINE",
"168 393 LINE"
);
},
{
closed = 1;
nodes = (
"168 677 LINE",
"325 677 LINE",
"325 1545 LINE",
"168 1545 LINE"
);
}
);
width = 500;
}
);
unicode = 00A6;
},
{
glyphname = minus;
layers = (
{
layerId = "E08CDE4C-5D6C-43D8-8149-5F9E51F0B944";
name = Bold;
paths = (
{
closed = 1;
nodes = (
"198 496 LINE",
"1247 496 LINE",
"1247 633 LINE",
"198 633 LINE"
);
}
);
width = 1458;
}
);
unicode = 2212;
},
{
glyphname = multiply;
layers = (
{
layerId = "E08CDE4C-5D6C-43D8-8149-5F9E51F0B944";
name = Bold;
paths = (
{
closed = 1;
nodes = (
"425 154 LINE",
"722 450 LINE",
"1018 154 LINE",
"1122 258 LINE",
"825 554 LINE",
"1122 850 LINE",
"1018 954 LINE",
"722 657 LINE",
"425 954 LINE",
"322 851 LINE",
"618 554 LINE",
"322 257 LINE"
);
}
);
width = 1458;
}
);
unicode = 00D7;
},
{
glyphname = exclam;
layers = (
{
layerId = "E08CDE4C-5D6C-43D8-8149-5F9E51F0B944";
name = Bold;
paths = (
{
closed = 1;
nodes = (
"239 46 OFFCURVE",
"279 -6 OFFCURVE",
"352 -6 CURVE SMOOTH",
"409 -6 OFFCURVE",
"466 35 OFFCURVE",
"466 105 CURVE SMOOTH",
"466 165 OFFCURVE",
"426 217 OFFCURVE",
"353 217 CURVE SMOOTH",
"296 217 OFFCURVE",
"239 176 OFFCURVE",
"239 106 CURVE SMOOTH"
);
},
{
closed = 1;
nodes = (
"305 373 LINE",
"391 373 LINE",
"441 1451 LINE",
"254 1451 LINE"
);
}
);
width = 737;
}
);
unicode = 0021;
},
{
glyphname = quotedbl;
layers = (
{
layerId = "E08CDE4C-5D6C-43D8-8149-5F9E51F0B944";
name = Bold;
paths = (
{
closed = 1;
nodes = (
"150 988.999 LINE",
"281 988.999 LINE",
"281 1451 LINE",
"114 1451 LINE"
);
},
{
closed = 1;
nodes = (
"439 988.999 LINE",
"569 988.999 LINE",
"569 1451 LINE",
"403 1451 LINE"
);
}
);
width = 720;
}
);
unicode = 0022;
},
{
glyphname = numbersign;
layers = (
{
layerId = "E08CDE4C-5D6C-43D8-8149-5F9E51F0B944";
name = Bold;
paths = (
{
closed = 1;
nodes = (
"210 60 LINE",
"356 60 LINE",
"438 485 LINE",
"699 485 LINE",
"619 60 LINE",
"764 60 LINE",
"847 485 LINE",
"1107 485 LINE",
"1121 611 LINE",
"869 611 LINE",
"920 886 LINE",
"1170 886 LINE",
"1184 1010 LINE",
"943 1010 LINE",
"1021 1420 LINE",
"875 1420 LINE",
"799 1010 LINE",
"538 1010 LINE",
"615 1420 LINE",
"469 1420 LINE",
"390 1010 LINE",
"120 1010 LINE",
"107 886 LINE",
"368 886 LINE",
"351 793 OFFCURVE",
"334 705 OFFCURVE",
"318 611 CURVE",
"53 611 LINE",
"42 485 LINE",
"294 485 LINE"
);
},
{
closed = 1;
nodes = (
"460 611 LINE",
"514 886 LINE",
"775 886 LINE",
"724 611 LINE"
);
}
);
width = 1242;
}
);
unicode = 0023;
},
{
glyphname = dollar;
layers = (
{
layerId = "E08CDE4C-5D6C-43D8-8149-5F9E51F0B944";
name = Bold;
paths = (
{
closed = 1;
nodes = (
"536 -172 LINE",
"659 -172 LINE",
"656 -11 LINE",
"713 -6 OFFCURVE",
"768 5 OFFCURVE",
"819 24 CURVE SMOOTH",
"957 74 OFFCURVE",
"1080 177 OFFCURVE",
"1080 361 CURVE SMOOTH",
"1080 477 OFFCURVE",
"1038 547 OFFCURVE",
"971.999 604 CURVE SMOOTH",
"888 677 OFFCURVE",
"779 722 OFFCURVE",
"656 770 CURVE",
"658 1299 LINE",
"781 1295 OFFCURVE",
"878 1261 OFFCURVE",
"948 1198 CURVE",
"996.999 1326 LINE",
"917 1394 OFFCURVE",
"798 1436 OFFCURVE",
"657 1439 CURVE",
"654 1575 LINE",
"530 1575 LINE",
"534 1437 LINE",
"421 1428 OFFCURVE",
"325 1377 OFFCURVE",
"259 1315 CURVE SMOOTH",
"195 1254 OFFCURVE",
"137 1164 OFFCURVE",
"137 1047 CURVE SMOOTH",
"137 990.999 OFFCURVE",
"148 944 OFFCURVE",
"169 904 CURVE SMOOTH",
"240 772 OFFCURVE",
"390 712 OFFCURVE",
"534 648 CURVE",
"531 127 LINE",
"421 132 OFFCURVE",
"325 173 OFFCURVE",
"251 223 CURVE",
"202 89 LINE",
"291 25 OFFCURVE",
"393 -13 OFFCURVE",
"532 -16 CURVE"
);
},
{
closed = 1;
nodes = (
"841 192 OFFCURVE",
"758 145 OFFCURVE",
"654 131 CURVE",
"658 605 LINE",
"765 559 OFFCURVE",
"901 507 OFFCURVE",
"901 358 CURVE SMOOTH",
"901 325 OFFCURVE",
"894 296 OFFCURVE",
"881 270 CURVE SMOOTH"
);
},
{
closed = 1;
nodes = (
"532 818 LINE",
"425 858 OFFCURVE",
"326 913 OFFCURVE",
"326 1059 CURVE SMOOTH",
"326 1193 OFFCURVE",
"414 1278 OFFCURVE",
"534 1293 CURVE"
);
}
);
width = 1190;
}
);
unicode = 0024;
},
{
glyphname = percent;
layers = (
{
layerId = "E08CDE4C-5D6C-43D8-8149-5F9E51F0B944";
name = Bold;
paths = (
{
closed = 1;
nodes = (
"237 783 OFFCURVE",
"344 686 OFFCURVE",
"520 686 CURVE SMOOTH",
"575 686 OFFCURVE",
"624 696 OFFCURVE",
"668 716 CURVE SMOOTH",
"791 772 OFFCURVE",
"877 892 OFFCURVE",
"877 1068 CURVE SMOOTH",
"877 1294 OFFCURVE",
"753 1447 OFFCURVE",
"526 1447 CURVE SMOOTH",
"471 1447 OFFCURVE",
"421 1438 OFFCURVE",
"377 1418 CURVE SMOOTH",
"253 1363 OFFCURVE",
"168 1240 OFFCURVE",
"168 1064 CURVE SMOOTH",
"168 1011 OFFCURVE",
"176 961 OFFCURVE",
"192 915 CURVE SMOOTH"
);
},
{
closed = 1;
nodes = (
"1167 70 OFFCURVE",
"1273 -27 OFFCURVE",
"1449 -27 CURVE SMOOTH",
"1504 -27 OFFCURVE",
"1553 -17 OFFCURVE",
"1597 3 CURVE SMOOTH",
"1720 59 OFFCURVE",
"1806 180 OFFCURVE",
"1806 356 CURVE SMOOTH",
"1806 582 OFFCURVE",
"1682 735 OFFCURVE",
"1455 735 CURVE SMOOTH",
"1400 735 OFFCURVE",
"1350 725 OFFCURVE",
"1306 705 CURVE SMOOTH",
"1182 649 OFFCURVE",
"1097 528 OFFCURVE",
"1097 351 CURVE SMOOTH",
"1097 298 OFFCURVE",
"1105 248 OFFCURVE",
"1121 202 CURVE SMOOTH"
);
},
{
closed = 1;
nodes = (
"734 923 OFFCURVE",
"670 799 OFFCURVE",
"524 799 CURVE SMOOTH",
"376 799 OFFCURVE",
"312 917 OFFCURVE",
"312 1065 CURVE SMOOTH",
"312 1212 OFFCURVE",
"377 1335 OFFCURVE",
"525 1335 CURVE SMOOTH",
"560 1335 OFFCURVE",
"592 1328 OFFCURVE",
"618 1314 CURVE SMOOTH",
"695 1273 OFFCURVE",
"734 1186 OFFCURVE",
"734 1069 CURVE SMOOTH"
);
},
{
closed = 1;
nodes = (
"1662 211 OFFCURVE",
"1599 86 OFFCURVE",
"1452 86 CURVE SMOOTH",
"1416 86 OFFCURVE",
"1384 92.9999 OFFCURVE",
"1358 107 CURVE SMOOTH",
"1281 148 OFFCURVE",
"1241 234 OFFCURVE",
"1241 350 CURVE SMOOTH",
"1241 497 OFFCURVE",
"1306 622 OFFCURVE",
"1454 622 CURVE SMOOTH",
"1600 622 OFFCURVE",
"1662 504 OFFCURVE",
"1662 357 CURVE SMOOTH"
);
},
{
closed = 1;
nodes = (
"440 -5 LINE",
"594 -5 LINE",
"1499 1436 LINE",
"1344 1436 LINE"
);
}
);
width = 1985;
}
);
unicode = 0025;
},
{
glyphname = ampersand;
layers = (
{
layerId = "E08CDE4C-5D6C-43D8-8149-5F9E51F0B944";
name = Bold;
paths = (
{
closed = 1;
nodes = (
"239 62 OFFCURVE",
"421 -27 OFFCURVE",
"661 -27 CURVE SMOOTH",
"894 -27 OFFCURVE",
"1047 70 OFFCURVE",
"1166 186 CURVE",
"1256 99.9999 OFFCURVE",
"1338 9.99999 OFFCURVE",
"1486 -12 CURVE",
"1618 86 LINE",
"1576 94.9999 OFFCURVE",
"1539 104 OFFCURVE",
"1508 114 CURVE SMOOTH",
"1399 150 OFFCURVE",
"1334 208 OFFCURVE",
"1260 284 CURVE",
"1371 427 OFFCURVE",
"1454 625 OFFCURVE",
"1463 863 CURVE",
"1296 884 LINE",
"1296 842 OFFCURVE",
"1292 800 OFFCURVE",
"1285 756 CURVE SMOOTH",
"1262 618 OFFCURVE",
"1211 493 OFFCURVE",
"1144 398 CURVE",
"729 822 LINE",
"807 864 OFFCURVE",
"885 915 OFFCURVE",
"942 976.999 CURVE SMOOTH",
"989.999 1029 OFFCURVE",
"1036 1096 OFFCURVE",
"1036 1188 CURVE SMOOTH",
"1036 1237 OFFCURVE",
"1026 1278 OFFCURVE",
"1004 1314 CURVE SMOOTH",
"943 1414 OFFCURVE",
"820 1473 OFFCURVE",
"661 1473 CURVE SMOOTH",
"462 1473 OFFCURVE",
"299 1381 OFFCURVE",
"299 1182 CURVE SMOOTH",
"299 1147 OFFCURVE",
"304 1115 OFFCURVE",
"315 1086 CURVE SMOOTH",
"351 987.999 OFFCURVE",
"425 921 OFFCURVE",
"494 852 CURVE",
"400 802 OFFCURVE",
"304 744 OFFCURVE",
"233 672 CURVE SMOOTH",
"169 607 OFFCURVE",
"115 523 OFFCURVE",
"115 402 CURVE SMOOTH",
"115 334 OFFCURVE",
"128 273 OFFCURVE",
"156 220 CURVE SMOOTH"
);
},
{
closed = 1;
nodes = (
"961 197 OFFCURVE",
"848 116 OFFCURVE",
"658 116 CURVE SMOOTH",
"605 116 OFFCURVE",
"556 123 OFFCURVE",
"512 138 CURVE SMOOTH",
"398 176 OFFCURVE",
"295 259 OFFCURVE",
"295 406 CURVE SMOOTH",
"295 449 OFFCURVE",
"303 488 OFFCURVE",
"320 522 CURVE SMOOTH",
"374 632 OFFCURVE",
"485 694 OFFCURVE",
"594 750 CURVE",
"823 523 LINE SMOOTH",
"892 454 OFFCURVE",
"967 375 OFFCURVE",
"1034 311 CURVE SMOOTH",
"1048 298 OFFCURVE",
"1056 291 OFFCURVE",
"1058 291 CURVE"
);
},
{
closed = 1;
nodes = (
"799 1017 OFFCURVE",
"710 963 OFFCURVE",
"625 918 CURVE",
"602 939 OFFCURVE",
"582 959 OFFCURVE",
"563 978.999 CURVE SMOOTH",
"517 1028 OFFCURVE",
"472 1087 OFFCURVE",
"472 1178 CURVE SMOOTH",
"472 1288 OFFCURVE",
"559 1340 OFFCURVE",
"669 1340 CURVE SMOOTH",
"777 1340 OFFCURVE",
"865 1287 OFFCURVE",
"865 1178 CURVE SMOOTH",
"865 1150 OFFCURVE",
"858 1124 OFFCURVE",
"844 1099 CURVE SMOOTH"
);
}
);
width = 1647;
}
);
unicode = 0026;
},
{
glyphname = quotesingle;
layers = (
{
layerId = "E08CDE4C-5D6C-43D8-8149-5F9E51F0B944";
name = Bold;
paths = (
{
closed = 1;
nodes = (
"212 988.999 LINE",
"342 988.999 LINE",
"342 1451 LINE",
"176 1451 LINE"
);
}
);
width = 554;
}
);
unicode = 0027;
},
{
glyphname = parenleft;
layers = (
{
layerId = "E08CDE4C-5D6C-43D8-8149-5F9E51F0B944";
name = Bold;
paths = (
{
closed = 1;
nodes = (
"222 120 OFFCURVE",
"319 -84 OFFCURVE",
"433 -259 CURVE",
"579 -259 LINE",
"539 -196 OFFCURVE",
"502 -130 OFFCURVE",
"470 -60 CURVE SMOOTH",
"386 121 OFFCURVE",
"316 336 OFFCURVE",
"316 590 CURVE SMOOTH",
"316 944 OFFCURVE",
"429 1214 OFFCURVE",
"578 1451 CURVE",
"430 1451 LINE",
"388 1385 OFFCURVE",
"350 1318 OFFCURVE",
"316 1250 CURVE SMOOTH",
"225 1066 OFFCURVE",
"153 855 OFFCURVE",
"153 587 CURVE SMOOTH",
"153 510 OFFCURVE",
"160 434 OFFCURVE",
"175 359 CURVE SMOOTH"
);
}
);
width = 628;
}
);
unicode = 0028;
},
{
glyphname = parenright;
layers = (
{
layerId = "E08CDE4C-5D6C-43D8-8149-5F9E51F0B944";
name = Bold;
paths = (
{
closed = 1;
nodes = (
"256 124 OFFCURVE",
"167 -82 OFFCURVE",
"56 -259 CURVE",
"205 -259 LINE",
"349 -32 OFFCURVE",
"479 234 OFFCURVE",
"479 598 CURVE SMOOTH",
"479 675 OFFCURVE",
"472 751 OFFCURVE",
"458 826 CURVE SMOOTH",
"412 1069 OFFCURVE",
"313 1272 OFFCURVE",
"199 1451 CURVE",
"52 1451 LINE",
"93.9999 1385 OFFCURVE",
"131 1316 OFFCURVE",
"164 1245 CURVE SMOOTH",
"246 1065 OFFCURVE",
"315 854 OFFCURVE",
"315 604 CURVE SMOOTH",
"315 524 OFFCURVE",
"309 445 OFFCURVE",
"296 368 CURVE SMOOTH"
);
}
);
width = 628;
}
);
unicode = 0029;
},
{
glyphname = asterisk;
layers = (
{
layerId = "E08CDE4C-5D6C-43D8-8149-5F9E51F0B944";
name = Bold;
paths = (
{
closed = 1;
nodes = (
"692 737 LINE",
"818 810 LINE",
"617 1061 LINE",
"880 1149 LINE",
"816 1274 LINE",
"581 1153 LINE",
"581 1451 LINE",
"439 1451 LINE",
"452 1351 OFFCURVE",
"467 1248 OFFCURVE",
"480 1148 CURVE",
"196 1271 LINE",
"175 1136 LINE",
"448 1058 LINE",
"257 820 LINE",
"381 745 LINE",
"534 1003 LINE"
);
}
);
width = 1065;
}
);
unicode = 002A;
},
{
glyphname = plus;
layers = (
{
layerId = "E08CDE4C-5D6C-43D8-8149-5F9E51F0B944";
name = Bold;
paths = (
{
closed = 1;
nodes = (
"646 62 LINE",
"795 62 LINE",
"795 485 LINE",
"1246 485 LINE",
"1246 624 LINE",
"797 624 LINE",
"797 1047 LINE",
"649 1047 LINE",
"649 624 LINE",
"198 624 LINE",
"198 485 LINE",
"646 485 LINE"
);
}
);
width = 1458;
}
);
unicode = 002B;
},
{
glyphname = comma;
layers = (
{
layerId = "E08CDE4C-5D6C-43D8-8149-5F9E51F0B944";
name = Bold;
paths = (
{
closed = 1;
nodes = (
"78 -256 LINE",
"209 -256 LINE",
"372 207 LINE",
"185 207 LINE"
);
}
);
width = 540;
}
);
unicode = 002C;
},
{
glyphname = hyphen;
layers = (
{
layerId = "E08CDE4C-5D6C-43D8-8149-5F9E51F0B944";
name = Bold;
paths = (
{
closed = 1;
nodes = (
"79 489 LINE",
"651 489 LINE",
"651 626 LINE",
"79 626 LINE"
);
}
);
width = 728;
}
);
unicode = 002D;
},
{
glyphname = period;
lastChange = "2013-01-22 18:43:13 -0800";
layers = (
{
layerId = "E08CDE4C-5D6C-43D8-8149-5F9E51F0B944";
name = Bold;
paths = (
{
closed = 1;
nodes = (
"86 68 OFFCURVE",
"154 0 OFFCURVE",
"251 0 CURVE SMOOTH",
"348 0 OFFCURVE",
"417 67 OFFCURVE",
"417 161 CURVE SMOOTH",
"417 256 OFFCURVE",
"349 323 OFFCURVE",
"252 323 CURVE SMOOTH",
"155 323 OFFCURVE",
"86 257 OFFCURVE",
"86 164 CURVE SMOOTH"
);
}
);
width = 540;
}
);
unicode = 002E;
},
{
glyphname = slash;
layers = (
{
layerId = "E08CDE4C-5D6C-43D8-8149-5F9E51F0B944";
name = Bold;
paths = (
{
closed = 1;
nodes = (
"-47 -215 LINE",
"116 -215 LINE",
"757 1451 LINE",
"590 1451 LINE"
);
}
);
width = 717;
}
);
unicode = 002F;
},
{
glyphname = zero;
layers = (
{
layerId = "E08CDE4C-5D6C-43D8-8149-5F9E51F0B944";
name = Bold;
paths = (
{
closed = 1;
nodes = (
"931 440 OFFCURVE",
"868 119 OFFCURVE",
"607 119 CURVE SMOOTH",
"323 119 OFFCURVE",
"282 423 OFFCURVE",
"282 710 CURVE SMOOTH",
"282 983.999 OFFCURVE",
"341 1312 OFFCURVE",
"607 1312 CURVE SMOOTH",
"890 1312 OFFCURVE",
"931 995.999 OFFCURVE",
"931 710 CURVE SMOOTH"
);
},
{
closed = 1;
nodes = (
"104 319 OFFCURVE",
"219 -23 OFFCURVE",
"607 -23 CURVE SMOOTH",
"985.999 -23 OFFCURVE",
"1115 325 OFFCURVE",
"1115 710 CURVE SMOOTH",
"1115 1117 OFFCURVE",
"1012 1453 OFFCURVE",
"607 1453 CURVE SMOOTH",
"222 1453 OFFCURVE",
"104 1103 OFFCURVE",
"104 710 CURVE SMOOTH"
);
}
);
width = 1219;
}
);
unicode = 0030;
},
{
glyphname = one;
layers = (
{
layerId = "E08CDE4C-5D6C-43D8-8149-5F9E51F0B944";
name = Bold;
paths = (
{
closed = 1;
nodes = (
"552 0 LINE",
"724 0 LINE",
"724 1438 LINE",
"559 1436 LINE",
"491 1385 OFFCURVE",
"369 1312 OFFCURVE",
"253 1259 CURVE",
"294 1128 LINE",
"400 1172 OFFCURVE",
"486 1220 OFFCURVE",
"552 1270 CURVE"
);
}
);
width = 1190;
}
);
unicode = 0031;
},
{
glyphname = two;
layers = (
{
layerId = "E08CDE4C-5D6C-43D8-8149-5F9E51F0B944";
name = Bold;
paths = (
{
closed = 1;
nodes = (
"98.9999 0 LINE",
"1035 0 LINE",
"1035 145 LINE",
"305 145 LINE",
"407 239 OFFCURVE",
"521 341 OFFCURVE",
"623 442 CURVE SMOOTH",
"773 590 OFFCURVE",
"1032 806 OFFCURVE",
"1032 1078 CURVE SMOOTH",
"1032 1323 OFFCURVE",
"832 1448 OFFCURVE",
"584 1448 CURVE SMOOTH",
"357 1448 OFFCURVE",
"195 1342 OFFCURVE",
"133 1175 CURVE",
"230 1078 LINE",
"285 1204 OFFCURVE",
"395 1307 OFFCURVE",
"573 1307 CURVE SMOOTH",
"731 1307 OFFCURVE",
"857 1228 OFFCURVE",
"857 1071 CURVE SMOOTH",
"857 885 OFFCURVE",
"687 726 OFFCURVE",
"583 616 CURVE SMOOTH",
"432 456 OFFCURVE",
"255 297 OFFCURVE",
"97.9999 147 CURVE"
);
}
);
width = 1248;
}
);
unicode = 0032;
},
{
glyphname = three;
layers = (
{
layerId = "E08CDE4C-5D6C-43D8-8149-5F9E51F0B944";
name = Bold;
paths = (
{
closed = 1;
nodes = (
"145 56 OFFCURVE",
"314 -22 OFFCURVE",
"519 -22 CURVE SMOOTH",
"796 -22 OFFCURVE",
"1049 116 OFFCURVE",
"1049 392 CURVE SMOOTH",
"1049 605 OFFCURVE",
"900 710 OFFCURVE",
"721 746 CURVE",
"876 790 OFFCURVE",
"1010 889 OFFCURVE",
"1010 1086 CURVE SMOOTH",
"1010 1327 OFFCURVE",
"793 1449 OFFCURVE",
"550 1449 CURVE SMOOTH",
"345 1449 OFFCURVE",
"181 1364 OFFCURVE",
"121 1217 CURVE",
"219 1128 LINE",
"283 1236 OFFCURVE",
"384 1306 OFFCURVE",
"544 1306 CURVE SMOOTH",
"703 1306 OFFCURVE",
"826 1243 OFFCURVE",
"826 1085 CURVE SMOOTH",
"826 869 OFFCURVE",
"664 813 OFFCURVE",
"446 813 CURVE SMOOTH",
"383 813 LINE",
"385 670 LINE",
"462 672 LINE",
"462 673 LINE",
"686 679 OFFCURVE",
"871 616 OFFCURVE",
"871 395 CURVE SMOOTH",
"871 211 OFFCURVE",
"714 120 OFFCURVE",
"528 120 CURVE SMOOTH",
"357 120 OFFCURVE",
"239 200 OFFCURVE",
"191 325 CURVE",
"108 224 LINE"
);
}
);
width = 1190;
}
);
unicode = 0033;
},
{
glyphname = four;
layers = (
{
layerId = "E08CDE4C-5D6C-43D8-8149-5F9E51F0B944";
name = Bold;
paths = (
{
closed = 1;
nodes = (
"726 0 LINE",
"898 0 LINE",
"898 351 LINE",
"1112 351 LINE",
"1112 483 LINE",
"898 483 LINE",
"898 1420 LINE",
"690 1420 LINE",
"25 475 LINE",
"25 351 LINE",
"726 351 LINE"
);
},
{
closed = 1;
nodes = (
"196 483 LINE",
"638 1146 LINE",
"726 1292 LINE",
"726 483 LINE"
);
}
);
width = 1189;
}
);
unicode = 0034;
},
{
glyphname = five;
layers = (
{
layerId = "E08CDE4C-5D6C-43D8-8149-5F9E51F0B944";
name = Bold;
paths = (
{
closed = 1;
nodes = (
"223 55 OFFCURVE",
"357 -23 OFFCURVE",
"548 -23 CURVE SMOOTH",
"629 -23 OFFCURVE",
"702 -10 OFFCURVE",
"766 14 CURVE SMOOTH",
"936 78 OFFCURVE",
"1068 220 OFFCURVE",
"1068 449 CURVE SMOOTH",
"1068 514 OFFCURVE",
"1058 574 OFFCURVE",
"1036 630 CURVE SMOOTH",
"971.999 793 OFFCURVE",
"824 905 OFFCURVE",
"599 905 CURVE SMOOTH",
"496 905 OFFCURVE",
"421 879 OFFCURVE",
"352 839 CURVE",
"366 1280 LINE",
"993.999 1280 LINE",
"993.999 1425 LINE",
"203 1425 LINE",
"203 652 LINE",
"379 658 LINE",
"419 718 OFFCURVE",
"495 758 OFFCURVE",
"593 758 CURVE SMOOTH",
"641 758 OFFCURVE",
"684 750 OFFCURVE",
"721 734 CURVE SMOOTH",
"823 690 OFFCURVE",
"891 595 OFFCURVE",
"891 452 CURVE SMOOTH",
"891 407 OFFCURVE",
"883 364 OFFCURVE",
"868 324 CURVE SMOOTH",
"823 202 OFFCURVE",
"713 119 OFFCURVE",
"546 119 CURVE SMOOTH",
"396 119 OFFCURVE",
"295 190 OFFCURVE",
"228 289 CURVE",
"147 173 LINE"
);
}
);
width = 1190;
}
);
unicode = 0035;
},
{
glyphname = six;
layers = (
{
layerId = "E08CDE4C-5D6C-43D8-8149-5F9E51F0B944";
name = Bold;
paths = (
{
closed = 1;
nodes = (
"146 240 OFFCURVE",
"286 -22 OFFCURVE",
"641 -22 CURVE SMOOTH",
"930 -22 OFFCURVE",
"1144 177 OFFCURVE",
"1144 466 CURVE SMOOTH",
"1144 737 OFFCURVE",
"972.999 957 OFFCURVE",
"665 957 CURVE SMOOTH",
"555 957 OFFCURVE",
"366 901 OFFCURVE",
"301 779 CURVE",
"361 1052 OFFCURVE",
"559 1291 OFFCURVE",
"910 1338 CURVE",
"874 1484 LINE",
"262 1391 OFFCURVE",
"98.9999 890 OFFCURVE",
"127 501 CURVE SMOOTH"
);
},
{
closed = 1;
nodes = (
"976.999 256 OFFCURVE",
"853 127 OFFCURVE",
"639 127 CURVE SMOOTH",
"404 127 OFFCURVE",
"294 292 OFFCURVE",
"294 469 CURVE SMOOTH",
"294 670 OFFCURVE",
"432 820 OFFCURVE",
"645 821 CURVE SMOOTH",
"899 822 OFFCURVE",
"976.999 634 OFFCURVE",
"976.999 461 CURVE SMOOTH"
);
}
);
width = 1248;
}
);
unicode = 0036;
},
{
glyphname = seven;
layers = (
{
layerId = "E08CDE4C-5D6C-43D8-8149-5F9E51F0B944";
name = Bold;
paths = (
{
closed = 1;
nodes = (
"315 0 LINE",
"501 0 LINE",
"1087 1329 LINE",
"1087 1420 LINE",
"117 1420 LINE",
"117 1275 LINE",
"895 1275 LINE"
);
}
);
width = 1196;
}
);
unicode = 0037;
},
{
glyphname = eight;
layers = (
{
layerId = "E08CDE4C-5D6C-43D8-8149-5F9E51F0B944";
name = Bold;
paths = (
{
closed = 1;
nodes = (
"222 62 OFFCURVE",
"385 -23 OFFCURVE",
"598 -23 CURVE SMOOTH",
"737 -23 OFFCURVE",
"859 17 OFFCURVE",
"943 78 CURVE SMOOTH",
"1026 138 OFFCURVE",
"1092 230 OFFCURVE",
"1092 367 CURVE SMOOTH",
"1092 580 OFFCURVE",
"955 694 OFFCURVE",
"776 747 CURVE",
"934 796 OFFCURVE",
"1057 898 OFFCURVE",
"1057 1091 CURVE SMOOTH",
"1057 1148 OFFCURVE",
"1045 1199 OFFCURVE",
"1021 1244 CURVE SMOOTH",
"951 1376 OFFCURVE",
"799 1453 OFFCURVE",
"598 1453 CURVE SMOOTH",
"534 1453 OFFCURVE",
"475 1444 OFFCURVE",
"419 1428 CURVE SMOOTH",
"270 1384 OFFCURVE",
"139 1280 OFFCURVE",
"139 1091 CURVE SMOOTH",
"139 898 OFFCURVE",
"262 796 OFFCURVE",
"420 747 CURVE",
"241 694 OFFCURVE",
"104 580 OFFCURVE",
"104 367 CURVE SMOOTH",
"104 304 OFFCURVE",
"118 248 OFFCURVE",
"145 200 CURVE SMOOTH"
);
},
{
closed = 1;
nodes = (
"844 172 OFFCURVE",
"740 119 OFFCURVE",
"598 119 CURVE SMOOTH",
"418 119 OFFCURVE",
"281 201 OFFCURVE",
"281 380 CURVE SMOOTH",
"281 421 OFFCURVE",
"289 457 OFFCURVE",
"305 489 CURVE SMOOTH",
"356 592 OFFCURVE",
"468 647 OFFCURVE",
"598 673 CURVE",
"755 641 OFFCURVE",
"915 567 OFFCURVE",
"915 380 CURVE SMOOTH",
"915 337 OFFCURVE",
"907 300 OFFCURVE",
"891 268 CURVE SMOOTH"
);
},
{
closed = 1;
nodes = (
"885 917 OFFCURVE",
"755 849 OFFCURVE",
"598 820 CURVE",
"441 849 OFFCURVE",
"311 917 OFFCURVE",
"311 1086 CURVE SMOOTH",
"311 1123 OFFCURVE",
"319 1156 OFFCURVE",
"334 1185 CURVE SMOOTH",
"378 1268 OFFCURVE",
"473 1317 OFFCURVE",
"598 1317 CURVE SMOOTH",
"754 1317 OFFCURVE",
"885 1242 OFFCURVE",
"885 1086 CURVE SMOOTH"
);
}
);
width = 1196;
}
);
unicode = 0038;
},
{
glyphname = nine;
layers = (
{
layerId = "E08CDE4C-5D6C-43D8-8149-5F9E51F0B944";
name = Bold;
paths = (
{
closed = 1;
nodes = (
"527 -76 LINE",
"994.999 598 LINE SMOOTH",
"1086 729 OFFCURVE",
"1134 865 OFFCURVE",
"1134 990.999 CURVE SMOOTH",
"1134 1243 OFFCURVE",
"974.999 1483 OFFCURVE",
"620 1483 CURVE SMOOTH",
"331 1483 OFFCURVE",
"117 1282 OFFCURVE",
"117 994.999 CURVE SMOOTH",
"117 724 OFFCURVE",
"299 515 OFFCURVE",
"607 515 CURVE SMOOTH",
"717 515 OFFCURVE",
"792 569 OFFCURVE",
"800 575 CURVE",
"391 0 LINE"
);
},
{
closed = 1;
nodes = (
"967 791 OFFCURVE",
"855 651 OFFCURVE",
"627 651 CURVE SMOOTH",
"373 651 OFFCURVE",
"289 821 OFFCURVE",
"289 993.999 CURVE SMOOTH",
"289 1205 OFFCURVE",
"418 1334 OFFCURVE",
"632 1334 CURVE SMOOTH",
"867 1334 OFFCURVE",
"967 1202 OFFCURVE",
"967 991.999 CURVE SMOOTH"
);
}
);
width = 1248;
}
);
unicode = 0039;
},
{
glyphname = colon;
layers = (
{
layerId = "E08CDE4C-5D6C-43D8-8149-5F9E51F0B944";
name = Bold;
paths = (
{
closed = 1;
nodes = (
"159 -11 LINE",
"376 -11 LINE",
"376 199 LINE",
"159 199 LINE"
);
},
{
closed = 1;
nodes = (
"159 841 LINE",
"376 841 LINE",
"376 1051 LINE",
"159 1051 LINE"
);
}
);
width = 540;
}
);
unicode = 003A;
},
{
glyphname = semicolon;
layers = (
{
layerId = "E08CDE4C-5D6C-43D8-8149-5F9E51F0B944";
name = Bold;
paths = (
{
closed = 1;
nodes = (
"99.9999 -256 LINE",
"231 -256 LINE",
"394 207 LINE",
"206 207 LINE"
);
},
{
closed = 1;
nodes = (
"159 841 LINE",
"376 841 LINE",
"376 1051 LINE",
"206 1051 LINE"
);
}
);
width = 540;
}
);
unicode = 003B;
},
{
glyphname = less;
layers = (
{
layerId = "E08CDE4C-5D6C-43D8-8149-5F9E51F0B944";
name = Bold;
paths = (
{
closed = 1;
nodes = (
"1223 48 LINE",
"1223 200 LINE",
"438 552 LINE",
"1227 914 LINE",
"1227 1067 LINE",
"219 595 LINE",
"219 508 LINE"
);
}
);
width = 1458;
}
);
unicode = 003C;
},
{
glyphname = equal;
layers = (
{
layerId = "E08CDE4C-5D6C-43D8-8149-5F9E51F0B944";
name = Bold;
paths = (
{
closed = 1;
nodes = (
"198 283 LINE",
"1247 283 LINE",
"1247 420 LINE",
"198 420 LINE"
);
},
{
closed = 1;
nodes = (
"197 689 LINE",
"1246 689 LINE",
"1246 827 LINE",
"197 827 LINE"
);
}
);
width = 1458;
}
);
unicode = 003D;
},
{
glyphname = greater;
layers = (
{
layerId = "E08CDE4C-5D6C-43D8-8149-5F9E51F0B944";
name = Bold;
paths = (
{
closed = 1;
nodes = (
"215 58 LINE",
"1225 505 LINE",
"1225 594 LINE",
"220 1078 LINE",
"220 926 LINE",
"1004 555 LINE",
"215 212 LINE"
);
}
);
width = 1458;
}
);
unicode = 003E;
},
{
glyphname = question;
layers = (
{
layerId = "E08CDE4C-5D6C-43D8-8149-5F9E51F0B944";
name = Bold;
paths = (
{
closed = 1;
nodes = (
"346 480 OFFCURVE",
"351 416 OFFCURVE",
"356 368 CURVE",
"520 368 LINE",
"511 418 LINE SMOOTH",
"506 444 OFFCURVE",
"503 482 OFFCURVE",
"503 513 CURVE SMOOTH",
"503 544 OFFCURVE",
"512 576 OFFCURVE",
"532 607 CURVE SMOOTH",
"601 717 OFFCURVE",
"714 802 OFFCURVE",
"796 902 CURVE SMOOTH",
"845 962 OFFCURVE",
"899 1034 OFFCURVE",
"899 1133 CURVE SMOOTH",
"899 1191 OFFCURVE",
"888 1241 OFFCURVE",
"866 1284 CURVE SMOOTH",
"800 1411 OFFCURVE",
"656 1478 OFFCURVE",
"464 1478 CURVE SMOOTH",
"358 1478 OFFCURVE",
"263 1452 OFFCURVE",
"183 1413 CURVE",
"183 1267 LINE",
"254 1307 OFFCURVE",
"340 1336 OFFCURVE",
"444 1336 CURVE SMOOTH",
"597 1336 OFFCURVE",
"730 1278 OFFCURVE",
"730 1125 CURVE SMOOTH",
"730 1085 OFFCURVE",
"721 1048 OFFCURVE",
"702 1014 CURVE SMOOTH",
"640 904 OFFCURVE",
"530 830 OFFCURVE",
"446 739 CURVE SMOOTH",
"398 687 OFFCURVE",
"346 622 OFFCURVE",
"346 530 CURVE SMOOTH"
);
},
{
closed = 1;
nodes = (
"329 -11 LINE",
"546 -11 LINE",
"546 199 LINE",
"329 199 LINE"
);
}
);
width = 1032;
}
);
unicode = 003F;
},
{
glyphname = at;
layers = (
{
layerId = "E08CDE4C-5D6C-43D8-8149-5F9E51F0B944";
name = Bold;
paths = (
{
closed = 1;
nodes = (
"504 -14 OFFCURVE",
"709 -109 OFFCURVE",
"967 -109 CURVE SMOOTH",
"1230 -109 OFFCURVE",
"1438 -17 OFFCURVE",
"1566 122 CURVE",
"1486 192 LINE",
"1362 86 OFFCURVE",
"1190 12 OFFCURVE",
"971.999 12 CURVE SMOOTH",
"753 12 OFFCURVE",
"585 90 OFFCURVE",
"471 202 CURVE SMOOTH",
"361 310 OFFCURVE",
"281 470 OFFCURVE",
"281 677 CURVE SMOOTH",
"281 884 OFFCURVE",
"367 1048 OFFCURVE",
"476 1158 CURVE SMOOTH",
"587 1270 OFFCURVE",
"753 1357 OFFCURVE",
"966 1357 CURVE SMOOTH",
"1162 1357 OFFCURVE",
"1321 1294 OFFCURVE",
"1428 1200 CURVE SMOOTH",
"1529 1111 OFFCURVE",
"1607 975.999 OFFCURVE",
"1607 796 CURVE SMOOTH",
"1607 673 OFFCURVE",
"1568 562 OFFCURVE",
"1517 486 CURVE SMOOTH",
"1474 421 OFFCURVE",
"1405 350 OFFCURVE",
"1309 350 CURVE SMOOTH",
"1249 350 OFFCURVE",
"1226 380 OFFCURVE",
"1226 436 CURVE SMOOTH",
"1226 467 OFFCURVE",
"1234 516 OFFCURVE",
"1250 584 CURVE SMOOTH",
"1266 652 OFFCURVE",
"1288 743 OFFCURVE",
"1314 857 CURVE SMOOTH",
"1371 1107 LINE",
"1225 1107 LINE",
"1207 1022 LINE",
"1168 1091 OFFCURVE",
"1084 1138 OFFCURVE",
"977.999 1138 CURVE SMOOTH",
"835 1138 OFFCURVE",
"721 1058 OFFCURVE",
"646 975.999 CURVE SMOOTH",
"568 890 OFFCURVE",
"498 763 OFFCURVE",
"498 610 CURVE SMOOTH",
"498 552 OFFCURVE",
"507 501 OFFCURVE",
"525 457 CURVE SMOOTH",
"570 347 OFFCURVE",
"664 257 OFFCURVE",
"814 257 CURVE SMOOTH",
"930 257 OFFCURVE",
"1013 313 OFFCURVE",
"1071 384 CURVE",
"1090 276 OFFCURVE",
"1165 225 OFFCURVE",
"1288 225 CURVE SMOOTH",
"1427 225 OFFCURVE",
"1540 307 OFFCURVE",
"1612 390 CURVE SMOOTH",
"1694 484 OFFCURVE",
"1760 622 OFFCURVE",
"1760 791 CURVE SMOOTH",
"1760 1018 OFFCURVE",
"1658 1176 OFFCURVE",
"1531 1283 CURVE SMOOTH",
"1398 1396 OFFCURVE",
"1213 1476 OFFCURVE",
"970.999 1476 CURVE SMOOTH",
"709 1476 OFFCURVE",
"513 1377 OFFCURVE",
"374 1246 CURVE SMOOTH",
"239 1119 OFFCURVE",
"130 935 OFFCURVE",
"130 679 CURVE SMOOTH",
"130 432 OFFCURVE",
"232 243 OFFCURVE",
"366 116 CURVE SMOOTH"
);
},
{
closed = 1;
nodes = (
"1006 454 OFFCURVE",
"934 385 OFFCURVE",
"831 385 CURVE SMOOTH",
"715 385 OFFCURVE",
"655 465 OFFCURVE",
"655 582 CURVE SMOOTH",
"655 693 OFFCURVE",
"697 795 OFFCURVE",
"746 866 CURVE SMOOTH",
"794 935 OFFCURVE",
"872 1007 OFFCURVE",
"979.999 1007 CURVE SMOOTH",
"1096 1007 OFFCURVE",
"1141 936 OFFCURVE",
"1141 821 CURVE SMOOTH",
"1141 702 OFFCURVE",
"1102 596 OFFCURVE",
"1052 522 CURVE SMOOTH"
);
}
);
width = 1895;
}
);
unicode = 0040;
},
{
glyphname = A;
lastChange = "2013-01-24 09:55:29 -0800";
layers = (
{
anchors = (
{
name = ogonek;
position = "{1282, 10}";
},
{
name = top;
position = "{713, 0}";
}
);
layerId = "E08CDE4C-5D6C-43D8-8149-5F9E51F0B944";
name = Bold;
paths = (
{
closed = 1;
nodes = (
"26 0 LINE",
"319 0 LINE",
"583 727 LINE",
"713 1100 LINE",
"847 727 LINE",
"1102 0 LINE",
"1406 0 LINE",
"841 1456 LINE",
"597 1456 LINE"
);
},
{
closed = 1;
nodes = (
"375 336 LINE",
"1075 336 LINE",
"1075 536 LINE",
"375 536 LINE"
);
}
);
width = 1425;
}
);
unicode = 0041;
},
{
glyphname = B;
lastChange = "2013-01-23 22:06:15 -0800";
layers = (
{
layerId = "E08CDE4C-5D6C-43D8-8149-5F9E51F0B944";
name = Bold;
paths = (
{
closed = 1;
nodes = (
"166 0 LINE",
"724 0 LINE SMOOTH",
"1140 0 OFFCURVE",
"1318 127 OFFCURVE",
"1318 422 CURVE SMOOTH",
"1318 636 OFFCURVE",
"1227 743 OFFCURVE",
"1014 779 CURVE",
"1183 827 OFFCURVE",
"1255 925 OFFCURVE",
"1255 1105 CURVE SMOOTH",
"1255 1351 OFFCURVE",
"1076 1456 OFFCURVE",
"658 1456 CURVE SMOOTH",
"166 1456 LINE"
);
},
{
closed = 1;
nodes = (
"426 198 LINE",
"426 660 LINE",
"702 660 LINE SMOOTH",
"960 660 OFFCURVE",
"1071 593 OFFCURVE",
"1071 435 CURVE SMOOTH",
"1071 269 OFFCURVE",
"965 198 OFFCURVE",
"718 198 CURVE SMOOTH"
);
},
{
closed = 1;
nodes = (
"426 845 LINE",
"426 1258 LINE",
"658 1258 LINE SMOOTH",
"903 1258 OFFCURVE",
"1008 1201 OFFCURVE",
"1008 1067 CURVE SMOOTH",
"1008 912 OFFCURVE",
"907 845 OFFCURVE",
"672 845 CURVE SMOOTH"
);
}
);
width = 1440;
}
);
unicode = 0042;
},
{
glyphname = C;
lastChange = "2013-01-23 22:02:33 -0800";
layers = (
{
anchors = (
{
name = bottom;
position = "{768, 0}";
},
{
name = top;
position = "{768, 0}";
}
);
layerId = "E08CDE4C-5D6C-43D8-8149-5F9E51F0B944";
name = Bold;
paths = (
{
closed = 1;
nodes = (
"99 277 OFFCURVE",
"409 -22 OFFCURVE",
"873 -22 CURVE SMOOTH",
"1050 -22 OFFCURVE",
"1242 38 OFFCURVE",
"1352 127 CURVE",
"1275 345 LINE",
"1175 266 OFFCURVE",
"1017 214 OFFCURVE",
"882 214 CURVE SMOOTH",
"577 214 OFFCURVE",
"373 418 OFFCURVE",
"373 725 CURVE SMOOTH",
"373 1039 OFFCURVE",
"578 1248 OFFCURVE",
"883 1248 CURVE SMOOTH",
"1009 1248 OFFCURVE",
"1156 1197 OFFCURVE",
"1249 1121 CURVE",
"1338 1332 LINE",
"1225 1423 OFFCURVE",
"1040 1483 OFFCURVE",
"875 1483 CURVE SMOOTH",
"409 1483 OFFCURVE",
"99 1180 OFFCURVE",
"99 726 CURVE SMOOTH"
);
}
);
width = 1482;
}
);
unicode = 0043;
},
{
glyphname = D;
lastChange = "2013-01-23 20:11:49 -0800";
layers = (
{
anchors = (
{
name = center;
position = "{777, 0}";
},
{
name = top;
position = "{777, 0}";
}
);
layerId = "E08CDE4C-5D6C-43D8-8149-5F9E51F0B944";
name = Bold;
paths = (
{
closed = 1;
nodes = (
"430 220 LINE",
"430 1236 LINE",
"592 1236 LINE SMOOTH",
"1018 1236 OFFCURVE",
"1201 1087 OFFCURVE",
"1201 739 CURVE SMOOTH",
"1201 376 OFFCURVE",
"1031 220 OFFCURVE",
"633 220 CURVE SMOOTH"
);
},
{
closed = 1;
nodes = (
"162 0 LINE",
"617 0 LINE SMOOTH",
"1215 0 OFFCURVE",
"1471 223 OFFCURVE",
"1471 742 CURVE SMOOTH",
"1471 1242 OFFCURVE",
"1197 1456 OFFCURVE",
"558 1456 CURVE SMOOTH",
"162 1456 LINE"
);
}
);
width = 1568;
}
);
unicode = 0044;
},
{
glyphname = E;
lastChange = "2013-01-23 21:47:16 -0800";
layers = (
{
anchors = (
{
name = bottom;
position = "{618, 0}";
},
{
name = ogonek;
position = "{1103, 10}";
},
{
name = top;
position = "{618, 0}";
}
);
layerId = "E08CDE4C-5D6C-43D8-8149-5F9E51F0B944";
name = Bold;
paths = (
{
closed = 1;
nodes = (
"166 0 LINE",
"1128 0 LINE",
"1128 200 LINE",
"426 200 LINE",
"426 646 LINE",
"1040 646 LINE",
"1040 842 LINE",
"426 842 LINE",
"426 1256 LINE",
"1078 1256 LINE",
"1078 1456 LINE",
"166 1456 LINE"
);
}
);
width = 1224;
}
);
unicode = 0045;
},
{
glyphname = F;
lastChange = "2013-01-24 10:00:17 -0800";
layers = (
{
layerId = "E08CDE4C-5D6C-43D8-8149-5F9E51F0B944";
name = Bold;
paths = (
{
closed = 1;
nodes = (
"150 0 LINE",
"410 0 LINE",
"410 667 LINE",
"1009 667 LINE",
"1009 855 LINE",
"410 855 LINE",
"410 1256 LINE",
"1043 1256 LINE",
"1043 1456 LINE",
"150 1456 LINE"
);
}
);
width = 1140;
}
);
unicode = 0046;
},
{
glyphname = G;
lastChange = "2013-01-23 21:35:39 -0800";
layers = (
{
anchors = (
{
name = bottom;
position = "{807, 0}";
},
{
name = top;
position = "{807, 0}";
}
);
guideLines = (
{
angle = 0;
position = "{904, 1490}";
},
{
angle = 0;
position = "{574, 1269}";
}
);
layerId = "E08CDE4C-5D6C-43D8-8149-5F9E51F0B944";
name = Bold;
paths = (
{
closed = 1;
nodes = (
"99 267 OFFCURVE",
"416 -22 OFFCURVE",
"892 -22 CURVE SMOOTH",
"1080 -22 OFFCURVE",
"1293 19 OFFCURVE",
"1425 81 CURVE",
"1425 787 LINE",
"862 787 LINE",
"862 608 LINE",
"1197 608 LINE",
"1197 246 LINE",
"1127 217 OFFCURVE",
"1011 198 OFFCURVE",
"906 198 CURVE SMOOTH",
"586 198 OFFCURVE",
"373 404 OFFCURVE",
"373 714 CURVE SMOOTH",
"373 1048 OFFCURVE",
"599 1271 OFFCURVE",
"938 1271 CURVE SMOOTH",
"1056 1271 OFFCURVE",
"1212 1230 OFFCURVE",
"1328 1168 CURVE",
"1410 1355 LINE",
"1276 1437 OFFCURVE",
"1075 1491 OFFCURVE",
"909 1491 CURVE SMOOTH",
"423 1491 OFFCURVE",
"99 1175 OFFCURVE",
"99 701 CURVE SMOOTH"
);
}
);
width = 1572;
}
);
unicode = 0047;
},
{
glyphname = H;
layers = (
{
anchors = (
{
name = center;
position = "{792, 0}";
},
{
name = top;
position = "{792, 0}";
}
);
layerId = "E08CDE4C-5D6C-43D8-8149-5F9E51F0B944";
name = Bold;
paths = (
{
closed = 1;
nodes = (
"166 0 LINE",
"436 0 LINE",
"436 638 LINE",
"1157 638 LINE",
"1157 0 LINE",
"1417 0 LINE",
"1417 1456 LINE",
"1157 1456 LINE",
"1157 855 LINE",
"436 855 LINE",
"436 1456 LINE",
"166 1456 LINE"
);
}
);
width = 1583;
}
);
unicode = 0048;
},
{
glyphname = I;
layers = (
{
anchors = (
{
name = ogonek;
position = "{533, 10}";
},
{
name = top;
position = "{296, 0}";
}
);
layerId = "E08CDE4C-5D6C-43D8-8149-5F9E51F0B944";
name = Bold;
paths = (
{
closed = 1;
nodes = (
"166 0 LINE",
"426 0 LINE",
"426 1456 LINE",
"166 1456 LINE"
);
}
);
width = 592;
}
);
unicode = 0049;
},
{
glyphname = J;
lastChange = "2013-01-23 16:42:16 -0800";
layers = (
{
anchors = (
{
name = top;
position = "{470, 0}";
}
);
layerId = "E08CDE4C-5D6C-43D8-8149-5F9E51F0B944";
name = Bold;
paths = (
{
closed = 1;
nodes = (
"314 -318 OFFCURVE",
"755 -216 OFFCURVE",
"755 296 CURVE SMOOTH",
"755 1264 LINE",
"1027 1264 LINE",
"1027 1456 LINE",
"114 1456 LINE",
"114 1264 LINE",
"495 1264 LINE",
"495 294 LINE SMOOTH",
"495 15 OFFCURVE",
"320 -41 OFFCURVE",
"53 92 CURVE",
"-19 -114 LINE"
);
}
);
width = 939;
}
);
unicode = 004A;
},
{
glyphname = K;
lastChange = "2013-01-24 10:02:02 -0800";
layers = (
{
anchors = (
{
name = bottom;
position = "{642, 0}";
},
{
name = top;
position = "{642, 0}";
}
);
layerId = "E08CDE4C-5D6C-43D8-8149-5F9E51F0B944";
name = Bold;
paths = (
{
closed = 1;
nodes = (
"152 0 LINE",
"412 0 LINE",
"412 685 LINE",
"981 0 LINE",
"1313 0 LINE",
"667 777 LINE",
"1279 1456 LINE",
"966 1456 LINE",
"412 826 LINE",
"412 1456 LINE",
"152 1456 LINE"
);
}
);
width = 1284;
}
);
unicode = 004B;
},
{
glyphname = L;
lastChange = "2013-01-24 10:02:34 -0800";
layers = (
{
anchors = (
{
name = bottom;
position = "{559, 0}";
},
{
name = top;
position = "{559, 0}";
}
);
layerId = "E08CDE4C-5D6C-43D8-8149-5F9E51F0B944";
name = Bold;
paths = (
{
closed = 1;
nodes = (
"162 0 LINE",
"1071 0 LINE",
"1071 200 LINE",
"422 200 LINE",
"422 1456 LINE",
"162 1456 LINE"
);
}
);
width = 1118;
}
);
unicode = 004C;
},
{
glyphname = M;
lastChange = "2013-01-23 18:57:28 -0800";
layers = (
{
layerId = "E08CDE4C-5D6C-43D8-8149-5F9E51F0B944";
name = Bold;
paths = (
{
closed = 1;
nodes = (
"178 0 LINE",
"440 0 LINE",
"440 1099 LINE",
"547 879 LINE",
"934 230 LINE",
"1060 230 LINE",
"1450 867 LINE",
"1558 1082 LINE",
"1558 0 LINE",
"1810 0 LINE",
"1810 1456 LINE",
"1512 1456 LINE",
"1084 739 LINE",
"999 572 LINE",
"913 736 LINE",
"488 1456 LINE",
"178 1456 LINE"
);
}
);
width = 1996;
}
);
unicode = 004D;
},
{
glyphname = N;
lastChange = "2013-01-24 10:03:36 -0800";
layers = (
{
anchors = (
{
name = bottom;
position = "{801, 0}";
},
{
name = top;
position = "{801, 0}";
}
);
layerId = "E08CDE4C-5D6C-43D8-8149-5F9E51F0B944";
name = Bold;
paths = (
{
closed = 1;
nodes = (
"140 0 LINE",
"372 0 LINE",
"372 1117 LINE",
"494 953 LINE",
"1194 0 LINE",
"1462 0 LINE",
"1462 1456 LINE",
"1231 1456 LINE",
"1231 315 LINE",
"1103 502 LINE",
"406 1456 LINE",
"140 1456 LINE"
);
}
);
width = 1602;
}
);
unicode = 004E;
},
{
glyphname = O;
lastChange = "2013-01-23 21:32:36 -0800";
layers = (
{
anchors = (
{
name = top;
position = "{831, 0}";
}
);
guideLines = (
{
angle = 0;
position = "{834, 1486}";
},
{
angle = 0;
position = "{834, 1266}";
},
{
angle = 0;
position = "{-687, 1486}";
}
);
layerId = "E08CDE4C-5D6C-43D8-8149-5F9E51F0B944";
name = Bold;
paths = (
{
closed = 1;
nodes = (
"99 279 OFFCURVE",
"393 -22 OFFCURVE",
"834 -22 CURVE SMOOTH",
"1275 -22 OFFCURVE",
"1569 279 OFFCURVE",
"1569 731 CURVE SMOOTH",
"1569 1184 OFFCURVE",
"1275 1486 OFFCURVE",
"834 1486 CURVE SMOOTH",
"393 1486 OFFCURVE",
"99 1184 OFFCURVE",
"99 731 CURVE SMOOTH"
);
},
{
closed = 1;
nodes = (
"373 1051 OFFCURVE",
"557 1266 OFFCURVE",
"834 1266 CURVE SMOOTH",
"1111 1266 OFFCURVE",
"1295 1051 OFFCURVE",
"1295 728 CURVE SMOOTH",
"1295 410 OFFCURVE",
"1111 198 OFFCURVE",
"834 198 CURVE SMOOTH",
"557 198 OFFCURVE",
"373 410 OFFCURVE",
"373 728 CURVE SMOOTH"
);
}
);
width = 1668;
}
);
unicode = 004F;
},
{
glyphname = P;
lastChange = "2013-01-23 20:12:06 -0800";
layers = (
{
layerId = "E08CDE4C-5D6C-43D8-8149-5F9E51F0B944";
name = Bold;
paths = (
{
closed = 1;
nodes = (
"112 0 LINE",
"380 0 LINE",
"380 537 LINE",
"594 537 LINE SMOOTH",
"1027 537 OFFCURVE",
"1213 678 OFFCURVE",
"1213 1008 CURVE SMOOTH",
"1213 1322 OFFCURVE",
"1020 1456 OFFCURVE",
"569 1456 CURVE SMOOTH",
"112 1456 LINE"
);
},
{
closed = 1;
nodes = (
"380 740 LINE",
"380 1260 LINE",
"593 1260 LINE SMOOTH",
"838 1260 OFFCURVE",
"943 1184 OFFCURVE",
"943 1006 CURVE SMOOTH",
"943 820 OFFCURVE",
"844 740 OFFCURVE",
"613 740 CURVE SMOOTH"
);
}
);
width = 1271;
}
);
unicode = 0050;
},
{
glyphname = Q;
lastChange = "2013-01-23 16:38:13 -0800";
layers = (
{
components = (
{
name = O;
transform = "{1, 0, 0, 1, 0, 0}";
}
);
layerId = "E08CDE4C-5D6C-43D8-8149-5F9E51F0B944";
name = Bold;
paths = (
{
closed = 1;
nodes = (
"967 -176 OFFCURVE",
"1076 -305 OFFCURVE",
"1193 -422 CURVE",
"1375 -264 LINE",
"1277 -173 OFFCURVE",
"1189 -70 OFFCURVE",
"1126 60 CURVE",
"891 -13 LINE"
);
}
);
width = 1661;
}
);
unicode = 0051;
},
{
glyphname = R;
lastChange = "2013-01-23 16:55:30 -0800";
layers = (
{
anchors = (
{
name = bottom;
position = "{686, 0}";
},
{
name = top;
position = "{686, 0}";
}
);
layerId = "E08CDE4C-5D6C-43D8-8149-5F9E51F0B944";
name = Bold;
paths = (
{
closed = 1;
nodes = (
"152 0 LINE",
"412 0 LINE",
"412 641 LINE",
"612 641 LINE SMOOTH",
"735 641 OFFCURVE",
"810 574 OFFCURVE",
"862 419 CURVE SMOOTH",
"1004 0 LINE",
"1282 0 LINE",
"1139 410 LINE SMOOTH",
"1078 585 OFFCURVE",
"1002 676 OFFCURVE",
"884 715 CURVE",
"1115 775 OFFCURVE",
"1214 883 OFFCURVE",
"1214 1074 CURVE SMOOTH",
"1214 1341 OFFCURVE",
"1038 1456 OFFCURVE",
"626 1456 CURVE SMOOTH",
"152 1456 LINE"
);
},
{
closed = 1;
nodes = (
"412 819 LINE",
"412 1288 LINE",
"649 1288 LINE SMOOTH",
"868 1288 OFFCURVE",
"962 1219 OFFCURVE",
"962 1058 CURVE SMOOTH",
"962 891 OFFCURVE",
"865 819 OFFCURVE",
"638 819 CURVE SMOOTH"
);
}
);
width = 1372;
}
);
unicode = 0052;
},
{
glyphname = S;
layers = (
{
anchors = (
{
name = bottom;
position = "{622, 0}";
},
{
name = top;
position = "{622, 0}";
}
);
layerId = "E08CDE4C-5D6C-43D8-8149-5F9E51F0B944";
name = Bold;
paths = (
{
closed = 1;
nodes = (
"280 35 OFFCURVE",
"486 -22 OFFCURVE",
"664 -22 CURVE SMOOTH",
"989.999 -22 OFFCURVE",
"1135 166 OFFCURVE",
"1135 395 CURVE SMOOTH",
"1135 578 OFFCURVE",
"1052 709 OFFCURVE",
"676 817 CURVE SMOOTH",
"370 905 OFFCURVE",
"318 982.999 OFFCURVE",
"324 1120 CURVE SMOOTH",
"330 1262 OFFCURVE",
"441 1334 OFFCURVE",
"656 1334 CURVE SMOOTH",
"780 1334 OFFCURVE",
"921 1288 OFFCURVE",
"1033 1218 CURVE",
"1085 1359 LINE",
"930 1456 OFFCURVE",
"773 1483 OFFCURVE",
"636 1483 CURVE SMOOTH",
"344 1483 OFFCURVE",
"145 1339 OFFCURVE",
"141 1109 CURVE SMOOTH",
"137 902 OFFCURVE",
"224 769 OFFCURVE",
"566 671 CURVE SMOOTH",
"911 572 OFFCURVE",
"951 500 OFFCURVE",
"951 401 CURVE SMOOTH",
"951 230 OFFCURVE",
"855 123 OFFCURVE",
"649 123 CURVE SMOOTH",
"503 123 OFFCURVE",
"305 187 OFFCURVE",
"174 289 CURVE",
"146 123 LINE"
);
}
);
width = 1244;
}
);
unicode = 0053;
},
{
glyphname = T;
lastChange = "2013-01-23 17:06:16 -0800";
layers = (
{
anchors = (
{
name = bottom;
position = "{587, 0}";
},
{
name = center;
position = "{587, 0}";
},
{
name = top;
position = "{587, 0}";
}
);
layerId = "E08CDE4C-5D6C-43D8-8149-5F9E51F0B944";
name = Bold;
paths = (
{
closed = 1;
nodes = (
"457 0 LINE",
"717 0 LINE",
"717 1258 LINE",
"1145 1258 LINE",
"1145 1456 LINE",
"29 1456 LINE",
"29 1258 LINE",
"457 1258 LINE"
);
}
);
width = 1174;
}
);
unicode = 0054;
},
{
glyphname = U;
lastChange = "2013-01-23 16:56:54 -0800";
layers = (
{
anchors = (
{
name = ogonek;
position = "{1379, 10}";
},
{
name = top;
position = "{766, 0}";
}
);
layerId = "E08CDE4C-5D6C-43D8-8149-5F9E51F0B944";
name = Bold;
paths = (
{
closed = 1;
nodes = (
"133 206 OFFCURVE",
"390 -22 OFFCURVE",
"776 -22 CURVE SMOOTH",
"1147 -22 OFFCURVE",
"1394 210 OFFCURVE",
"1394 557 CURVE SMOOTH",
"1394 1456 LINE",
"1135 1456 LINE",
"1135 545 LINE SMOOTH",
"1135 334 OFFCURVE",
"991 193 OFFCURVE",
"774 193 CURVE SMOOTH",
"545 193 OFFCURVE",
"393 337 OFFCURVE",
"393 552 CURVE SMOOTH",
"393 1456 LINE",
"133 1456 LINE",
"133 547 LINE SMOOTH"
);
}
);
width = 1532;
}
);
unicode = 0055;
},
{
glyphname = V;
layers = (
{
layerId = "E08CDE4C-5D6C-43D8-8149-5F9E51F0B944";
name = Bold;
paths = (
{
closed = 1;
nodes = (
"570 0.999999 LINE",
"759 0.999999 LINE",
"1324 1456 LINE",
"1145 1456 LINE",
"718 306 LINE",
"670 166 LINE",
"624 307 LINE",
"201 1456 LINE",
"9 1456 LINE"
);
}
);
width = 1336;
}
);
unicode = 0056;
},
{
glyphname = W;
layers = (
{
anchors = (
{
name = top;
position = "{1052, 0}";
}
);
layerId = "E08CDE4C-5D6C-43D8-8149-5F9E51F0B944";
name = Bold;
paths = (
{
closed = 1;
nodes = (
"1445 0 LINE",
"1657 0 LINE",
"2080 1456 LINE",
"1900 1456 LINE",
"1595 349 LINE",
"1553 190 LINE",
"1507 345 LINE",
"1148 1456 LINE",
"967 1456 LINE",
"605 349 LINE",
"555 189 LINE",
"517 349 LINE",
"207 1456 LINE",
"21 1456 LINE",
"444 0.999999 LINE",
"657 0.999999 LINE",
"1052 1247 LINE"
);
}
);
width = 2103;
}
);
unicode = 0057;
},
{
glyphname = X;
layers = (
{
layerId = "E08CDE4C-5D6C-43D8-8149-5F9E51F0B944";
name = Bold;
paths = (
{
closed = 1;
nodes = (
"11 0 LINE",
"215 0 LINE",
"646 630 LINE",
"1072 0 LINE",
"1285 0 LINE",
"764 742 LINE",
"1275 1456 LINE",
"1079 1456 LINE",
"662 854 LINE",
"263 1456 LINE",
"47 1456 LINE",
"548 741 LINE"
);
}
);
width = 1304;
}
);
unicode = 0058;
},
{
glyphname = Y;
layers = (
{
anchors = (
{
name = top;
position = "{633, 0}";
}
);
layerId = "E08CDE4C-5D6C-43D8-8149-5F9E51F0B944";
name = Bold;
paths = (
{
closed = 1;
nodes = (
"543 0 LINE",
"715 0 LINE",
"715 585 LINE",
"1258 1456 LINE",
"1067 1456 LINE",
"632 727 LINE",
"201 1456 LINE",
"9.99999 1456 LINE",
"543 582 LINE"
);
}
);
width = 1266;
}
);
unicode = 0059;
},
{
glyphname = Z;
layers = (
{
anchors = (
{
name = top;
position = "{611, 0}";
}
);
layerId = "E08CDE4C-5D6C-43D8-8149-5F9E51F0B944";
name = Bold;
paths = (
{
closed = 1;
nodes = (
"58 0 LINE",
"1146 0 LINE",
"1146 148 LINE",
"286 148 LINE",
"1154 1368 LINE",
"1154 1456 LINE",
"90 1456 LINE",
"90 1308 LINE",
"922 1308 LINE",
"58 92 LINE"
);
}
);
width = 1222;
}
);
unicode = 005A;
},
{
glyphname = bracketleft;
layers = (
{
layerId = "E08CDE4C-5D6C-43D8-8149-5F9E51F0B944";
name = Bold;
paths = (
{
closed = 1;
nodes = (
"191 -259 LINE",
"548 -259 LINE",
"548 -137 LINE",
"354 -137 LINE",
"354 1329 LINE",
"547 1329 LINE",
"547 1451 LINE",
"191 1451 LINE"
);
}
);
width = 628;
}
);
unicode = 005B;
},
{
glyphname = backslash;
layers = (
{
layerId = "E08CDE4C-5D6C-43D8-8149-5F9E51F0B944";
name = Bold;
paths = (
{
closed = 1;
nodes = (
"617 -119 LINE",
"783 -119 LINE",
"97.9999 1451 LINE",
"-70 1451 LINE"
);
}
);
width = 706;
}
);
unicode = 005C;
},
{
glyphname = bracketright;
layers = (
{
layerId = "E08CDE4C-5D6C-43D8-8149-5F9E51F0B944";
name = Bold;
paths = (
{
closed = 1;
nodes = (
"87 -259 LINE",
"442 -259 LINE",
"442 1451 LINE",
"78 1451 LINE",
"88 1329 LINE",
"278 1329 LINE",
"278 -137 LINE",
"87 -137 LINE"
);
}
);
width = 628;
}
);
unicode = 005D;
},
{
glyphname = asciicircum;
layers = (
{
layerId = "E08CDE4C-5D6C-43D8-8149-5F9E51F0B944";
name = Bold;
paths = (
{
closed = 1;
nodes = (
"184 550 LINE",
"340 550 LINE",
"714 1260 LINE",
"1100 550 LINE",
"1255 550 LINE",
"766 1432 LINE",
"665 1432 LINE"
);
}
);
width = 1457;
}
);
unicode = 005E;
},
{
glyphname = underscore;
layers = (
{
layerId = "E08CDE4C-5D6C-43D8-8149-5F9E51F0B944";
name = Bold;
paths = (
{
closed = 1;
nodes = (
"-5 -273 LINE",
"997.999 -273 LINE",
"997.999 -145 LINE",
"-5 -145 LINE"
);
}
);
width = 997;
}
);
unicode = 005F;
},
{
glyphname = grave;
lastChange = "2013-01-23 08:45:49 -0800";
layers = (
{
anchors = (
{
name = _top;
position = "{231.5, 0}";
}
);
layerId = "E08CDE4C-5D6C-43D8-8149-5F9E51F0B944";
name = Bold;
paths = (
{
closed = 1;
nodes = (
"273 1172 LINE",
"462 1172 LINE",
"215 1492 LINE",
"-59 1492 LINE"
);
}
);
width = 593;
}
);
unicode = 0060;
},
{
glyphname = a;
lastChange = "2013-01-25 10:55:40 -0800";
layers = (
{
anchors = (
{
name = ogonek;
position = "{1122, 10}";
},
{
name = top;
position = "{633, 0}";
}
);
layerId = "E08CDE4C-5D6C-43D8-8149-5F9E51F0B944";
name = Bold;
paths = (
{
closed = 1;
nodes = (
"86 136 OFFCURVE",
"237 -22 OFFCURVE",
"461 -22 CURVE SMOOTH",
"580 -22 OFFCURVE",
"701 43 OFFCURVE",
"747 133 CURVE",
"770 51 OFFCURVE",
"872 -7 OFFCURVE",
"997 -7 CURVE",
"1074 165 LINE",
"972 149 OFFCURVE",
"921 204 OFFCURVE",
"921 271 CURVE SMOOTH",
"921 768 LINE",
"839 817 OFFCURVE",
"698 862 OFFCURVE",
"581 862 CURVE SMOOTH",
"291 862 OFFCURVE",
"86 653 OFFCURVE",
"86 358 CURVE SMOOTH"
);
},
{
closed = 1;
nodes = (
"715 232 OFFCURVE",
"617 146 OFFCURVE",
"477 146 CURVE",
"372 146 OFFCURVE",
"298 237 OFFCURVE",
"298 366 CURVE SMOOTH",
"298 558 OFFCURVE",
"410 693 OFFCURVE",
"570 693 CURVE SMOOTH",
"619 693 OFFCURVE",
"680 683 OFFCURVE",
"715 664 CURVE",
"715 354 LINE SMOOTH"
);
}
);
width = 1100;
}
);
unicode = 0061;
},
{
glyphname = b;
lastChange = "2013-01-24 14:42:40 -0800";
layers = (
{
layerId = "E08CDE4C-5D6C-43D8-8149-5F9E51F0B944";
name = Bold;
paths = (
{
closed = 1;
nodes = (
"144 55 OFFCURVE",
"326 -22 OFFCURVE",
"596 -22 CURVE SMOOTH",
"866 -22 OFFCURVE",
"1046 165 OFFCURVE",
"1046 446 CURVE SMOOTH",
"1046 696 OFFCURVE",
"893 862 OFFCURVE",
"663 862 CURVE SMOOTH",
"535 862 OFFCURVE",
"408 803 OFFCURVE",
"351 716 CURVE",
"351 1256 LINE",
"143 1232 LINE",
"143 55 LINE"
);
},
{
closed = 1;
nodes = (
"834 264 OFFCURVE",
"733 146 OFFCURVE",
"582 146 CURVE SMOOTH",
"446 146 OFFCURVE",
"350 172 OFFCURVE",
"351 172 CURVE",
"351 513 LINE",
"414 622 OFFCURVE",
"524 694 OFFCURVE",
"621 694 CURVE SMOOTH",
"749 694 OFFCURVE",
"834 593 OFFCURVE",
"834 443 CURVE SMOOTH"
);
}
);
width = 1132;
}
);
unicode = 0062;
},
{
glyphname = c;
lastChange = "2013-01-25 10:56:10 -0800";
layers = (
{
anchors = (
{
name = bottom;
position = "{510, 0}";
},
{
name = top;
position = "{510, 0}";
}
);
associatedMasterId = "E08CDE4C-5D6C-43D8-8149-5F9E51F0B944";
layerId = "02438C44-437D-4400-B12E-E740F31AE227";
name = "Bold Jan 22 13, 14:00";
paths = (
{
closed = 1;
nodes = (
"918 308 OFFCURVE",
"810 181 OFFCURVE",
"628 181 CURVE SMOOTH",
"439 181 OFFCURVE",
"336 310 OFFCURVE",
"336 512 CURVE SMOOTH",
"336 717 OFFCURVE",
"439 844 OFFCURVE",
"627 844 CURVE SMOOTH",
"810 844 OFFCURVE",
"918 716 OFFCURVE",
"918 512 CURVE SMOOTH"
);
},
{
closed = 1;
nodes = (
"80 184 OFFCURVE",
"295 -22 OFFCURVE",
"627 -22 CURVE SMOOTH",
"953 -22 OFFCURVE",
"1174 184 OFFCURVE",
"1174 513 CURVE SMOOTH",
"1174 842 OFFCURVE",
"952 1048 OFFCURVE",
"626 1048 CURVE SMOOTH",
"295 1048 OFFCURVE",
"80 841 OFFCURVE",
"80 511 CURVE SMOOTH"
);
}
);
width = 1019;
},
{
anchors = (
{
name = bottom;
position = "{533, 0}";
},
{
name = top;
position = "{533, 0}";
}
);
guideLines = (
{
angle = 0;
position = "{413, 862}";
},
{
angle = 0;
position = "{420, -23}";
},
{
angle = 0;
position = "{518, 695}";
},
{
angle = 0;
position = "{574, 150}";
}
);
layerId = "E08CDE4C-5D6C-43D8-8149-5F9E51F0B944";
name = Bold;
paths = (
{
closed = 1;
nodes = (
"86 152 OFFCURVE",
"283 -22 OFFCURVE",
"578 -22 CURVE SMOOTH",
"696 -22 OFFCURVE",
"829 21 OFFCURVE",
"911 85 CURVE",
"844 244 LINE",
"780 189 OFFCURVE",
"678 152 OFFCURVE",
"589 152 CURVE SMOOTH",
"414 152 OFFCURVE",
"298 258 OFFCURVE",
"298 416 CURVE SMOOTH",
"298 582 OFFCURVE",
"411 693 OFFCURVE",
"581 693 CURVE SMOOTH",
"661 693 OFFCURVE",
"758 660 OFFCURVE",
"822 611 CURVE",
"883 758 LINE",
"799 820 OFFCURVE",
"673 862 OFFCURVE",
"568 862 CURVE SMOOTH",
"279 862 OFFCURVE",
"86 682 OFFCURVE",
"86 412 CURVE SMOOTH"
);
}
);
width = 949;
},
{
anchors = (
{
name = bottom;
position = "{510, 0}";
},
{
name = top;
position = "{510, 0}";
}
);
associatedMasterId = "E08CDE4C-5D6C-43D8-8149-5F9E51F0B944";
layerId = "0BE29DC9-66A4-451E-B354-0D72A6C42DA9";
name = "Bold Jan 22 13, 14:00";
paths = (
{
closed = 1;
nodes = (
"74 202 OFFCURVE",
"274 -22 OFFCURVE",
"612 -22 CURVE SMOOTH",
"750 -22 OFFCURVE",
"874 11 OFFCURVE",
"999 108 CURVE",
"918 272 LINE",
"807 191 OFFCURVE",
"724 152 OFFCURVE",
"616 152 CURVE SMOOTH",
"427 152 OFFCURVE",
"300 279 OFFCURVE",
"300 508 CURVE SMOOTH",
"300 752 OFFCURVE",
"437 870 OFFCURVE",
"608 870 CURVE SMOOTH",
"713 870 OFFCURVE",
"786 839 OFFCURVE",
"876 762 CURVE",
"956 912 LINE",
"856 1008 OFFCURVE",
"752 1048 OFFCURVE",
"608 1048 CURVE SMOOTH",
"321 1048 OFFCURVE",
"74 876 OFFCURVE",
"74 503 CURVE SMOOTH"
);
}
);
width = 1019;
}
);
unicode = 0063;
},
{
glyphname = d;
lastChange = "2013-01-25 10:56:24 -0800";
layers = (
{
anchors = (
{
name = center;
position = "{624, 0}";
}
);
layerId = "E08CDE4C-5D6C-43D8-8149-5F9E51F0B944";
name = Bold;
paths = (
{
closed = 1;
nodes = (
"86 151 OFFCURVE",
"252 -22 OFFCURVE",
"501 -22 CURVE SMOOTH",
"631 -22 OFFCURVE",
"739 35 OFFCURVE",
"784 120 CURVE",
"793 83 OFFCURVE",
"817 30 OFFCURVE",
"845 -15 CURVE",
"1043 21 LINE",
"1003 78 OFFCURVE",
"978 201 OFFCURVE",
"978 327 CURVE SMOOTH",
"978 1257 LINE",
"770 1241 LINE",
"770 787 LINE",
"710 833 OFFCURVE",
"621 862 OFFCURVE",
"534 862 CURVE SMOOTH",
"265 862 OFFCURVE",
"86 682 OFFCURVE",
"86 410 CURVE SMOOTH"
);
},
{
closed = 1;
nodes = (
"771 263 OFFCURVE",
"666 146 OFFCURVE",
"519 146 CURVE SMOOTH",
"386 146 OFFCURVE",
"298 253 OFFCURVE",
"298 415 CURVE SMOOTH",
"298 583 OFFCURVE",
"399 693 OFFCURVE",
"550 693 CURVE SMOOTH",
"638 693 OFFCURVE",
"730 658 OFFCURVE",
"771 604 CURVE",
"771 437 LINE"
);
}
);
width = 1111;
}
);
unicode = 0064;
},
{
glyphname = e;
lastChange = "2013-01-25 10:56:40 -0800";
layers = (
{
anchors = (
{
name = bottom;
position = "{530, 0}";
},
{
name = ogonek;
position = "{958, 10}";
},
{
name = top;
position = "{530, 0}";
}
);
guideLines = (
{
angle = 0;
position = "{592, -22}";
},
{
angle = 0;
position = "{613, 176}";
}
);
layerId = "E08CDE4C-5D6C-43D8-8149-5F9E51F0B944";
name = Bold;
paths = (
{
closed = 1;
nodes = (
"86 155 OFFCURVE",
"275 -22 OFFCURVE",
"559 -22 CURVE SMOOTH",
"689 -22 OFFCURVE",
"839 33 OFFCURVE",
"935 117 CURVE",
"860 262 LINE",
"785 190 OFFCURVE",
"666 142 OFFCURVE",
"563 142 CURVE SMOOTH",
"448 142 OFFCURVE",
"348 202 OFFCURVE",
"314 292 CURVE",
"658 294 OFFCURVE",
"874 424 OFFCURVE",
"874 617 CURVE SMOOTH",
"874 764 OFFCURVE",
"741 862 OFFCURVE",
"546 862 CURVE SMOOTH",
"277 862 OFFCURVE",
"86 671 OFFCURVE",
"86 422 CURVE SMOOTH"
);
},
{
closed = 1;
nodes = (
"673 514 OFFCURVE",
"529 444 OFFCURVE",
"293 437 CURVE",
"293 597 OFFCURVE",
"413 704 OFFCURVE",
"551 704 CURVE SMOOTH",
"624 704 OFFCURVE",
"673 667 OFFCURVE",
"673 612 CURVE SMOOTH"
);
}
);
width = 984;
}
);
unicode = 0065;
},
{
glyphname = f;
lastChange = "2013-01-25 10:58:03 -0800";
layers = (
{
layerId = "E08CDE4C-5D6C-43D8-8149-5F9E51F0B944";
name = Bold;
paths = (
{
closed = 1;
nodes = (
"107 -417 LINE",
"345 -386 OFFCURVE",
"448 -263 OFFCURVE",
"448 -40 CURVE SMOOTH",
"448 688 LINE",
"629 688 LINE",
"629 817 LINE",
"448 817 LINE",
"448 906 LINE SMOOTH",
"448 1034 OFFCURVE",
"508 1078 OFFCURVE",
"596 1078 CURVE SMOOTH",
"619 1078 OFFCURVE",
"645 1076 OFFCURVE",
"672 1069 CURVE",
"692 1208 LINE",
"646 1226 OFFCURVE",
"597 1236 OFFCURVE",
"548 1236 CURVE SMOOTH",
"391 1236 OFFCURVE",
"241 1139 OFFCURVE",
"241 936 CURVE SMOOTH",
"241 817 LINE",
"74 817 LINE",
"74 688 LINE",
"241 688 LINE",
"241 -34 LINE SMOOTH",
"241 -150 OFFCURVE",
"196 -211 OFFCURVE",
"89 -236 CURVE"
);
}
);
width = 668;
}
);
unicode = 0066;
},
{
glyphname = g;
lastChange = "2013-01-25 10:50:06 -0800";
layers = (
{
anchors = (
{
name = top;
position = "{571, 0}";
}
);
guideLines = (
{
angle = 0;
position = "{-975, -357}";
},
{
angle = 0;
position = "{-368, -577}";
}
);
layerId = "E08CDE4C-5D6C-43D8-8149-5F9E51F0B944";
name = Bold;
paths = (
{
closed = 1;
nodes = (
"702 -15 LINE SMOOTH",
"702 -175 OFFCURVE",
"583 -282 OFFCURVE",
"405 -282 CURVE SMOOTH",
"329 -282 OFFCURVE",
"233 -259 OFFCURVE",
"164 -224 CURVE",
"124 -395 LINE",
"211 -438 OFFCURVE",
"339 -466 OFFCURVE",
"442 -466 CURVE SMOOTH",
"729 -466 OFFCURVE",
"921 -283 OFFCURVE",
"921 -9 CURVE SMOOTH",
"921 768 LINE",
"839 817 OFFCURVE",
"698 862 OFFCURVE",
"581 862 CURVE SMOOTH",
"291 862 OFFCURVE",
"86 653 OFFCURVE",
"86 358 CURVE SMOOTH",
"86 136 OFFCURVE",
"237 -22 OFFCURVE",
"461 -22 CURVE SMOOTH",
"551.448 -22 OFFCURVE",
"643.051 15.5513 OFFCURVE",
"702 73.0892 CURVE"
);
},
{
closed = 1;
nodes = (
"715 354 LINE SMOOTH",
"715 232 OFFCURVE",
"617 146 OFFCURVE",
"477 146 CURVE SMOOTH",
"372 146 OFFCURVE",
"298 237 OFFCURVE",
"298 366 CURVE SMOOTH",
"298 558 OFFCURVE",
"410 693 OFFCURVE",
"570 693 CURVE SMOOTH",
"619 693 OFFCURVE",
"680 683 OFFCURVE",
"715 664 CURVE"
);
}
);
width = 1021;
}
);
unicode = 0067;
},
{
glyphname = h;
lastChange = "2013-01-24 14:44:02 -0800";
layers = (
{
anchors = (
{
name = center;
position = "{612, 0}";
},
{
name = top;
position = "{612, 0}";
}
);
guideLines = (
{
angle = 0;
position = "{413, 1051}";
},
{
angle = 0;
position = "{926, 835}";
}
);
layerId = "E08CDE4C-5D6C-43D8-8149-5F9E51F0B944";
name = Bold;
paths = (
{
closed = 1;
nodes = (
"720 68 OFFCURVE",
"819 -39 OFFCURVE",
"967 -39 CURVE SMOOTH",
"969 -39 OFFCURVE",
"989 -37 OFFCURVE",
"1017 -35 CURVE",
"1038 128 LINE",
"970 126 OFFCURVE",
"926 183 OFFCURVE",
"926 269 CURVE SMOOTH",
"926 484 LINE",
"926 711 OFFCURVE",
"789 862 OFFCURVE",
"583 862 CURVE SMOOTH",
"474 862 OFFCURVE",
"350 809 OFFCURVE",
"274 713 CURVE",
"327 560 LINE",
"387 633 OFFCURVE",
"474 682 OFFCURVE",
"547 682 CURVE SMOOTH",
"650 682 OFFCURVE",
"720 595 OFFCURVE",
"720 465 CURVE SMOOTH",
"720 235 LINE",
"720 229 LINE"
);
},
{
closed = 1;
nodes = (
"115 0 LINE",
"327 0 LINE",
"327 1254 LINE",
"115 1227 LINE"
);
}
);
width = 1256;
}
);
unicode = 0068;
},
{
glyphname = i;
lastChange = "2013-01-24 19:06:40 -0800";
layers = (
{
layerId = "E08CDE4C-5D6C-43D8-8149-5F9E51F0B944";
name = Bold;
paths = (
{
closed = 1;
nodes = (
"123 -29 OFFCURVE",
"396 -65 OFFCURVE",
"592 23 CURVE",
"565 179 LINE",
"445 137 OFFCURVE",
"331 129 OFFCURVE",
"331 279 CURVE SMOOTH",
"331 844 LINE",
"123 844 LINE",
"123 226 LINE SMOOTH"
);
},
{
closed = 1;
nodes = (
"88 1046 OFFCURVE",
"147 992 OFFCURVE",
"231 992 CURVE SMOOTH",
"315 992 OFFCURVE",
"374 1046 OFFCURVE",
"374 1123 CURVE SMOOTH",
"374 1201 OFFCURVE",
"315 1256 OFFCURVE",
"232 1256 CURVE SMOOTH",
"147 1256 OFFCURVE",
"88 1202 OFFCURVE",
"88 1124 CURVE SMOOTH"
);
}
);
width = 635;
}
);
unicode = 0069;
},
{
glyphname = j;
lastChange = "2013-01-24 14:44:59 -0800";
layers = (
{
layerId = "E08CDE4C-5D6C-43D8-8149-5F9E51F0B944";
name = Bold;
paths = (
{
closed = 1;
nodes = (
"-107 -422 OFFCURVE",
"-56 -428 OFFCURVE",
"-10 -428 CURVE SMOOTH",
"195 -428 OFFCURVE",
"296 -303 OFFCURVE",
"296 -45 CURVE SMOOTH",
"296 844 LINE",
"88 844 LINE",
"88 -51 LINE SMOOTH",
"88 -188 OFFCURVE",
"41 -255 OFFCURVE",
"-46 -255 CURVE SMOOTH",
"-51 -255 OFFCURVE",
"-81 -251 OFFCURVE",
"-136 -243 CURVE",
"-164 -408 LINE"
);
},
{
closed = 1;
nodes = (
"39 1047 OFFCURVE",
"98 992 OFFCURVE",
"181 992 CURVE SMOOTH",
"266 992 OFFCURVE",
"325 1046 OFFCURVE",
"325 1123 CURVE SMOOTH",
"325 1202 OFFCURVE",
"266 1257 OFFCURVE",
"182 1257 CURVE SMOOTH",
"98 1257 OFFCURVE",
"39 1202 OFFCURVE",
"39 1124 CURVE SMOOTH"
);
}
);
width = 539;
}
);
unicode = 006A;
},
{
glyphname = k;
lastChange = "2013-01-24 14:31:47 -0800";
layers = (
{
anchors = (
{
name = bottom;
position = "{565, 0}";
}
);
layerId = "E08CDE4C-5D6C-43D8-8149-5F9E51F0B944";
name = Bold;
paths = (
{
closed = 1;
nodes = (
"731 -10 OFFCURVE",
"825 -61 OFFCURVE",
"912 -61 CURVE",
"1010 104 LINE",
"904 106 OFFCURVE",
"856 148 OFFCURVE",
"776 241 CURVE SMOOTH",
"630 411 LINE",
"906 796 LINE",
"709 837 LINE",
"323 318 LINE",
"323 1251 LINE",
"117 1225 LINE",
"117 72 LINE",
"117 -38 OFFCURVE",
"245 -76 OFFCURVE",
"310 14 CURVE",
"502 258 LINE",
"638 99 LINE SMOOTH"
);
}
);
width = 1163;
}
);
unicode = 006B;
},
{
glyphname = l;
lastChange = "2013-01-24 14:45:16 -0800";
layers = (
{
anchors = (
{
name = bottom;
position = "{360, 0}";
},
{
name = top;
position = "{360, 0}";
},
{
name = topright;
position = "{697, 0}";
}
);
layerId = "E08CDE4C-5D6C-43D8-8149-5F9E51F0B944";
name = Bold;
paths = (
{
closed = 1;
nodes = (
"117 57 OFFCURVE",
"240 -22 OFFCURVE",
"410 -22 CURVE SMOOTH",
"475 -22 OFFCURVE",
"546 -10 OFFCURVE",
"620 11 CURVE",
"599 173 LINE",
"559 160 OFFCURVE",
"494 150 OFFCURVE",
"456 150 CURVE SMOOTH",
"374 150 OFFCURVE",
"325 193 OFFCURVE",
"325 288 CURVE SMOOTH",
"325 1252 LINE",
"117 1227 LINE",
"117 243 LINE SMOOTH"
);
}
);
width = 717;
}
);
unicode = 006C;
},
{
glyphname = m;
lastChange = "2013-01-24 14:45:36 -0800";
layers = (
{
layerId = "E08CDE4C-5D6C-43D8-8149-5F9E51F0B944";
name = Bold;
paths = (
{
closed = 1;
nodes = (
"893 0 LINE",
"893 463 LINE SMOOTH",
"893 704 OFFCURVE",
"788 862 OFFCURVE",
"582 862 CURVE SMOOTH",
"409 862 OFFCURVE",
"326 781 OFFCURVE",
"277 678 CURVE",
"330 510 LINE",
"363 641 OFFCURVE",
"469 694 OFFCURVE",
"550 694 CURVE SMOOTH",
"656 694 OFFCURVE",
"687 614 OFFCURVE",
"687 444 CURVE SMOOTH",
"687 0 LINE"
);
},
{
closed = 1;
nodes = (
"122 0 LINE",
"334 0 LINE",
"334 535 LINE",
"323 653 LINE",
"323 733 OFFCURVE",
"290 797 OFFCURVE",
"240 844 CURVE",
"36 768 LINE",
"69 726 OFFCURVE",
"122 687 OFFCURVE",
"122 517 CURVE SMOOTH"
);
},
{
closed = 1;
nodes = (
"1246 13 OFFCURVE",
"1395 -46 OFFCURVE",
"1527 -17 CURVE",
"1615 147 LINE",
"1493 120 OFFCURVE",
"1452 181 OFFCURVE",
"1452 272 CURVE SMOOTH",
"1452 463 LINE",
"1452 715 OFFCURVE",
"1350 862 OFFCURVE",
"1141 862 CURVE SMOOTH",
"995 862 OFFCURVE",
"896 795 OFFCURVE",
"841 678 CURVE",
"893 444 LINE",
"893 640 OFFCURVE",
"1020 688 OFFCURVE",
"1099 688 CURVE SMOOTH",
"1190 688 OFFCURVE",
"1246 615 OFFCURVE",
"1246 444 CURVE SMOOTH",
"1246 237 LINE",
"1246 232 LINE"
);
}
);
width = 1591;
}
);
unicode = 006D;
},
{
glyphname = n;
lastChange = "2013-01-25 11:00:30 -0800";
layers = (
{
anchors = (
{
name = bottom;
position = "{661, 0}";
},
{
name = top;
position = "{661, 0}";
}
);
layerId = "E08CDE4C-5D6C-43D8-8149-5F9E51F0B944";
name = Bold;
paths = (
{
closed = 1;
nodes = (
"750 42 OFFCURVE",
"825 -58 OFFCURVE",
"1036 -21 CURVE",
"1053 143 LINE",
"956 121 OFFCURVE",
"956 174 OFFCURVE",
"956 271 CURVE SMOOTH",
"956 462 LINE SMOOTH",
"956 701 OFFCURVE",
"824 862 OFFCURVE",
"625 862 CURVE SMOOTH",
"491 862 OFFCURVE",
"356 787 OFFCURVE",
"304 677 CURVE",
"356 443 LINE",
"356 589 OFFCURVE",
"473 687 OFFCURVE",
"602 687 CURVE SMOOTH",
"703 687 OFFCURVE",
"750 589 OFFCURVE",
"750 443 CURVE SMOOTH",
"750 233 LINE",
"750 228 LINE SMOOTH"
);
},
{
closed = 1;
nodes = (
"144 0 LINE",
"356 0 LINE",
"356 534 LINE",
"345 652 LINE",
"345 720 OFFCURVE",
"312 796 OFFCURVE",
"262 843 CURVE",
"58 767 LINE",
"110 702 OFFCURVE",
"144 602 OFFCURVE",
"144 516 CURVE SMOOTH"
);
}
);
width = 1106;
}
);
unicode = 006E;
},
{
glyphname = o;
lastChange = "2013-01-24 14:41:56 -0800";
layers = (
{
anchors = (
{
name = top;
position = "{627, 0}";
}
);
guideLines = (
{
angle = 90;
position = "{-401, 844}";
},
{
angle = 0;
position = "{-418, 181}";
},
{
angle = 0;
position = "{-430, 844}";
},
{
angle = 0;
position = "{-420, 181}";
}
);
layerId = "E08CDE4C-5D6C-43D8-8149-5F9E51F0B944";
name = Bold;
paths = (
{
closed = 1;
nodes = (
"779 255 OFFCURVE",
"683 146 OFFCURVE",
"539 146 CURVE SMOOTH",
"394 146 OFFCURVE",
"298 255 OFFCURVE",
"298 419 CURVE SMOOTH",
"298 583 OFFCURVE",
"394 692 OFFCURVE",
"538 692 CURVE SMOOTH",
"683 692 OFFCURVE",
"779 583 OFFCURVE",
"779 419 CURVE SMOOTH"
);
},
{
closed = 1;
nodes = (
"86 154 OFFCURVE",
"267 -22 OFFCURVE",
"538 -22 CURVE SMOOTH",
"810 -22 OFFCURVE",
"991 155 OFFCURVE",
"991 420 CURVE SMOOTH",
"991 686 OFFCURVE",
"809 862 OFFCURVE",
"537 862 CURVE SMOOTH",
"266 862 OFFCURVE",
"86 685 OFFCURVE",
"86 419 CURVE SMOOTH"
);
}
);
width = 1077;
}
);
unicode = 006F;
},
{
glyphname = p;
lastChange = "2013-01-24 18:46:51 -0800";
layers = (
{
guideLines = (
{
angle = 0;
position = "{542, 862}";
}
);
layerId = "E08CDE4C-5D6C-43D8-8149-5F9E51F0B944";
name = Bold;
paths = (
{
closed = 1;
nodes = (
"326 53 LINE",
"392 9 OFFCURVE",
"498 -22 OFFCURVE",
"583 -22 CURVE SMOOTH",
"838 -22 OFFCURVE",
"1018 165 OFFCURVE",
"1018 430 CURVE SMOOTH",
"1018 697 OFFCURVE",
"842 862 OFFCURVE",
"604 862 CURVE SMOOTH",
"495 862 OFFCURVE",
"361 803 OFFCURVE",
"305 689 CURVE",
"122 589 LINE"
);
},
{
closed = 1;
nodes = (
"806 260 OFFCURVE",
"702 145 OFFCURVE",
"553 145 CURVE SMOOTH",
"456 145 OFFCURVE",
"362 183 OFFCURVE",
"325 237 CURVE",
"325 351 LINE SMOOTH",
"325 551 OFFCURVE",
"432 694 OFFCURVE",
"582 694 CURVE SMOOTH",
"724 694 OFFCURVE",
"806 588 OFFCURVE",
"806 425 CURVE SMOOTH"
);
},
{
closed = 1;
nodes = (
"113 -426 LINE",
"325 -426 LINE",
"325 534 LINE",
"314 652 LINE",
"314 733 OFFCURVE",
"281 797 OFFCURVE",
"231 843 CURVE",
"27 768 LINE",
"60 725 OFFCURVE",
"113 686 OFFCURVE",
"113 516 CURVE SMOOTH"
);
}
);
width = 1104;
}
);
unicode = 0070;
},
{
glyphname = q;
lastChange = "2013-01-24 14:34:14 -0800";
layers = (
{
layerId = "E08CDE4C-5D6C-43D8-8149-5F9E51F0B944";
name = Bold;
paths = (
{
closed = 1;
nodes = (
"859 -539 LINE",
"900 -519 OFFCURVE",
"1138 -394 OFFCURVE",
"1168 -377 CURVE",
"1109 -276 LINE",
"1109 -276 OFFCURVE",
"934 -371 OFFCURVE",
"901 -387 CURVE",
"901 578 LINE SMOOTH",
"901 664 OFFCURVE",
"912 726 OFFCURVE",
"915 755 CURVE",
"777 755 LINE",
"765 640 LINE",
"718 720 OFFCURVE",
"651 773 OFFCURVE",
"495 773 CURVE SMOOTH",
"240 773 OFFCURVE",
"90 580 OFFCURVE",
"90 325 CURVE SMOOTH",
"90 75 OFFCURVE",
"235 -112 OFFCURVE",
"485 -112 CURVE SMOOTH",
"604 -112 OFFCURVE",
"701 -66 OFFCURVE",
"765 12 CURVE",
"765 -445 LINE"
);
},
{
closed = 1;
nodes = (
"723 82 OFFCURVE",
"611 2 OFFCURVE",
"500 2 CURVE SMOOTH",
"315 2 OFFCURVE",
"231 141 OFFCURVE",
"231 326 CURVE SMOOTH",
"231 515 OFFCURVE",
"312 656 OFFCURVE",
"501 656 CURVE SMOOTH",
"678 656 OFFCURVE",
"765 534 OFFCURVE",
"765 356 CURVE SMOOTH",
"765 156 LINE"
);
}
);
width = 1235;
}
);
unicode = 0071;
},
{
glyphname = r;
lastChange = "2013-01-24 14:46:04 -0800";
layers = (
{
anchors = (
{
name = bottom;
position = "{331, 0}";
},
{
name = top;
position = "{331, 0}";
}
);
layerId = "E08CDE4C-5D6C-43D8-8149-5F9E51F0B944";
name = Bold;
paths = (
{
closed = 1;
nodes = (
"305 416 LINE SMOOTH",
"305 411 OFFCURVE",
"302 673 OFFCURVE",
"525 673 CURVE SMOOTH",
"555 673 OFFCURVE",
"587 669 OFFCURVE",
"624 659 CURVE",
"639 846 LINE",
"609 854 OFFCURVE",
"580 862 OFFCURVE",
"512 862 CURVE SMOOTH",
"415 862 OFFCURVE",
"283 805 OFFCURVE",
"287 716 CURVE SMOOTH"
);
},
{
closed = 1;
nodes = (
"96 0 LINE",
"308 0 LINE",
"308 539 LINE",
"297 657 LINE",
"297 737 OFFCURVE",
"264 801 OFFCURVE",
"214 848 CURVE",
"10 772 LINE",
"43 730 OFFCURVE",
"96 690 OFFCURVE",
"96 521 CURVE SMOOTH"
);
}
);
width = 754;
}
);
unicode = 0072;
},
{
glyphname = s;
lastChange = "2013-01-24 14:46:27 -0800";
layers = (
{
anchors = (
{
name = bottom;
position = "{454, 0}";
},
{
name = top;
position = "{454, 0}";
}
);
layerId = "E08CDE4C-5D6C-43D8-8149-5F9E51F0B944";
name = Bold;
paths = (
{
closed = 1;
nodes = (
"163 64 LINE",
"224 18 OFFCURVE",
"357 -22 OFFCURVE",
"474 -22 CURVE SMOOTH",
"684 -22 OFFCURVE",
"784 88 OFFCURVE",
"784 256 CURVE SMOOTH",
"784 396 OFFCURVE",
"712 452 OFFCURVE",
"514 512 CURVE SMOOTH",
"391 549 OFFCURVE",
"351 575 OFFCURVE",
"351 624 CURVE SMOOTH",
"351 677 OFFCURVE",
"383 705 OFFCURVE",
"466 705 CURVE SMOOTH",
"538 705 OFFCURVE",
"631 682 OFFCURVE",
"709 643 CURVE",
"745 796 LINE",
"684 830 OFFCURVE",
"558 862 OFFCURVE",
"454 862 CURVE SMOOTH",
"214 862 OFFCURVE",
"154 717 OFFCURVE",
"154 608 CURVE SMOOTH",
"154 485 OFFCURVE",
"212 417 OFFCURVE",
"403 355 CURVE SMOOTH",
"553 306 OFFCURVE",
"596 296 OFFCURVE",
"596 231 CURVE SMOOTH",
"596 182 OFFCURVE",
"567 140 OFFCURVE",
"474 140 CURVE SMOOTH",
"398 140 OFFCURVE",
"299 168 OFFCURVE",
"207 213 CURVE"
);
}
);
width = 907;
}
);
unicode = 0073;
},
{
glyphname = t;
lastChange = "2013-01-24 14:46:49 -0800";
layers = (
{
anchors = (
{
name = bottom;
position = "{426, 0}";
},
{
name = center;
position = "{426, 0}";
}
);
layerId = "E08CDE4C-5D6C-43D8-8149-5F9E51F0B944";
name = Bold;
paths = (
{
closed = 1;
nodes = (
"629 694 LINE",
"629 844 LINE",
"24 844 LINE",
"24 694 LINE"
);
},
{
closed = 1;
nodes = (
"183 61 OFFCURVE",
"307 -18 OFFCURVE",
"476 -18 CURVE SMOOTH",
"541 -18 OFFCURVE",
"612 -6 OFFCURVE",
"686 15 CURVE",
"665 177 LINE",
"626 164 OFFCURVE",
"561 154 OFFCURVE",
"522 154 CURVE SMOOTH",
"440 154 OFFCURVE",
"392 197 OFFCURVE",
"392 292 CURVE SMOOTH",
"392 1135 LINE",
"183 1110 LINE",
"183 247 LINE"
);
}
);
width = 852;
}
);
unicode = 0074;
},
{
glyphname = u;
lastChange = "2013-01-24 14:47:04 -0800";
layers = (
{
anchors = (
{
name = ogonek;
position = "{1169, 10}";
},
{
name = top;
position = "{689, 0}";
}
);
layerId = "E08CDE4C-5D6C-43D8-8149-5F9E51F0B944";
name = Bold;
paths = (
{
closed = 1;
nodes = (
"219 106 OFFCURVE",
"349 -22 OFFCURVE",
"550 -22 CURVE SMOOTH",
"672 -22 OFFCURVE",
"790 39 OFFCURVE",
"847 131 CURVE",
"867 49 OFFCURVE",
"975 -7 OFFCURVE",
"1113 -7 CURVE",
"1142 177 LINE",
"1075 177 OFFCURVE",
"1031 226 OFFCURVE",
"1031 299 CURVE SMOOTH",
"1031 844 LINE",
"820 844 LINE",
"820 399 LINE SMOOTH",
"820 244 OFFCURVE",
"720 141 OFFCURVE",
"571 141 CURVE SMOOTH",
"486 141 OFFCURVE",
"433 213 OFFCURVE",
"436 321 CURVE SMOOTH",
"441 488 LINE SMOOTH",
"448 749 OFFCURVE",
"409 844 OFFCURVE",
"409 844 CURVE",
"197 822 LINE",
"197 822 OFFCURVE",
"237 716 OFFCURVE",
"229 477 CURVE SMOOTH",
"225 298 LINE SMOOTH"
);
}
);
width = 1279;
}
);
unicode = 0075;
},
{
glyphname = v;
lastChange = "2013-01-24 14:47:14 -0800";
layers = (
{
layerId = "E08CDE4C-5D6C-43D8-8149-5F9E51F0B944";
name = Bold;
paths = (
{
closed = 1;
nodes = (
"450 0 LINE",
"622 0 LINE",
"979 848 LINE",
"767 848 LINE",
"580 412 LINE",
"570 389 OFFCURVE",
"560 361 OFFCURVE",
"534 277 CURVE SMOOTH",
"521 322 OFFCURVE",
"503 373 OFFCURVE",
"486 412 CURVE SMOOTH",
"295 848 LINE",
"79 848 LINE"
);
}
);
width = 1063;
}
);
unicode = 0076;
},
{
glyphname = w;
lastChange = "2013-01-24 14:47:23 -0800";
layers = (
{
anchors = (
{
name = top;
position = "{848, 0}";
}
);
layerId = "E08CDE4C-5D6C-43D8-8149-5F9E51F0B944";
name = Bold;
paths = (
{
closed = 1;
nodes = (
"1002 838 OFFCURVE",
"813 916 OFFCURVE",
"758 758 CURVE SMOOTH",
"639 412 LINE",
"629 389 OFFCURVE",
"618 361 OFFCURVE",
"593 277 CURVE",
"580 322 OFFCURVE",
"559 373 OFFCURVE",
"545 412 CURVE SMOOTH",
"387 848 LINE",
"171 848 LINE",
"509 0 LINE",
"681 0 LINE",
"957 723 LINE"
);
},
{
closed = 1;
nodes = (
"918 910 OFFCURVE",
"731 848 OFFCURVE",
"786 707 CURVE",
"1068 0 LINE",
"1240 0 LINE",
"1564 848 LINE",
"1353 848 LINE",
"1199 412 LINE",
"1189 389 OFFCURVE",
"1178 361 OFFCURVE",
"1153 277 CURVE",
"1139 322 OFFCURVE",
"1118 373 OFFCURVE",
"1104 412 CURVE SMOOTH",
"973 762 LINE SMOOTH"
);
}
);
width = 1735;
}
);
unicode = 0077;
},
{
glyphname = x;
lastChange = "2013-01-24 14:47:27 -0800";
layers = (
{
layerId = "E08CDE4C-5D6C-43D8-8149-5F9E51F0B944";
name = Bold;
paths = (
{
closed = 1;
nodes = (
"48 0 LINE",
"205 0 LINE",
"456 337 LINE",
"701 0 LINE",
"867 0 LINE",
"543 428 LINE",
"856 848 LINE",
"708 848 LINE",
"470 517 LINE",
"232 848 LINE",
"63 848 LINE",
"379 425 LINE"
);
}
);
width = 1087;
}
);
unicode = 0078;
},
{
glyphname = y;
lastChange = "2013-01-24 14:47:40 -0800";
layers = (
{
anchors = (
{
name = top;
position = "{593, 0}";
}
);
layerId = "E08CDE4C-5D6C-43D8-8149-5F9E51F0B944";
name = Bold;
paths = (
{
closed = 1;
nodes = (
"204 106 OFFCURVE",
"334 -22 OFFCURVE",
"534 -22 CURVE SMOOTH",
"656 -22 OFFCURVE",
"776 39 OFFCURVE",
"834 131 CURVE",
"854 49 OFFCURVE",
"1015 226 OFFCURVE",
"1015 299 CURVE SMOOTH",
"1015 844 LINE",
"804 844 LINE",
"804 399 LINE",
"806 244 OFFCURVE",
"704 141 OFFCURVE",
"555 141 CURVE SMOOTH",
"471 141 OFFCURVE",
"417 213 OFFCURVE",
"421 321 CURVE SMOOTH",
"425 488 LINE",
"433 749 OFFCURVE",
"394 844 OFFCURVE",
"394 844 CURVE",
"182 822 LINE",
"182 822 OFFCURVE",
"222 716 OFFCURVE",
"214 477 CURVE SMOOTH",
"209 298 LINE"
);
},
{
closed = 1;
nodes = (
"806 -42 LINE",
"806 -245 OFFCURVE",
"667 -281 OFFCURVE",
"509 -281 CURVE SMOOTH",
"428 -281 OFFCURVE",
"342 -261 OFFCURVE",
"268 -224 CURVE",
"228 -395 LINE",
"327 -441 OFFCURVE",
"439 -466 OFFCURVE",
"546 -466 CURVE SMOOTH",
"796 -466 OFFCURVE",
"1014 -345 OFFCURVE",
"1015 -9 CURVE SMOOTH",
"1016 299 LINE",
"807 244 LINE",
"809 103 LINE"
);
}
);
width = 1224;
}
);
unicode = 0079;
},
{
glyphname = z;
lastChange = "2013-01-24 14:47:59 -0800";
layers = (
{
anchors = (
{
name = top;
position = "{489, 0}";
}
);
layerId = "E08CDE4C-5D6C-43D8-8149-5F9E51F0B944";
name = Bold;
paths = (
{
closed = 1;
nodes = (
"153 0 LINE",
"847 0 LINE",
"847 157 LINE",
"406 157 LINE",
"833 718 LINE",
"833 848 LINE",
"175 848 LINE",
"175 702 LINE",
"585 702 LINE",
"153 132 LINE"
);
}
);
width = 978;
}
);
unicode = 007A;
},
{
glyphname = braceleft;
layers = (
{
layerId = "E08CDE4C-5D6C-43D8-8149-5F9E51F0B944";
name = Bold;
paths = (
{
closed = 1;
nodes = (
"243 -183 OFFCURVE",
"380 -251 OFFCURVE",
"566 -259 CURVE",
"566 -133 LINE",
"535 -133 OFFCURVE",
"509 -129 OFFCURVE",
"488 -122 CURVE SMOOTH",
"411 -95 OFFCURVE",
"403 -2 OFFCURVE",
"403 107 CURVE SMOOTH",
"403 172 OFFCURVE",
"405 261 OFFCURVE",
"405 325 CURVE SMOOTH",
"405 455 OFFCURVE",
"360 552 OFFCURVE",
"268 595 CURVE",
"351 640 OFFCURVE",
"408 737 OFFCURVE",
"408 868 CURVE SMOOTH",
"409 1157 LINE SMOOTH",
"409 1273 OFFCURVE",
"454 1322 OFFCURVE",
"566 1325 CURVE",
"566 1451 LINE",
"350 1451 OFFCURVE",
"243 1356 OFFCURVE",
"243 1143 CURVE",
"244 1101 OFFCURVE",
"245 1058 OFFCURVE",
"245 1016 CURVE SMOOTH",
"245 973.999 OFFCURVE",
"246 932 OFFCURVE",
"247 890 CURVE",
"247 759 OFFCURVE",
"206 667 OFFCURVE",
"86 656 CURVE",
"86 534 LINE",
"222 520 OFFCURVE",
"244 422 OFFCURVE",
"244 274 CURVE SMOOTH",
"243 11 LINE SMOOTH"
);
}
);
width = 627;
}
);
unicode = 007B;
},
{
glyphname = bar;
layers = (
{
layerId = "E08CDE4C-5D6C-43D8-8149-5F9E51F0B944";
name = Bold;
paths = (
{
closed = 1;
nodes = (
"168 -491 LINE",
"325 -491 LINE",
"325 1545 LINE",
"168 1545 LINE"
);
}
);
width = 500;
}
);
unicode = 007C;
},
{
glyphname = braceright;
layers = (
{
layerId = "E08CDE4C-5D6C-43D8-8149-5F9E51F0B944";
name = Bold;
paths = (
{
closed = 1;
nodes = (
"66 -259 LINE",
"252 -251 OFFCURVE",
"389 -183 OFFCURVE",
"389 11 CURVE SMOOTH",
"388 274 LINE SMOOTH",
"388 305 OFFCURVE",
"388 334 OFFCURVE",
"390 364 CURVE SMOOTH",
"396 466 OFFCURVE",
"445 524 OFFCURVE",
"546 534 CURVE",
"547 656 LINE",
"427 667 OFFCURVE",
"385 759 OFFCURVE",
"385 890 CURVE SMOOTH",
"386 932 OFFCURVE",
"387 973.999 OFFCURVE",
"387 1016 CURVE SMOOTH",
"387 1058 OFFCURVE",
"388 1101 OFFCURVE",
"389 1143 CURVE SMOOTH",
"389 1356 OFFCURVE",
"281 1451 OFFCURVE",
"66 1451 CURVE",
"66 1325 LINE",
"178 1322 OFFCURVE",
"223 1273 OFFCURVE",
"223 1157 CURVE",
"224 868 LINE",
"224 736 OFFCURVE",
"279 639 OFFCURVE",
"364 595 CURVE",
"272 552 OFFCURVE",
"227 455 OFFCURVE",
"227 325 CURVE SMOOTH",
"227 260 OFFCURVE",
"229 172 OFFCURVE",
"229 107 CURVE SMOOTH",
"229 60 OFFCURVE",
"226 21 OFFCURVE",
"221 -10 CURVE SMOOTH",
"206 -96 OFFCURVE",
"166 -133 OFFCURVE",
"66 -133 CURVE"
);
}
);
width = 627;
}
);
unicode = 007D;
},
{
glyphname = asciitilde;
layers = (
{
layerId = "E08CDE4C-5D6C-43D8-8149-5F9E51F0B944";
name = Bold;
paths = (
{
closed = 1;
nodes = (
"304 385 LINE",
"325 475 OFFCURVE",
"384 571 OFFCURVE",
"494 571 CURVE SMOOTH",
"515 571 OFFCURVE",
"538 567 OFFCURVE",
"564 559 CURVE SMOOTH",
"650 532 OFFCURVE",
"731 487 OFFCURVE",
"810 452 CURVE SMOOTH",
"852 433 OFFCURVE",
"904 410 OFFCURVE",
"956 410 CURVE SMOOTH",
"995.999 410 OFFCURVE",
"1032 416 OFFCURVE",
"1065 430 CURVE SMOOTH",
"1167 473 OFFCURVE",
"1228 566 OFFCURVE",
"1256 684 CURVE",
"1131 723 LINE",
"1112 641 OFFCURVE",
"1057 545 OFFCURVE",
"957 545 CURVE SMOOTH",
"941 545 OFFCURVE",
"922 549 OFFCURVE",
"900 557 CURVE SMOOTH",
"819 587 OFFCURVE",
"739 632 OFFCURVE",
"658 664 CURVE SMOOTH",
"609 683 OFFCURVE",
"552 705 OFFCURVE",
"491 705 CURVE SMOOTH",
"449 705 OFFCURVE",
"411 698 OFFCURVE",
"377 683 CURVE SMOOTH",
"280 641 OFFCURVE",
"213 553 OFFCURVE",
"189 440 CURVE"
);
}
);
width = 1458;
}
);
unicode = 007E;
},
{
glyphname = Adieresis;
layers = (
{
layerId = "E08CDE4C-5D6C-43D8-8149-5F9E51F0B944";
name = Bold;
paths = (
{
closed = 1;
nodes = (
"13 0 LINE",
"199 0 LINE",
"355 397 LINE",
"1053 397 LINE",
"1216 0 LINE",
"1407 0 LINE",
"802 1456 LINE",
"617 1456 LINE"
);
},
{
closed = 1;
nodes = (
"410 545 LINE",
"655 1149 LINE",
"670 1191 OFFCURVE",
"692 1252 OFFCURVE",
"707 1298 CURVE",
"721 1252 OFFCURVE",
"742 1192 OFFCURVE",
"760 1150 CURVE",
"993.999 545 LINE"
);
},
{
closed = 1;
nodes = (
"465 1613 LINE",
"629 1613 LINE",
"629 1776 LINE",
"465 1776 LINE"
);
},
{
closed = 1;
nodes = (
"797 1613 LINE",
"961 1613 LINE",
"961 1776 LINE",
"797 1776 LINE"
);
}
);
width = 1425;
}
);
unicode = 00C4;
},
{
glyphname = Aring;
layers = (
{
layerId = "E08CDE4C-5D6C-43D8-8149-5F9E51F0B944";
name = Bold;
paths = (
{
closed = 1;
nodes = (
"13 0 LINE",
"199 0 LINE",
"355 397 LINE",
"1053 397 LINE",
"1216 0 LINE",
"1407 0 LINE",
"802 1456 LINE",
"617 1456 LINE"
);
},
{
closed = 1;
nodes = (
"550 1629 OFFCURVE",
"619 1579 OFFCURVE",
"714 1579 CURVE SMOOTH",
"742 1579 OFFCURVE",
"769 1584 OFFCURVE",
"794 1594 CURVE SMOOTH",
"861 1620 OFFCURVE",
"923 1679 OFFCURVE",
"923 1770 CURVE SMOOTH",
"923 1796 OFFCURVE",
"918 1821 OFFCURVE",
"907 1844 CURVE SMOOTH",
"877 1910 OFFCURVE",
"808 1960 OFFCURVE",
"713 1960 CURVE SMOOTH",
"684 1960 OFFCURVE",
"656 1956 OFFCURVE",
"631 1946 CURVE SMOOTH",
"563 1920 OFFCURVE",
"503 1861 OFFCURVE",
"503 1769 CURVE SMOOTH",
"503 1742 OFFCURVE",
"508 1717 OFFCURVE",
"519 1694 CURVE SMOOTH"
);
},
{
closed = 1;
nodes = (
"410 545 LINE",
"655 1149 LINE",
"670 1191 OFFCURVE",
"692 1252 OFFCURVE",
"707 1298 CURVE",
"721 1252 OFFCURVE",
"742 1192 OFFCURVE",
"760 1150 CURVE",
"993.999 545 LINE"
);
},
{
closed = 1;
nodes = (
"823 1710 OFFCURVE",
"772 1665 OFFCURVE",
"712 1665 CURVE SMOOTH",
"647 1665 OFFCURVE",
"602 1706 OFFCURVE",
"602 1770 CURVE SMOOTH",
"602 1830 OFFCURVE",
"652 1875 OFFCURVE",
"712 1875 CURVE SMOOTH",
"774 1875 OFFCURVE",
"823 1832 OFFCURVE",
"823 1770 CURVE SMOOTH"
);
}
);
width = 1425;
}
);
unicode = 00C5;
},
{
glyphname = Ccedilla;
layers = (
{
layerId = "E08CDE4C-5D6C-43D8-8149-5F9E51F0B944";
name = Bold;
paths = (
{
closed = 1;
nodes = (
"692 -385 OFFCURVE",
"753 -396 OFFCURVE",
"813 -396 CURVE SMOOTH",
"934 -396 OFFCURVE",
"1054 -359 OFFCURVE",
"1054 -239 CURVE SMOOTH",
"1054 -131 OFFCURVE",
"958 -95 OFFCURVE",
"854 -90 CURVE",
"845 -90 LINE",
"863 17 LINE",
"766 17 LINE",
"733 -173 LINE",
"765 -171 LINE SMOOTH",
"776 -170 OFFCURVE",
"793 -168 OFFCURVE",
"802 -168 CURVE SMOOTH",
"862 -168 OFFCURVE",
"911 -182 OFFCURVE",
"911 -241 CURVE SMOOTH",
"911 -297 OFFCURVE",
"863 -313 OFFCURVE",
"797 -313 CURVE SMOOTH",
"743 -313 OFFCURVE",
"696 -301 OFFCURVE",
"646 -289 CURVE",
"638 -374 LINE"
);
},
{
closed = 1;
nodes = (
"116 287 OFFCURVE",
"379 -22 OFFCURVE",
"820 -22 CURVE SMOOTH",
"1021 -22 OFFCURVE",
"1180 31 OFFCURVE",
"1299 127 CURVE",
"1242 267 LINE",
"1141 179 OFFCURVE",
"1006 123 OFFCURVE",
"825 123 CURVE SMOOTH",
"469 123 OFFCURVE",
"299 382 OFFCURVE",
"299 725 CURVE SMOOTH",
"299 1076 OFFCURVE",
"487 1334 OFFCURVE",
"841 1334 CURVE SMOOTH",
"977.999 1334 OFFCURVE",
"1105 1283 OFFCURVE",
"1206 1206 CURVE",
"1285 1332 LINE",
"1175 1414 OFFCURVE",
"1042 1483 OFFCURVE",
"822 1483 CURVE SMOOTH",
"394 1483 OFFCURVE",
"116 1168 OFFCURVE",
"116 726 CURVE SMOOTH"
);
}
);
width = 1429;
}
);
unicode = 00C7;
},
{
glyphname = Eacute;
layers = (
{
layerId = "E08CDE4C-5D6C-43D8-8149-5F9E51F0B944";
name = Bold;
paths = (
{
closed = 1;
nodes = (
"200 0 LINE",
"1117 0 LINE",
"1117 148 LINE",
"372 148 LINE",
"372 672 LINE",
"1029 672 LINE",
"1029 820 LINE",
"372 820 LINE",
"372 1308 LINE",
"1067 1308 LINE",
"1067 1456 LINE",
"200 1456 LINE"
);
},
{
closed = 1;
nodes = (
"588 1602 LINE",
"718 1602 LINE",
"1026 1922 LINE",
"814 1922 LINE"
);
}
);
width = 1213;
}
);
unicode = 00C9;
},
{
glyphname = Ntilde;
layers = (
{
layerId = "E08CDE4C-5D6C-43D8-8149-5F9E51F0B944";
name = Bold;
paths = (
{
closed = 1;
nodes = (
"200 0 LINE",
"372 0 LINE",
"372 1237 LINE",
"444 1113 LINE",
"1194 0 LINE",
"1402 0 LINE",
"1402 1456 LINE",
"1231 1456 LINE",
"1231 215 LINE",
"1153 342 LINE",
"406 1456 LINE",
"200 1456 LINE"
);
},
{
closed = 1;
nodes = (
"554 1843 OFFCURVE",
"489 1749 OFFCURVE",
"479 1633 CURVE",
"584 1633 LINE",
"591 1690 OFFCURVE",
"621 1718 OFFCURVE",
"675 1718 CURVE SMOOTH",
"770 1718 OFFCURVE",
"832 1650 OFFCURVE",
"928 1650 CURVE SMOOTH",
"1052 1650 OFFCURVE",
"1110 1752 OFFCURVE",
"1123 1865 CURVE",
"1015 1865 LINE",
"1008 1814 OFFCURVE",
"980.999 1775 OFFCURVE",
"928 1775 CURVE SMOOTH",
"909 1775 OFFCURVE",
"889 1779 OFFCURVE",
"869 1786 CURVE SMOOTH",
"811 1807 OFFCURVE",
"754 1843 OFFCURVE",
"678 1843 CURVE SMOOTH"
);
}
);
width = 1602;
}
);
unicode = 00D1;
},
{
glyphname = Odieresis;
layers = (
{
layerId = "E08CDE4C-5D6C-43D8-8149-5F9E51F0B944";
name = Bold;
paths = (
{
closed = 1;
nodes = (
"583 1613 LINE",
"747 1613 LINE",
"747 1776 LINE",
"583 1776 LINE"
);
},
{
closed = 1;
nodes = (
"1358 330 OFFCURVE",
"1106 123 OFFCURVE",
"834 123 CURVE SMOOTH",
"471 123 OFFCURVE",
"300 390 OFFCURVE",
"300 729 CURVE SMOOTH",
"300 1128 OFFCURVE",
"556 1334 OFFCURVE",
"834 1334 CURVE SMOOTH",
"1190 1334 OFFCURVE",
"1358 1068 OFFCURVE",
"1358 729 CURVE SMOOTH"
);
},
{
closed = 1;
nodes = (
"116 218 OFFCURVE",
"432 -22 OFFCURVE",
"834 -22 CURVE SMOOTH",
"1304 -22 OFFCURVE",
"1546 338 OFFCURVE",
"1546 730 CURVE SMOOTH",
"1546 1242 OFFCURVE",
"1233 1483 OFFCURVE",
"834 1483 CURVE SMOOTH",
"360 1483 OFFCURVE",
"116 1122 OFFCURVE",
"116 730 CURVE SMOOTH"
);
},
{
closed = 1;
nodes = (
"915 1613 LINE",
"1079 1613 LINE",
"1079 1776 LINE",
"915 1776 LINE"
);
}
);
width = 1662;
}
);
unicode = 00D6;
},
{
glyphname = Udieresis;
layers = (
{
layerId = "E08CDE4C-5D6C-43D8-8149-5F9E51F0B944";
name = Bold;
paths = (
{
closed = 1;
nodes = (
"191 157 OFFCURVE",
"392 -22 OFFCURVE",
"776 -22 CURVE SMOOTH",
"1138 -22 OFFCURVE",
"1334 191 OFFCURVE",
"1336 551 CURVE SMOOTH",
"1336 1456 LINE",
"1165 1456 LINE",
"1165 539 LINE SMOOTH",
"1165 279 OFFCURVE",
"1026 123 OFFCURVE",
"774 123 CURVE SMOOTH",
"502 123 OFFCURVE",
"363 260 OFFCURVE",
"363 546 CURVE SMOOTH",
"363 1456 LINE",
"191 1456 LINE",
"191 541 LINE SMOOTH"
);
},
{
closed = 1;
nodes = (
"518 1613 LINE",
"682 1613 LINE",
"682 1776 LINE",
"518 1776 LINE"
);
},
{
closed = 1;
nodes = (
"850 1613 LINE",
"1014 1613 LINE",
"1014 1776 LINE",
"850 1776 LINE"
);
}
);
width = 1532;
}
);
unicode = 00DC;
},
{
glyphname = dagger;
layers = (
{
layerId = "E08CDE4C-5D6C-43D8-8149-5F9E51F0B944";
name = Bold;
paths = (
{
closed = 1;
nodes = (
"433 113 LINE",
"561 113 LINE",
"561 934 LINE",
"919 934 LINE",
"919 1066 LINE",
"575 1066 LINE",
"575 1451 LINE",
"433 1451 LINE",
"433 1066 LINE",
"107 1066 LINE",
"107 934 LINE",
"433 934 LINE"
);
}
);
width = 1022;
}
);
unicode = 2020;
},
{
glyphname = degree;
layers = (
{
layerId = "E08CDE4C-5D6C-43D8-8149-5F9E51F0B944";
name = Bold;
paths = (
{
closed = 1;
nodes = (
"565 1019 OFFCURVE",
"502 970.999 OFFCURVE",
"414 970.999 CURVE SMOOTH",
"387 970.999 OFFCURVE",
"361 975.999 OFFCURVE",
"338 984.999 CURVE SMOOTH",
"275 1010 OFFCURVE",
"220 1064 OFFCURVE",
"220 1151 CURVE SMOOTH",
"220 1176 OFFCURVE",
"226 1200 OFFCURVE",
"236 1222 CURVE SMOOTH",
"265 1282 OFFCURVE",
"327 1328 OFFCURVE",
"414 1328 CURVE SMOOTH",
"440 1328 OFFCURVE",
"464 1323 OFFCURVE",
"488 1314 CURVE SMOOTH",
"551 1290 OFFCURVE",
"608 1237 OFFCURVE",
"608 1151 CURVE SMOOTH",
"608 1126 OFFCURVE",
"603 1102 OFFCURVE",
"593 1080 CURVE SMOOTH"
);
},
{
closed = 1;
nodes = (
"167 937 OFFCURVE",
"271 855 OFFCURVE",
"414 855 CURVE SMOOTH",
"457 855 OFFCURVE",
"497 862 OFFCURVE",
"536 878 CURVE SMOOTH",
"638 919 OFFCURVE",
"733 1010 OFFCURVE",
"733 1150 CURVE SMOOTH",
"733 1191 OFFCURVE",
"725 1228 OFFCURVE",
"708 1264 CURVE SMOOTH",
"661 1363 OFFCURVE",
"558 1444 OFFCURVE",
"414 1444 CURVE SMOOTH",
"371 1444 OFFCURVE",
"330 1436 OFFCURVE",
"291 1421 CURVE SMOOTH",
"189 1380 OFFCURVE",
"94.9999 1289 OFFCURVE",
"94.9999 1150 CURVE SMOOTH",
"94.9999 1109 OFFCURVE",
"103 1072 OFFCURVE",
"120 1036 CURVE SMOOTH"
);
}
);
width = 844;
}
);
unicode = 00B0;
},
{
glyphname = cent;
layers = (
{
layerId = "E08CDE4C-5D6C-43D8-8149-5F9E51F0B944";
name = Bold;
paths = (
{
closed = 1;
nodes = (
"93.9999 193 OFFCURVE",
"315 -23 OFFCURVE",
"609 -23 CURVE SMOOTH",
"723 -23 OFFCURVE",
"849 11 OFFCURVE",
"975.999 87 CURVE",
"940 225 LINE",
"825 146 OFFCURVE",
"714 117 OFFCURVE",
"616 117 CURVE SMOOTH",
"412 117 OFFCURVE",
"267 258 OFFCURVE",
"267 508 CURVE SMOOTH",
"267 737 OFFCURVE",
"389 909 OFFCURVE",
"619 909 CURVE SMOOTH",
"738 909 OFFCURVE",
"826 872 OFFCURVE",
"883 801 CURVE",
"960 912 LINE",
"892 1002 OFFCURVE",
"769 1051 OFFCURVE",
"610 1051 CURVE SMOOTH",
"289 1051 OFFCURVE",
"93.9999 824 OFFCURVE",
"93.9999 503 CURVE SMOOTH"
);
},
{
closed = 1;
nodes = (
"553 -235 LINE",
"666 -235 LINE",
"666 1281 LINE",
"553 1281 LINE"
);
}
);
width = 1189;
}
);
unicode = 00A2;
},
{
glyphname = sterling;
layers = (
{
layerId = "E08CDE4C-5D6C-43D8-8149-5F9E51F0B944";
name = Bold;
paths = (
{
closed = 1;
nodes = (
"115 0 LINE",
"1081 0 LINE",
"1081 141 LINE",
"370 141 LINE",
"386 154 OFFCURVE",
"400 171 OFFCURVE",
"411 194 CURVE SMOOTH",
"466 305 OFFCURVE",
"468 476 OFFCURVE",
"468 641 CURVE SMOOTH",
"468 690 LINE",
"798 690 LINE",
"798 832 LINE",
"466 832 LINE",
"463 947 LINE SMOOTH",
"463 1156 OFFCURVE",
"528 1307 OFFCURVE",
"736 1307 CURVE SMOOTH",
"847 1307 OFFCURVE",
"940 1280 OFFCURVE",
"1010 1237 CURVE",
"1062 1357 LINE",
"984.999 1418 OFFCURVE",
"876 1448 OFFCURVE",
"733 1448 CURVE SMOOTH",
"380 1448 OFFCURVE",
"294 1211 OFFCURVE",
"294 861 CURVE SMOOTH",
"294 851 OFFCURVE",
"295 842 OFFCURVE",
"296 832 CURVE",
"114 832 LINE",
"114 690 LINE",
"297 690 LINE",
"297 440 LINE SMOOTH",
"297 272 OFFCURVE",
"218 199 OFFCURVE",
"114 138 CURVE"
);
}
);
width = 1189;
}
);
unicode = 00A3;
},
{
glyphname = section;
layers = (
{
layerId = "E08CDE4C-5D6C-43D8-8149-5F9E51F0B944";
name = Bold;
paths = (
{
closed = 1;
nodes = (
"288 -27 OFFCURVE",
"380 -48 OFFCURVE",
"482 -48 CURVE SMOOTH",
"595 -48 OFFCURVE",
"696 -18 OFFCURVE",
"765 30 CURVE SMOOTH",
"831 76 OFFCURVE",
"888 146 OFFCURVE",
"888 252 CURVE SMOOTH",
"888 378 OFFCURVE",
"810 437 OFFCURVE",
"725 480 CURVE",
"808 531 OFFCURVE",
"911 606 OFFCURVE",
"911 737 CURVE SMOOTH",
"911 772 OFFCURVE",
"902 804 OFFCURVE",
"886 832 CURVE SMOOTH",
"812 957 OFFCURVE",
"636 1001 OFFCURVE",
"506 1072 CURVE SMOOTH",
"448 1104 OFFCURVE",
"393 1140 OFFCURVE",
"393 1221 CURVE SMOOTH",
"393 1328 OFFCURVE",
"499 1356 OFFCURVE",
"608 1356 CURVE SMOOTH",
"692 1356 OFFCURVE",
"774 1332 OFFCURVE",
"834 1304 CURVE",
"832 1452 LINE",
"757 1475 OFFCURVE",
"696 1493 OFFCURVE",
"603 1493 CURVE SMOOTH",
"403 1493 OFFCURVE",
"221 1416 OFFCURVE",
"221 1217 CURVE SMOOTH",
"221 1090 OFFCURVE",
"289 1027 OFFCURVE",
"374 974.999 CURVE",
"286 931 OFFCURVE",
"185 859 OFFCURVE",
"185 729 CURVE SMOOTH",
"185 697 OFFCURVE",
"191 667 OFFCURVE",
"202 640 CURVE SMOOTH",
"240 547 OFFCURVE",
"327 494 OFFCURVE",
"421 454 CURVE SMOOTH",
"505 418 LINE SMOOTH",
"538 404 OFFCURVE",
"568 391 OFFCURVE",
"594 379 CURVE SMOOTH",
"652 352 OFFCURVE",
"715 322 OFFCURVE",
"715 243 CURVE SMOOTH",
"715 221 OFFCURVE",
"710 201 OFFCURVE",
"699 182 CURVE SMOOTH",
"663 119 OFFCURVE",
"578 89 OFFCURVE",
"477 89 CURVE SMOOTH",
"373 89 OFFCURVE",
"293 116 OFFCURVE",
"210 153 CURVE",
"212 4 LINE"
);
},
{
closed = 1;
nodes = (
"693 615 OFFCURVE",
"640 578 OFFCURVE",
"591 547 CURVE",
"557 561 OFFCURVE",
"526 574 OFFCURVE",
"498 587 CURVE SMOOTH",
"434 616 OFFCURVE",
"362 653 OFFCURVE",
"362 741 CURVE SMOOTH",
"362 831 OFFCURVE",
"435 880 OFFCURVE",
"495 912 CURVE",
"575 868 OFFCURVE",
"733 846 OFFCURVE",
"733 723 CURVE SMOOTH",
"733 703 OFFCURVE",
"729 685 OFFCURVE",
"720 668 CURVE SMOOTH"
);
}
);
width = 1097;
}
);
unicode = 00A7;
},
{
glyphname = bullet;
layers = (
{
layerId = "E08CDE4C-5D6C-43D8-8149-5F9E51F0B944";
name = Bold;
paths = (
{
closed = 1;
nodes = (
"232 469 OFFCURVE",
"340 385 OFFCURVE",
"493 385 CURVE SMOOTH",
"594 385 OFFCURVE",
"677 426 OFFCURVE",
"732 478 CURVE SMOOTH",
"786 528 OFFCURVE",
"833 604 OFFCURVE",
"833 701 CURVE SMOOTH",
"833 743 OFFCURVE",
"824 782 OFFCURVE",
"806 820 CURVE SMOOTH",
"757 925 OFFCURVE",
"650 1010 OFFCURVE",
"498 1010 CURVE SMOOTH",
"453 1010 OFFCURVE",
"409 1002 OFFCURVE",
"368 984.999 CURVE SMOOTH",
"259 941 OFFCURVE",
"157 842 OFFCURVE",
"157 694 CURVE SMOOTH",
"157 652 OFFCURVE",
"166 612 OFFCURVE",
"183 575 CURVE SMOOTH"
);
}
);
width = 988;
}
);
unicode = 2022;
},
{
glyphname = paragraph;
layers = (
{
layerId = "E08CDE4C-5D6C-43D8-8149-5F9E51F0B944";
name = Bold;
paths = (
{
closed = 1;
nodes = (
"442 -148 LINE",
"585 -148 LINE",
"585 1327 LINE",
"793 1327 LINE",
"793 -148 LINE",
"922 -148 LINE",
"922 1327 LINE",
"1009 1327 LINE",
"1009 1451 LINE",
"623 1451 LINE SMOOTH",
"359 1451 OFFCURVE",
"107 1394 OFFCURVE",
"107 1130 CURVE SMOOTH",
"107 1079 OFFCURVE",
"116 1032 OFFCURVE",
"134 989.999 CURVE SMOOTH",
"182 877 OFFCURVE",
"286 788 OFFCURVE",
"442 786 CURVE"
);
}
);
width = 1214;
}
);
unicode = 00B6;
},
{
glyphname = germandbls;
layers = (
{
layerId = "E08CDE4C-5D6C-43D8-8149-5F9E51F0B944";
name = Bold;
paths = (
{
closed = 1;
nodes = (
"543 47 OFFCURVE",
"648 -23 OFFCURVE",
"792 -23 CURVE SMOOTH",
"841 -23 OFFCURVE",
"888 -14 OFFCURVE",
"934 3 CURVE SMOOTH",
"1064 52 OFFCURVE",
"1173 164 OFFCURVE",
"1173 341 CURVE SMOOTH",
"1173 407 OFFCURVE",
"1160 464 OFFCURVE",
"1133 514 CURVE SMOOTH",
"1054 661 OFFCURVE",
"896 747 OFFCURVE",
"722 798 CURVE SMOOTH",
"703 804 OFFCURVE",
"693 810 OFFCURVE",
"693 816 CURVE SMOOTH",
"693 827 OFFCURVE",
"710 834 OFFCURVE",
"719 838 CURVE SMOOTH",
"788 868 OFFCURVE",
"852 916 OFFCURVE",
"903 967.999 CURVE SMOOTH",
"955 1020 OFFCURVE",
"1011 1093 OFFCURVE",
"1011 1192 CURVE SMOOTH",
"1011 1236 OFFCURVE",
"1002 1277 OFFCURVE",
"983.999 1316 CURVE SMOOTH",
"925 1440 OFFCURVE",
"788 1511 OFFCURVE",
"604 1511 CURVE SMOOTH",
"535 1511 OFFCURVE",
"474 1501 OFFCURVE",
"420 1480 CURVE SMOOTH",
"267 1420 OFFCURVE",
"174 1282 OFFCURVE",
"174 1071 CURVE",
"176 0 LINE",
"341 0 LINE",
"341 101 OFFCURVE",
"340 217 OFFCURVE",
"340 326 CURVE SMOOTH",
"340 450 OFFCURVE",
"338 587 OFFCURVE",
"338 711 CURVE SMOOTH",
"338 820 OFFCURVE",
"337 937 OFFCURVE",
"337 1038 CURVE SMOOTH",
"337 1228 OFFCURVE",
"413 1382 OFFCURVE",
"603 1382 CURVE SMOOTH",
"731 1382 OFFCURVE",
"823 1318 OFFCURVE",
"823 1191 CURVE SMOOTH",
"823 1157 OFFCURVE",
"817 1125 OFFCURVE",
"804 1095 CURVE SMOOTH",
"763 1001 OFFCURVE",
"681 934 OFFCURVE",
"588 892 CURVE",
"572 756 LINE",
"672 699 OFFCURVE",
"777 641 OFFCURVE",
"858 570 CURVE SMOOTH",
"924 512 OFFCURVE",
"985.999 437 OFFCURVE",
"985.999 322 CURVE SMOOTH",
"985.999 197 OFFCURVE",
"911 109 OFFCURVE",
"788 109 CURVE SMOOTH",
"679 109 OFFCURVE",
"597 173 OFFCURVE",
"536 243 CURVE",
"471 138 LINE"
);
}
);
width = 1257;
}
);
unicode = 00DF;
},
{
glyphname = registered;
layers = (
{
layerId = "E08CDE4C-5D6C-43D8-8149-5F9E51F0B944";
name = Bold;
paths = (
{
closed = 1;
nodes = (
"597 273 LINE",
"745 273 LINE",
"745 664 LINE",
"882 664 LINE",
"943 625 OFFCURVE",
"986.999 557 OFFCURVE",
"1029 485 CURVE SMOOTH",
"1152 273 LINE",
"1320 273 LINE",
"1287 327 OFFCURVE",
"1258 375 OFFCURVE",
"1231 418 CURVE SMOOTH",
"1170 515 OFFCURVE",
"1113 609 OFFCURVE",
"1036 681 CURVE",
"1182 700 OFFCURVE",
"1301 775 OFFCURVE",
"1301 935 CURVE SMOOTH",
"1301 1018 OFFCURVE",
"1266 1082 OFFCURVE",
"1195 1126 CURVE SMOOTH",
"1124 1170 OFFCURVE",
"1016 1192 OFFCURVE",
"870 1192 CURVE SMOOTH",
"597 1192 LINE"
);
},
{
closed = 1;
nodes = (
"473 67 OFFCURVE",
"662 -32 OFFCURVE",
"914 -32 CURVE SMOOTH",
"1163 -32 OFFCURVE",
"1348 67 OFFCURVE",
"1480 192 CURVE SMOOTH",
"1608 313 OFFCURVE",
"1717 485 OFFCURVE",
"1717 725 CURVE SMOOTH",
"1717 794 OFFCURVE",
"1707 860 OFFCURVE",
"1688 924 CURVE SMOOTH",
"1647 1059 OFFCURVE",
"1573 1170 OFFCURVE",
"1480 1258 CURVE SMOOTH",
"1347 1383 OFFCURVE",
"1160 1483 OFFCURVE",
"908 1483 CURVE SMOOTH",
"659 1483 OFFCURVE",
"474 1385 OFFCURVE",
"341 1260 CURVE SMOOTH",
"213 1139 OFFCURVE",
"103 967 OFFCURVE",
"103 726 CURVE SMOOTH",
"103 657 OFFCURVE",
"113 590 OFFCURVE",
"132 526 CURVE SMOOTH",
"173 391 OFFCURVE",
"246 280 OFFCURVE",
"340 192 CURVE SMOOTH"
);
},
{
closed = 1;
nodes = (
"1284 165 OFFCURVE",
"1126 85 OFFCURVE",
"913 85 CURVE SMOOTH",
"705 85 OFFCURVE",
"538 164 OFFCURVE",
"426 270 CURVE SMOOTH",
"317 373 OFFCURVE",
"230 527 OFFCURVE",
"230 727 CURVE SMOOTH",
"230 926 OFFCURVE",
"317 1079 OFFCURVE",
"426 1182 CURVE SMOOTH",
"537 1287 OFFCURVE",
"703 1366 OFFCURVE",
"909 1366 CURVE SMOOTH",
"1116 1366 OFFCURVE",
"1283 1285 OFFCURVE",
"1394 1180 CURVE SMOOTH",
"1503 1077 OFFCURVE",
"1590 924 OFFCURVE",
"1590 724 CURVE SMOOTH",
"1590 519 OFFCURVE",
"1505 372 OFFCURVE",
"1396 270 CURVE SMOOTH"
);
},
{
closed = 1;
nodes = (
"743 783 LINE",
"742 1072 LINE",
"866 1072 LINE SMOOTH",
"1019 1072 OFFCURVE",
"1146 1071 OFFCURVE",
"1146 920 CURVE SMOOTH",
"1146 784 OFFCURVE",
"1006 783 OFFCURVE",
"868 783 CURVE SMOOTH"
);
}
);
width = 1829;
}
);
unicode = 00AE;
},
{
glyphname = copyright;
layers = (
{
layerId = "E08CDE4C-5D6C-43D8-8149-5F9E51F0B944";
name = Bold;
paths = (
{
closed = 1;
nodes = (
"563 378 OFFCURVE",
"713 249 OFFCURVE",
"940 249 CURVE SMOOTH",
"1060 249 OFFCURVE",
"1163 279 OFFCURVE",
"1249 339 CURVE",
"1210 460 LINE",
"1150 411 OFFCURVE",
"1073 380 OFFCURVE",
"971.999 380 CURVE SMOOTH",
"913 380 OFFCURVE",
"861 390 OFFCURVE",
"816 408 CURVE SMOOTH",
"695 458 OFFCURVE",
"613 566 OFFCURVE",
"613 733 CURVE SMOOTH",
"613 781 OFFCURVE",
"621 826 OFFCURVE",
"636 868 CURVE SMOOTH",
"680 988.999 OFFCURVE",
"782 1080 OFFCURVE",
"944 1080 CURVE SMOOTH",
"1051 1080 OFFCURVE",
"1141 1048 OFFCURVE",
"1214 984.999 CURVE",
"1245 1105 LINE",
"1164 1174 OFFCURVE",
"1066 1208 OFFCURVE",
"951 1208 CURVE SMOOTH",
"877 1208 OFFCURVE",
"810 1196 OFFCURVE",
"750 1172 CURVE SMOOTH",
"583 1106 OFFCURVE",
"460 959 OFFCURVE",
"460 729 CURVE SMOOTH",
"460 662 OFFCURVE",
"472 600 OFFCURVE",
"496 542 CURVE SMOOTH"
);
},
{
closed = 1;
nodes = (
"473 67 OFFCURVE",
"662 -32 OFFCURVE",
"914 -32 CURVE SMOOTH",
"1163 -32 OFFCURVE",
"1348 67 OFFCURVE",
"1480 192 CURVE SMOOTH",
"1608 313 OFFCURVE",
"1717 485 OFFCURVE",
"1717 725 CURVE SMOOTH",
"1717 794 OFFCURVE",
"1707 860 OFFCURVE",
"1688 924 CURVE SMOOTH",
"1647 1059 OFFCURVE",
"1573 1170 OFFCURVE",
"1480 1258 CURVE SMOOTH",
"1347 1383 OFFCURVE",
"1160 1483 OFFCURVE",
"908 1483 CURVE SMOOTH",
"659 1483 OFFCURVE",
"474 1385 OFFCURVE",
"341 1260 CURVE SMOOTH",
"213 1139 OFFCURVE",
"103 967 OFFCURVE",
"103 726 CURVE SMOOTH",
"103 657 OFFCURVE",
"113 590 OFFCURVE",
"132 526 CURVE SMOOTH",
"173 391 OFFCURVE",
"246 280 OFFCURVE",
"340 192 CURVE SMOOTH"
);
},
{
closed = 1;
nodes = (
"1284 165 OFFCURVE",
"1120 85 OFFCURVE",
"913 85 CURVE SMOOTH",
"705 85 OFFCURVE",
"538 164 OFFCURVE",
"426 270 CURVE SMOOTH",
"317 373 OFFCURVE",
"230 527 OFFCURVE",
"230 727 CURVE SMOOTH",
"230 926 OFFCURVE",
"317 1080 OFFCURVE",
"426 1182 CURVE SMOOTH",
"537 1286 OFFCURVE",
"703 1366 OFFCURVE",
"909 1366 CURVE SMOOTH",
"1116 1366 OFFCURVE",
"1283 1285 OFFCURVE",
"1394 1180 CURVE SMOOTH",
"1503 1077 OFFCURVE",
"1590 924 OFFCURVE",
"1590 724 CURVE SMOOTH",
"1590 525 OFFCURVE",
"1503 372 OFFCURVE",
"1395 270 CURVE SMOOTH"
);
}
);
width = 1829;
}
);
unicode = 00A9;
},
{
glyphname = trademark;
layers = (
{
layerId = "E08CDE4C-5D6C-43D8-8149-5F9E51F0B944";
name = Bold;
paths = (
{
closed = 1;
nodes = (
"819 686 LINE",
"940 686 LINE",
"940 1280 LINE",
"1199 686 LINE",
"1279 686 LINE",
"1553 1281 LINE",
"1553 686 LINE",
"1675 686 LINE",
"1675 1451 LINE",
"1495 1451 LINE",
"1245 900 LINE",
"1009 1451 LINE",
"819 1451 LINE"
);
},
{
closed = 1;
nodes = (
"323 686 LINE",
"447 686 LINE",
"447 1350 LINE",
"707 1350 LINE",
"707 1451 LINE",
"70 1451 LINE",
"70 1350 LINE",
"323 1350 LINE"
);
}
);
width = 1869;
}
);
unicode = 2122;
},
{
glyphname = acute;
lastChange = "2013-01-23 08:45:38 -0800";
layers = (
{
anchors = (
{
name = _top;
position = "{394, 0}";
}
);
layerId = "E08CDE4C-5D6C-43D8-8149-5F9E51F0B944";
name = Bold;
paths = (
{
closed = 1;
nodes = (
"175 1172 LINE",
"365 1172 LINE",
"673 1492 LINE",
"401 1492 LINE"
);
}
);
width = 607;
}
);
unicode = 00B4;
},
{
glyphname = dieresis;
lastChange = "2013-01-23 08:47:40 -0800";
layers = (
{
anchors = (
{
name = _top;
position = "{369, 0}";
}
);
layerId = "E08CDE4C-5D6C-43D8-8149-5F9E51F0B944";
name = Bold;
paths = (
{
closed = 1;
nodes = (
"61 1183 LINE",
"285 1183 LINE",
"285 1406 LINE",
"61 1406 LINE"
);
},
{
closed = 1;
nodes = (
"423 1183 LINE",
"647 1183 LINE",
"647 1406 LINE",
"423 1406 LINE"
);
}
);
width = 743;
}
);
unicode = 00A8;
},
{
glyphname = notequal;
layers = (
{
layerId = "E08CDE4C-5D6C-43D8-8149-5F9E51F0B944";
name = Bold;
paths = (
{
closed = 1;
nodes = (
"457 46 LINE",
"597 325 LINE",
"1182 325 LINE",
"1173 445 LINE",
"656 445 LINE",
"804 728 LINE",
"1182 728 LINE",
"1172 849 LINE",
"862 849 LINE",
"988.999 1105 LINE",
"864 1123 LINE",
"728 849 LINE",
"160 849 LINE",
"170 728 LINE",
"671 728 LINE",
"524 445 LINE",
"161 445 LINE",
"170 325 LINE",
"463 325 LINE",
"335 64 LINE"
);
}
);
width = 1351;
}
);
unicode = 2260;
},
{
glyphname = AE;
layers = (
{
anchors = (
{
name = top;
position = "{1014, 0}";
}
);
layerId = "E08CDE4C-5D6C-43D8-8149-5F9E51F0B944";
name = Bold;
paths = (
{
closed = 1;
nodes = (
"5 0 LINE",
"201 0 LINE",
"427 398 LINE",
"1073 398 LINE",
"1104 0 LINE",
"1901 0 LINE",
"1901 148 LINE",
"1257 148 LINE",
"1216 672 LINE",
"1837 672 LINE",
"1837 820 LINE",
"1197 820 LINE",
"1159 1308 LINE",
"1878 1308 LINE",
"1878 1456 LINE",
"836 1456 LINE"
);
},
{
closed = 1;
nodes = (
"506 546 LINE",
"944 1308 LINE",
"993.999 1308 LINE",
"1054 546 LINE"
);
}
);
width = 2028;
}
);
unicode = 00C6;
},
{
glyphname = Oslash;
layers = (
{
anchors = (
{
name = top;
position = "{832, 0}";
}
);
layerId = "E08CDE4C-5D6C-43D8-8149-5F9E51F0B944";
name = Bold;
paths = (
{
closed = 1;
nodes = (
"1358 330 OFFCURVE",
"1106 123 OFFCURVE",
"834 123 CURVE SMOOTH",
"471 123 OFFCURVE",
"300 390 OFFCURVE",
"300 729 CURVE SMOOTH",
"300 1128 OFFCURVE",
"556 1334 OFFCURVE",
"834 1334 CURVE SMOOTH",
"1190 1334 OFFCURVE",
"1358 1068 OFFCURVE",
"1358 729 CURVE SMOOTH"
);
},
{
closed = 1;
nodes = (
"116 218 OFFCURVE",
"432 -22 OFFCURVE",
"834 -22 CURVE SMOOTH",
"1304 -22 OFFCURVE",
"1546 338 OFFCURVE",
"1546 730 CURVE SMOOTH",
"1546 1242 OFFCURVE",
"1233 1483 OFFCURVE",
"834 1483 CURVE SMOOTH",
"360 1483 OFFCURVE",
"116 1122 OFFCURVE",
"116 730 CURVE SMOOTH"
);
},
{
closed = 1;
nodes = (
"521 -165 LINE",
"1262 1581 LINE",
"1137 1625 LINE",
"400 -121 LINE"
);
}
);
width = 1663;
}
);
unicode = 00D8;
},
{
glyphname = infinity;
layers = (
{
layerId = "E08CDE4C-5D6C-43D8-8149-5F9E51F0B944";
name = Bold;
paths = (
{
closed = 1;
nodes = (
"172 339 OFFCURVE",
"285 236 OFFCURVE",
"460 236 CURVE SMOOTH",
"500 236 OFFCURVE",
"538 242 OFFCURVE",
"574 254 CURVE SMOOTH",
"698 297 OFFCURVE",
"785 391 OFFCURVE",
"860 488 CURVE",
"926 404 OFFCURVE",
"990.999 341 OFFCURVE",
"1054 299 CURVE SMOOTH",
"1117 257 OFFCURVE",
"1186 236 OFFCURVE",
"1260 236 CURVE SMOOTH",
"1308 236 OFFCURVE",
"1354 245 OFFCURVE",
"1398 262 CURVE SMOOTH",
"1522 311 OFFCURVE",
"1621 425 OFFCURVE",
"1621 595 CURVE SMOOTH",
"1621 646 OFFCURVE",
"1613 692 OFFCURVE",
"1596 735 CURVE SMOOTH",
"1547 859 OFFCURVE",
"1434 944 OFFCURVE",
"1262 944 CURVE SMOOTH",
"1219 944 OFFCURVE",
"1180 938 OFFCURVE",
"1144 926 CURVE SMOOTH",
"1019 884 OFFCURVE",
"936 789 OFFCURVE",
"862 692 CURVE",
"833 730 OFFCURVE",
"803 765 OFFCURVE",
"772 796 CURVE SMOOTH",
"696 873 OFFCURVE",
"600 944 OFFCURVE",
"455 944 CURVE SMOOTH",
"350 944 OFFCURVE",
"262 900 OFFCURVE",
"204 847 CURVE SMOOTH",
"146 795 OFFCURVE",
"95.9999 715 OFFCURVE",
"95.9999 612 CURVE SMOOTH",
"95.9999 561 OFFCURVE",
"104 512 OFFCURVE",
"122 467 CURVE SMOOTH"
);
},
{
closed = 1;
nodes = (
"594 388 OFFCURVE",
"538 355 OFFCURVE",
"463 355 CURVE SMOOTH",
"427 355 OFFCURVE",
"395 362 OFFCURVE",
"366 375 CURVE SMOOTH",
"290 410 OFFCURVE",
"226 485 OFFCURVE",
"226 592 CURVE SMOOTH",
"226 624 OFFCURVE",
"232 654 OFFCURVE",
"242 683 CURVE SMOOTH",
"272 766 OFFCURVE",
"341 829 OFFCURVE",
"453 829 CURVE SMOOTH",
"488 829 OFFCURVE",
"521 822 OFFCURVE",
"552 810 CURVE SMOOTH",
"658 768 OFFCURVE",
"729 679 OFFCURVE",
"791 589 CURVE",
"747 529 OFFCURVE",
"697 468 OFFCURVE",
"640 424 CURVE SMOOTH"
);
},
{
closed = 1;
nodes = (
"1482 466 OFFCURVE",
"1414 355 OFFCURVE",
"1263 355 CURVE SMOOTH",
"1190 355 OFFCURVE",
"1141 380 OFFCURVE",
"1095 415 CURVE SMOOTH",
"1031 463 OFFCURVE",
"981.999 523 OFFCURVE",
"929 592 CURVE",
"969.999 652 OFFCURVE",
"1019 712 OFFCURVE",
"1075 756 CURVE SMOOTH",
"1122 793 OFFCURVE",
"1182 829 OFFCURVE",
"1258 829 CURVE SMOOTH",
"1291 829 OFFCURVE",
"1320 823 OFFCURVE",
"1348 812 CURVE SMOOTH",
"1420 782 OFFCURVE",
"1482 717 OFFCURVE",
"1482 618 CURVE SMOOTH"
);
}
);
width = 1724;
}
);
unicode = 221E;
},
{
glyphname = plusminus;
layers = (
{
layerId = "E08CDE4C-5D6C-43D8-8149-5F9E51F0B944";
name = Bold;
paths = (
{
closed = 1;
nodes = (
"647 223 LINE",
"798 223 LINE",
"798 595 LINE",
"1245 595 LINE",
"1245 733 LINE",
"794 733 LINE",
"794 1107 LINE",
"645 1107 LINE",
"645 733 LINE",
"188 733 LINE",
"200 595 LINE",
"647 595 LINE"
);
},
{
closed = 1;
nodes = (
"200 0 LINE",
"1249 0 LINE",
"1249 138 LINE",
"200 138 LINE"
);
}
);
width = 1458;
}
);
unicode = 00B1;
},
{
glyphname = lessequal;
layers = (
{
layerId = "E08CDE4C-5D6C-43D8-8149-5F9E51F0B944";
name = Bold;
paths = (
{
closed = 1;
nodes = (
"1146 216 LINE",
"1146 357 LINE",
"372 710 LINE",
"1146 1079 LINE",
"1146 1219 LINE",
"197 747 LINE",
"197 666 LINE"
);
},
{
closed = 1;
nodes = (
"161 9 LINE",
"1175 9 LINE",
"1175 131 LINE",
"161 131 LINE"
);
}
);
width = 1351;
}
);
unicode = 2264;
},
{
glyphname = greaterequal;
layers = (
{
layerId = "E08CDE4C-5D6C-43D8-8149-5F9E51F0B944";
name = Bold;
paths = (
{
closed = 1;
nodes = (
"192 218 LINE",
"1152 668 LINE",
"1152 748 LINE",
"196 1221 LINE",
"196 1081 LINE",
"973.999 707 LINE",
"192 359 LINE"
);
},
{
closed = 1;
nodes = (
"161 9 LINE",
"1171 9 LINE",
"1171 131 LINE",
"161 131 LINE"
);
}
);
width = 1350;
}
);
unicode = 2265;
},
{
glyphname = yen;
layers = (
{
layerId = "E08CDE4C-5D6C-43D8-8149-5F9E51F0B944";
name = Bold;
paths = (
{
closed = 1;
nodes = (
"508 0 LINE",
"680 0 LINE",
"680 283 LINE",
"1071 283 LINE",
"1071 423 LINE",
"677 423 LINE",
"677 574 LINE",
"1068 574 LINE",
"1068 716 LINE",
"704 716 LINE",
"1159 1420 LINE",
"972.999 1420 LINE",
"849 1212 OFFCURVE",
"727 1002 OFFCURVE",
"601 796 CURVE",
"481 1007 OFFCURVE",
"354 1212 OFFCURVE",
"231 1420 CURVE",
"26 1420 LINE",
"471 716 LINE",
"103 716 LINE",
"103 574 LINE",
"506 574 LINE",
"506 423 LINE",
"97.9999 423 LINE",
"109 283 LINE",
"508 283 LINE"
);
}
);
width = 1189;
}
);
unicode = 00A5;
},
{
glyphname = partialdiff;
layers = (
{
layerId = "E08CDE4C-5D6C-43D8-8149-5F9E51F0B944";
name = Bold;
paths = (
{
closed = 1;
nodes = (
"160 87 OFFCURVE",
"284 -24 OFFCURVE",
"492 -24 CURVE SMOOTH",
"557 -24 OFFCURVE",
"618 -12 OFFCURVE",
"672 11 CURVE SMOOTH",
"786 60 OFFCURVE",
"870 146 OFFCURVE",
"931 252 CURVE SMOOTH",
"1020 407 OFFCURVE",
"1074 611 OFFCURVE",
"1074 852 CURVE SMOOTH",
"1074 968.999 OFFCURVE",
"1063 1070 OFFCURVE",
"1040 1156 CURVE SMOOTH",
"982.999 1373 OFFCURVE",
"853 1533 OFFCURVE",
"588 1533 CURVE SMOOTH",
"466 1533 OFFCURVE",
"355 1492 OFFCURVE",
"280 1442 CURVE",
"291 1304 LINE",
"361 1351 OFFCURVE",
"451 1399 OFFCURVE",
"565 1399 CURVE SMOOTH",
"618 1399 OFFCURVE",
"664 1388 OFFCURVE",
"706 1366 CURVE SMOOTH",
"842 1293 OFFCURVE",
"903 1123 OFFCURVE",
"903 911 CURVE SMOOTH",
"903 890 OFFCURVE",
"902 856 OFFCURVE",
"902 836 CURVE",
"832 927 OFFCURVE",
"736 1002 OFFCURVE",
"586 1002 CURVE SMOOTH",
"516 1002 OFFCURVE",
"451 986.999 OFFCURVE",
"390 957 CURVE SMOOTH",
"213 870 OFFCURVE",
"83 681 OFFCURVE",
"83 420 CURVE SMOOTH",
"83 357 OFFCURVE",
"92 299 OFFCURVE",
"109 245 CURVE SMOOTH"
);
},
{
closed = 1;
nodes = (
"700 190 OFFCURVE",
"618 111 OFFCURVE",
"495 111 CURVE SMOOTH",
"458 111 OFFCURVE",
"424 118 OFFCURVE",
"394 133 CURVE SMOOTH",
"302 178 OFFCURVE",
"252 280 OFFCURVE",
"252 417 CURVE SMOOTH",
"252 547 OFFCURVE",
"296 658 OFFCURVE",
"355 734 CURVE SMOOTH",
"409 804 OFFCURVE",
"494 869 OFFCURVE",
"609 869 CURVE SMOOTH",
"644 869 OFFCURVE",
"676 864 OFFCURVE",
"705 852 CURVE SMOOTH",
"792 817 OFFCURVE",
"853 744 OFFCURVE",
"885 655 CURVE",
"868 507 OFFCURVE",
"821 369 OFFCURVE",
"755 271 CURVE SMOOTH"
);
}
);
width = 1167;
}
);
unicode = 2202;
},
{
glyphname = summation;
layers = (
{
layerId = "E08CDE4C-5D6C-43D8-8149-5F9E51F0B944";
name = Bold;
paths = (
{
closed = 1;
nodes = (
"57 -329 LINE",
"1220 -329 LINE",
"1220 -181 LINE",
"294 -181 LINE",
"898 561 LINE",
"325 1281 LINE",
"1175 1281 LINE",
"1175 1423 LINE",
"79 1423 LINE",
"79 1328 LINE",
"697 552 LINE",
"57 -239 LINE"
);
}
);
width = 1264;
}
);
unicode = 2211;
},
{
glyphname = product;
layers = (
{
layerId = "E08CDE4C-5D6C-43D8-8149-5F9E51F0B944";
name = Bold;
paths = (
{
closed = 1;
nodes = (
"251 -329 LINE",
"426 -329 LINE",
"426 1278 LINE",
"1149 1278 LINE",
"1149 -329 LINE",
"1327 -329 LINE",
"1327 1278 LINE",
"1440 1278 LINE",
"1456 1423 LINE",
"110 1423 LINE",
"126 1278 LINE",
"251 1278 LINE"
);
}
);
width = 1568;
}
);
unicode = 220F;
},
{
glyphname = pi;
layers = (
{
layerId = "E08CDE4C-5D6C-43D8-8149-5F9E51F0B944";
name = Bold;
paths = (
{
closed = 1;
nodes = (
"851 104 OFFCURVE",
"888 -8 OFFCURVE",
"1061 -8 CURVE SMOOTH",
"1108 -8 OFFCURVE",
"1153 -2 OFFCURVE",
"1198 6 CURVE",
"1188 35 OFFCURVE",
"1185 65 OFFCURVE",
"1185 99.9999 CURVE SMOOTH",
"1185 110 OFFCURVE",
"1185 120 OFFCURVE",
"1186 130 CURVE SMOOTH",
"1188 160 LINE",
"1159 151 OFFCURVE",
"1133 147 OFFCURVE",
"1108 147 CURVE SMOOTH",
"1024 147 OFFCURVE",
"1010 206 OFFCURVE",
"1010 288 CURVE SMOOTH",
"1010 907 LINE",
"1214 907 LINE",
"1214 1040 LINE",
"369 1040 LINE SMOOTH",
"227 1040 OFFCURVE",
"95.9999 1037 OFFCURVE",
"17 976.999 CURVE",
"34 846 LINE",
"111 887 OFFCURVE",
"194 904 OFFCURVE",
"311 907 CURVE",
"306 739 OFFCURVE",
"296 567 OFFCURVE",
"276 411 CURVE SMOOTH",
"257 263 OFFCURVE",
"232 105 OFFCURVE",
"172 0 CURVE",
"341 0 LINE",
"353 21 OFFCURVE",
"364 51 OFFCURVE",
"374 88 CURVE SMOOTH",
"439 335 OFFCURVE",
"458 619 OFFCURVE",
"480 907 CURVE",
"851 907 LINE",
"851 279 LINE SMOOTH"
);
}
);
width = 1288;
}
);
unicode = 03C0;
},
{
glyphname = integral;
layers = (
{
layerId = "E08CDE4C-5D6C-43D8-8149-5F9E51F0B944";
name = Bold;
paths = (
{
closed = 1;
nodes = (
"172 -391 OFFCURVE",
"201 -399 OFFCURVE",
"260 -399 CURVE SMOOTH",
"483 -399 OFFCURVE",
"557 -245 OFFCURVE",
"557 -23 CURVE SMOOTH",
"557 1279 LINE SMOOTH",
"557 1415 OFFCURVE",
"584 1496 OFFCURVE",
"720 1496 CURVE SMOOTH",
"757 1496 OFFCURVE",
"804 1491 OFFCURVE",
"830 1481 CURVE",
"828 1610 LINE",
"784 1620 OFFCURVE",
"747 1631 OFFCURVE",
"692 1631 CURVE SMOOTH",
"469 1631 OFFCURVE",
"393 1477 OFFCURVE",
"393 1255 CURVE SMOOTH",
"393 -47 LINE SMOOTH",
"393 -183 OFFCURVE",
"368 -264 OFFCURVE",
"232 -264 CURVE SMOOTH",
"195 -264 OFFCURVE",
"148 -259 OFFCURVE",
"122 -249 CURVE",
"124 -378 LINE"
);
}
);
width = 702;
}
);
unicode = 222B;
},
{
glyphname = ordfeminine;
layers = (
{
layerId = "E08CDE4C-5D6C-43D8-8149-5F9E51F0B944";
name = Bold;
paths = (
{
closed = 1;
nodes = (
"122 814 OFFCURVE",
"205 768 OFFCURVE",
"317 768 CURVE SMOOTH",
"417 768 OFFCURVE",
"492 805 OFFCURVE",
"537 860 CURVE",
"543 786 LINE",
"674 786 LINE",
"669 846 OFFCURVE",
"667 870 OFFCURVE",
"667 914 CURVE SMOOTH",
"669 1235 LINE SMOOTH",
"669 1400 OFFCURVE",
"558 1477 OFFCURVE",
"394 1477 CURVE SMOOTH",
"262 1477 OFFCURVE",
"162 1436 OFFCURVE",
"111 1350 CURVE",
"178 1275 LINE",
"222 1340 OFFCURVE",
"289 1369 OFFCURVE",
"388 1369 CURVE SMOOTH",
"498 1369 OFFCURVE",
"536 1329 OFFCURVE",
"536 1219 CURVE SMOOTH",
"536 1211 LINE",
"462 1201 OFFCURVE",
"383 1202 OFFCURVE",
"309 1192 CURVE SMOOTH",
"189 1174 OFFCURVE",
"66 1112 OFFCURVE",
"66 974.999 CURVE SMOOTH",
"66 944 OFFCURVE",
"72 916 OFFCURVE",
"85 890 CURVE SMOOTH"
);
},
{
closed = 1;
nodes = (
"530 962 OFFCURVE",
"468 871 OFFCURVE",
"338 871 CURVE SMOOTH",
"260 871 OFFCURVE",
"202 899 OFFCURVE",
"202 976.999 CURVE SMOOTH",
"202 1115 OFFCURVE",
"424 1088 OFFCURVE",
"536 1110 CURVE",
"536 1085 LINE"
);
}
);
width = 745;
}
);
unicode = 00AA;
},
{
glyphname = ordmasculine;
layers = (
{
layerId = "E08CDE4C-5D6C-43D8-8149-5F9E51F0B944";
name = Bold;
paths = (
{
closed = 1;
nodes = (
"53 901 OFFCURVE",
"191 767 OFFCURVE",
"416 767 CURVE SMOOTH",
"474 767 OFFCURVE",
"526 776 OFFCURVE",
"570 795 CURVE SMOOTH",
"690 845 OFFCURVE",
"774 954 OFFCURVE",
"774 1121 CURVE SMOOTH",
"774 1171 OFFCURVE",
"766 1217 OFFCURVE",
"751 1260 CURVE SMOOTH",
"705 1390 OFFCURVE",
"591 1476 OFFCURVE",
"415 1476 CURVE SMOOTH",
"357 1476 OFFCURVE",
"306 1466 OFFCURVE",
"261 1448 CURVE SMOOTH",
"140 1398 OFFCURVE",
"53 1291 OFFCURVE",
"53 1124 CURVE SMOOTH"
);
},
{
closed = 1;
nodes = (
"636 978.999 OFFCURVE",
"557 875 OFFCURVE",
"416 875 CURVE SMOOTH",
"269 875 OFFCURVE",
"193 976.999 OFFCURVE",
"193 1123 CURVE SMOOTH",
"193 1264 OFFCURVE",
"271 1369 OFFCURVE",
"413 1369 CURVE SMOOTH",
"558 1369 OFFCURVE",
"636 1264 OFFCURVE",
"636 1119 CURVE SMOOTH"
);
}
);
width = 824;
}
);
unicode = 00BA;
},
{
glyphname = ae;
layers = (
{
anchors = (
{
name = top;
position = "{904, 0}";
}
);
layerId = "E08CDE4C-5D6C-43D8-8149-5F9E51F0B944";
name = Bold;
paths = (
{
closed = 1;
nodes = (
"160 39 OFFCURVE",
"277 -28 OFFCURVE",
"441 -28 CURVE SMOOTH",
"641 -28 OFFCURVE",
"776 72 OFFCURVE",
"854 197 CURVE",
"919 71 OFFCURVE",
"1044 -25 OFFCURVE",
"1232 -25 CURVE SMOOTH",
"1446 -25 OFFCURVE",
"1582 65 OFFCURVE",
"1664 206 CURVE",
"1577 292 LINE",
"1511 193 OFFCURVE",
"1397 113 OFFCURVE",
"1242 113 CURVE SMOOTH",
"1029 113 OFFCURVE",
"941 253 OFFCURVE",
"941 463 CURVE SMOOTH",
"941 468 OFFCURVE",
"942 475 OFFCURVE",
"942 479 CURVE",
"1697 479 LINE",
"1697 524 LINE SMOOTH",
"1697 845 OFFCURVE",
"1553 1053 OFFCURVE",
"1231 1053 CURVE SMOOTH",
"1064 1053 OFFCURVE",
"944 970.999 OFFCURVE",
"878 856 CURVE",
"869 890 OFFCURVE",
"854 919 OFFCURVE",
"830 944 CURVE SMOOTH",
"769 1007 OFFCURVE",
"669 1053 OFFCURVE",
"550 1053 CURVE SMOOTH",
"353 1053 OFFCURVE",
"217 984.999 OFFCURVE",
"148 856 CURVE",
"238 763 LINE",
"298 864 OFFCURVE",
"391 917 OFFCURVE",
"540 917 CURVE SMOOTH",
"706 917 OFFCURVE",
"771 793 OFFCURVE",
"771 628 CURVE SMOOTH",
"771 615 LINE",
"443 615 OFFCURVE",
"81 611 OFFCURVE",
"81 282 CURVE SMOOTH",
"81 234 OFFCURVE",
"90 190 OFFCURVE",
"108 152 CURVE SMOOTH"
);
},
{
closed = 1;
nodes = (
"773 262 OFFCURVE",
"694 109 OFFCURVE",
"474 109 CURVE SMOOTH",
"347 109 OFFCURVE",
"250 163 OFFCURVE",
"250 290 CURVE SMOOTH",
"250 331 OFFCURVE",
"261 363 OFFCURVE",
"282 387 CURVE SMOOTH",
"349 463 OFFCURVE",
"486 472 OFFCURVE",
"627 476 CURVE SMOOTH",
"773 479 LINE"
);
},
{
closed = 1;
nodes = (
"943 616 LINE",
"946 656 OFFCURVE",
"956 694 OFFCURVE",
"970.999 730 CURVE SMOOTH",
"1015 833 OFFCURVE",
"1105 917 OFFCURVE",
"1250 917 CURVE SMOOTH",
"1440 917 OFFCURVE",
"1507 790 OFFCURVE",
"1524 616 CURVE"
);
}
);
width = 1807;
}
);
unicode = 00E6;
},
{
glyphname = oslash;
lastChange = "2013-01-23 22:12:28 -0800";
layers = (
{
anchors = (
{
name = top;
position = "{619, 0}";
}
);
components = (
{
name = o;
transform = "{1, 0, 0, 1, 0, 0}";
}
);
layerId = "E08CDE4C-5D6C-43D8-8149-5F9E51F0B944";
name = Bold;
paths = (
{
closed = 1;
nodes = (
"355 -261 LINE",
"996 1245 LINE",
"893 1277 LINE",
"256 -229 LINE"
);
}
);
width = 1238;
}
);
unicode = 00F8;
},
{
glyphname = questiondown;
layers = (
{
layerId = "E08CDE4C-5D6C-43D8-8149-5F9E51F0B944";
name = Bold;
paths = (
{
closed = 1;
nodes = (
"282 56 OFFCURVE",
"426 -11 OFFCURVE",
"618 -11 CURVE SMOOTH",
"724 -11 OFFCURVE",
"819 15 OFFCURVE",
"899 54 CURVE",
"899 200 LINE",
"828 160 OFFCURVE",
"742 131 OFFCURVE",
"638 131 CURVE SMOOTH",
"485 131 OFFCURVE",
"352 189 OFFCURVE",
"352 342 CURVE SMOOTH",
"352 382 OFFCURVE",
"361 419 OFFCURVE",
"380 453 CURVE SMOOTH",
"442 563 OFFCURVE",
"552 637 OFFCURVE",
"636 728 CURVE SMOOTH",
"684 780 OFFCURVE",
"736 845 OFFCURVE",
"736 937 CURVE SMOOTH",
"736 986.999 OFFCURVE",
"731 1051 OFFCURVE",
"726 1099 CURVE",
"562 1099 LINE",
"571 1049 LINE SMOOTH",
"576 1023 OFFCURVE",
"579 984.999 OFFCURVE",
"579 954 CURVE SMOOTH",
"579 923 OFFCURVE",
"570 891 OFFCURVE",
"550 860 CURVE SMOOTH",
"481 750 OFFCURVE",
"368 665 OFFCURVE",
"286 565 CURVE SMOOTH",
"237 505 OFFCURVE",
"183 433 OFFCURVE",
"183 334 CURVE SMOOTH",
"183 276 OFFCURVE",
"194 226 OFFCURVE",
"216 183 CURVE SMOOTH"
);
},
{
closed = 1;
nodes = (
"536 1268 LINE",
"753 1268 LINE",
"753 1478 LINE",
"536 1478 LINE"
);
}
);
width = 1032;
}
);
unicode = 00BF;
},
{
glyphname = exclamdown;
layers = (
{
layerId = "E08CDE4C-5D6C-43D8-8149-5F9E51F0B944";
name = Bold;
paths = (
{
closed = 1;
nodes = (
"260 -384 LINE",
"426 -384 LINE",
"426 694 LINE",
"260 694 LINE"
);
},
{
closed = 1;
nodes = (
"260 884 LINE",
"474 884 LINE",
"474 1090 LINE",
"260 1090 LINE"
);
}
);
width = 737;
}
);
unicode = 00A1;
},
{
glyphname = logicalnot;
layers = (
{
layerId = "E08CDE4C-5D6C-43D8-8149-5F9E51F0B944";
name = Bold;
paths = (
{
closed = 1;
nodes = (
"1098 238 LINE",
"1248 238 LINE",
"1248 798 LINE",
"200 798 LINE",
"200 659 LINE",
"1098 659 LINE"
);
}
);
width = 1458;
}
);
unicode = 00AC;
},
{
glyphname = radical;
layers = (
{
layerId = "E08CDE4C-5D6C-43D8-8149-5F9E51F0B944";
name = Bold;
paths = (
{
closed = 1;
nodes = (
"611 -153 LINE",
"746 -153 LINE",
"1212 1596 LINE",
"1082 1596 LINE",
"709 217 LINE",
"669 41 LINE",
"611 214 LINE",
"382 825 LINE",
"87 774 LINE",
"107 662 LINE",
"279 690 LINE"
);
}
);
width = 1314;
}
);
unicode = 221A;
},
{
glyphname = florin;
layers = (
{
layerId = "E08CDE4C-5D6C-43D8-8149-5F9E51F0B944";
name = Bold;
paths = (
{
closed = 1;
nodes = (
"111 -327 OFFCURVE",
"146 -332 OFFCURVE",
"177 -332 CURVE SMOOTH",
"238 -332 OFFCURVE",
"290 -320 OFFCURVE",
"330 -295 CURVE SMOOTH",
"457 -218 OFFCURVE",
"499 -52 OFFCURVE",
"532 120 CURVE SMOOTH",
"659 803 LINE",
"872 803 LINE",
"882 943 LINE",
"682 943 LINE",
"718 1139 LINE SMOOTH",
"736 1236 OFFCURVE",
"776 1294 OFFCURVE",
"891 1294 CURVE SMOOTH",
"931 1294 OFFCURVE",
"967 1285 OFFCURVE",
"999.999 1272 CURVE",
"1008 1417 LINE",
"964 1428 OFFCURVE",
"915 1436 OFFCURVE",
"865 1436 CURVE SMOOTH",
"643 1436 OFFCURVE",
"560 1288 OFFCURVE",
"534 1094 CURVE SMOOTH",
"511 943 LINE",
"342 943 LINE",
"332 803 LINE",
"487 803 LINE",
"436 538 OFFCURVE",
"397 260 OFFCURVE",
"334 7 CURVE SMOOTH",
"312 -84 OFFCURVE",
"275 -194 OFFCURVE",
"163 -194 CURVE SMOOTH",
"138 -194 OFFCURVE",
"112 -189 OFFCURVE",
"85 -178 CURVE",
"73 -316 LINE"
);
}
);
width = 1190;
}
);
unicode = 0192;
},
{
glyphname = approxequal;
layers = (
{
layerId = "E08CDE4C-5D6C-43D8-8149-5F9E51F0B944";
name = Bold;
paths = (
{
closed = 1;
nodes = (
"268 261 LINE",
"294 349 OFFCURVE",
"342 426 OFFCURVE",
"449 426 CURVE SMOOTH",
"477 426 OFFCURVE",
"506 420 OFFCURVE",
"536 407 CURVE SMOOTH",
"588 385 OFFCURVE",
"657 343 OFFCURVE",
"707 317 CURVE SMOOTH",
"762 289 OFFCURVE",
"819 262 OFFCURVE",
"898 262 CURVE SMOOTH",
"1072 262 OFFCURVE",
"1154 375 OFFCURVE",
"1187 518 CURVE",
"1077 546 LINE",
"1046 463 OFFCURVE",
"1004 380 OFFCURVE",
"904 380 CURVE SMOOTH",
"875 380 OFFCURVE",
"844 389 OFFCURVE",
"810 406 CURVE SMOOTH",
"776 423 OFFCURVE",
"740 442 OFFCURVE",
"702 463 CURVE SMOOTH",
"635 500 OFFCURVE",
"550 546 OFFCURVE",
"452 546 CURVE SMOOTH",
"283 546 OFFCURVE",
"189 433 OFFCURVE",
"154 289 CURVE"
);
},
{
closed = 1;
nodes = (
"267 634 LINE",
"293 721 OFFCURVE",
"340 799 OFFCURVE",
"446 799 CURVE SMOOTH",
"474 799 OFFCURVE",
"503 793 OFFCURVE",
"532 780 CURVE SMOOTH",
"584 757 OFFCURVE",
"653 715 OFFCURVE",
"704 689 CURVE SMOOTH",
"761 660 OFFCURVE",
"816 634 OFFCURVE",
"896 634 CURVE SMOOTH",
"1069 634 OFFCURVE",
"1155 745 OFFCURVE",
"1185 890 CURVE",
"1075 918 LINE",
"1045 832 OFFCURVE",
"1003 752 OFFCURVE",
"902 752 CURVE SMOOTH",
"875 752 OFFCURVE",
"846 759 OFFCURVE",
"814 772 CURVE SMOOTH",
"706 816 OFFCURVE",
"597 917 OFFCURVE",
"450 917 CURVE SMOOTH",
"279 917 OFFCURVE",
"185 808 OFFCURVE",
"152 661 CURVE"
);
}
);
width = 1351;
}
);
unicode = 2248;
},
{
glyphname = Delta;
layers = (
{
layerId = "E08CDE4C-5D6C-43D8-8149-5F9E51F0B944";
name = Bold;
paths = (
{
closed = 1;
nodes = (
"40 0 LINE",
"1263 0 LINE",
"1263 80 LINE",
"743 1429 LINE",
"561 1429 LINE",
"40 80 LINE"
);
},
{
closed = 1;
nodes = (
"269 162 LINE",
"615 1111 LINE",
"647 1218 LINE",
"681 1111 LINE",
"1033 162 LINE"
);
}
);
width = 1314;
}
);
unicode = 0394;
},
{
glyphname = guillemotleft;
layers = (
{
layerId = "E08CDE4C-5D6C-43D8-8149-5F9E51F0B944";
name = Bold;
paths = (
{
closed = 1;
nodes = (
"515 171 LINE",
"672 171 LINE",
"416 541 LINE",
"681 914 LINE",
"521 914 LINE",
"246 541 LINE"
);
},
{
closed = 1;
nodes = (
"885 171 LINE",
"1042 171 LINE",
"786 541 LINE",
"1049 914 LINE",
"890 914 LINE",
"616 541 LINE"
);
}
);
width = 1156;
}
);
unicode = 00AB;
},
{
glyphname = guillemotright;
layers = (
{
layerId = "E08CDE4C-5D6C-43D8-8149-5F9E51F0B944";
name = Bold;
paths = (
{
closed = 1;
nodes = (
"165 171 LINE",
"325 171 LINE",
"600 542 LINE",
"330 914 LINE",
"172 914 LINE",
"430 542 LINE"
);
},
{
closed = 1;
nodes = (
"563 171 LINE",
"720 171 LINE",
"995.999 542 LINE",
"726 914 LINE",
"570 914 LINE",
"824 542 LINE"
);
}
);
width = 1156;
}
);
unicode = 00BB;
},
{
glyphname = ellipsis;
layers = (
{
layerId = "E08CDE4C-5D6C-43D8-8149-5F9E51F0B944";
name = Bold;
paths = (
{
closed = 1;
nodes = (
"159 -11 LINE",
"376 -11 LINE",
"376 199 LINE",
"159 199 LINE"
);
},
{
closed = 1;
nodes = (
"699 -11 LINE",
"916 -11 LINE",
"916 199 LINE",
"699 199 LINE"
);
},
{
closed = 1;
nodes = (
"1239 -11 LINE",
"1456 -11 LINE",
"1456 199 LINE",
"1239 199 LINE"
);
}
);
width = 1620;
}
);
unicode = 2026;
},
{
glyphname = Agrave;
layers = (
{
layerId = "E08CDE4C-5D6C-43D8-8149-5F9E51F0B944";
name = Bold;
paths = (
{
closed = 1;
nodes = (
"13 0 LINE",
"199 0 LINE",
"355 397 LINE",
"1053 397 LINE",
"1216 0 LINE",
"1407 0 LINE",
"802 1456 LINE",
"617 1456 LINE"
);
},
{
closed = 1;
nodes = (
"410 545 LINE",
"655 1149 LINE",
"670 1191 OFFCURVE",
"692 1252 OFFCURVE",
"707 1298 CURVE",
"721 1252 OFFCURVE",
"742 1192 OFFCURVE",
"760 1150 CURVE",
"993.999 545 LINE"
);
},
{
closed = 1;
nodes = (
"678 1602 LINE",
"807 1602 LINE",
"560 1922 LINE",
"346 1922 LINE"
);
}
);
width = 1425;
}
);
unicode = 00C0;
},
{
glyphname = Atilde;
layers = (
{
layerId = "E08CDE4C-5D6C-43D8-8149-5F9E51F0B944";
name = Bold;
paths = (
{
closed = 1;
nodes = (
"466 1843 OFFCURVE",
"401 1749 OFFCURVE",
"391 1633 CURVE",
"496 1633 LINE",
"503 1690 OFFCURVE",
"533 1718 OFFCURVE",
"587 1718 CURVE SMOOTH",
"682 1718 OFFCURVE",
"744 1650 OFFCURVE",
"840 1650 CURVE SMOOTH",
"964 1650 OFFCURVE",
"1022 1752 OFFCURVE",
"1035 1865 CURVE",
"927 1865 LINE",
"920 1814 OFFCURVE",
"893 1775 OFFCURVE",
"840 1775 CURVE SMOOTH",
"821 1775 OFFCURVE",
"801 1779 OFFCURVE",
"781 1786 CURVE SMOOTH",
"723 1807 OFFCURVE",
"666 1843 OFFCURVE",
"590 1843 CURVE SMOOTH"
);
},
{
closed = 1;
nodes = (
"13 0 LINE",
"199 0 LINE",
"355 397 LINE",
"1053 397 LINE",
"1216 0 LINE",
"1407 0 LINE",
"802 1456 LINE",
"617 1456 LINE"
);
},
{
closed = 1;
nodes = (
"410 545 LINE",
"655 1149 LINE",
"670 1191 OFFCURVE",
"692 1252 OFFCURVE",
"707 1298 CURVE",
"721 1252 OFFCURVE",
"742 1192 OFFCURVE",
"760 1150 CURVE",
"993.999 545 LINE"
);
}
);
width = 1425;
}
);
unicode = 00C3;
},
{
glyphname = Otilde;
layers = (
{
layerId = "E08CDE4C-5D6C-43D8-8149-5F9E51F0B944";
name = Bold;
paths = (
{
closed = 1;
nodes = (
"584 1843 OFFCURVE",
"519 1749 OFFCURVE",
"509 1633 CURVE",
"614 1633 LINE",
"621 1690 OFFCURVE",
"651 1718 OFFCURVE",
"705 1718 CURVE SMOOTH",
"800 1718 OFFCURVE",
"862 1650 OFFCURVE",
"958 1650 CURVE SMOOTH",
"1082 1650 OFFCURVE",
"1140 1752 OFFCURVE",
"1153 1865 CURVE",
"1045 1865 LINE",
"1038 1814 OFFCURVE",
"1011 1775 OFFCURVE",
"958 1775 CURVE SMOOTH",
"939 1775 OFFCURVE",
"919 1779 OFFCURVE",
"899 1786 CURVE SMOOTH",
"841 1807 OFFCURVE",
"784 1843 OFFCURVE",
"708 1843 CURVE SMOOTH"
);
},
{
closed = 1;
nodes = (
"1358 330 OFFCURVE",
"1106 123 OFFCURVE",
"834 123 CURVE SMOOTH",
"471 123 OFFCURVE",
"300 390 OFFCURVE",
"300 729 CURVE SMOOTH",
"300 1128 OFFCURVE",
"556 1334 OFFCURVE",
"834 1334 CURVE SMOOTH",
"1190 1334 OFFCURVE",
"1358 1068 OFFCURVE",
"1358 729 CURVE SMOOTH"
);
},
{
closed = 1;
nodes = (
"116 218 OFFCURVE",
"432 -22 OFFCURVE",
"834 -22 CURVE SMOOTH",
"1304 -22 OFFCURVE",
"1546 338 OFFCURVE",
"1546 730 CURVE SMOOTH",
"1546 1242 OFFCURVE",
"1233 1483 OFFCURVE",
"834 1483 CURVE SMOOTH",
"360 1483 OFFCURVE",
"116 1122 OFFCURVE",
"116 730 CURVE SMOOTH"
);
}
);
width = 1662;
}
);
unicode = 00D5;
},
{
glyphname = OE;
layers = (
{
anchors = (
{
name = top;
position = "{1050, 0}";
}
);
layerId = "E08CDE4C-5D6C-43D8-8149-5F9E51F0B944";
name = Bold;
paths = (
{
closed = 1;
nodes = (
"256 154 OFFCURVE",
"476 -23 OFFCURVE",
"829 -23 CURVE SMOOTH",
"969.999 -23 OFFCURVE",
"1070 32 OFFCURVE",
"1151 105 CURVE",
"1151 0 LINE",
"1984 0 LINE",
"1984 148 LINE",
"1323 148 LINE",
"1323 672 LINE",
"1916 672 LINE",
"1916 820 LINE",
"1323 820 LINE",
"1323 1308 LINE",
"1954 1308 LINE",
"1954 1456 LINE",
"1151 1456 LINE",
"1151 1381 LINE",
"1069 1439 OFFCURVE",
"967.999 1483 OFFCURVE",
"837 1483 CURVE SMOOTH",
"723 1483 OFFCURVE",
"621 1464 OFFCURVE",
"532 1426 CURVE SMOOTH",
"280 1320 OFFCURVE",
"114 1083 OFFCURVE",
"114 729 CURVE SMOOTH",
"114 614 OFFCURVE",
"130 511 OFFCURVE",
"163 418 CURVE SMOOTH"
);
},
{
closed = 1;
nodes = (
"1075 186 OFFCURVE",
"972.999 125 OFFCURVE",
"827 125 CURVE SMOOTH",
"740 125 OFFCURVE",
"663 141 OFFCURVE",
"597 172 CURVE SMOOTH",
"409 260 OFFCURVE",
"298 452 OFFCURVE",
"298 725 CURVE SMOOTH",
"298 901 OFFCURVE",
"352 1049 OFFCURVE",
"434 1151 CURVE SMOOTH",
"518 1256 OFFCURVE",
"646 1335 OFFCURVE",
"830 1335 CURVE SMOOTH",
"971.999 1335 OFFCURVE",
"1072 1288 OFFCURVE",
"1151 1219 CURVE",
"1151 265 LINE"
);
}
);
width = 2099;
}
);
unicode = 0152;
},
{
glyphname = oe;
layers = (
{
anchors = (
{
name = top;
position = "{985, 0}";
}
);
layerId = "E08CDE4C-5D6C-43D8-8149-5F9E51F0B944";
name = Bold;
paths = (
{
closed = 1;
nodes = (
"195 110 OFFCURVE",
"354 -28 OFFCURVE",
"610 -28 CURVE SMOOTH",
"821 -28 OFFCURVE",
"961 57 OFFCURVE",
"1022 209 CURVE",
"1082 62 OFFCURVE",
"1213 -28 OFFCURVE",
"1410 -28 CURVE SMOOTH",
"1616 -28 OFFCURVE",
"1757 63 OFFCURVE",
"1836 206 CURVE",
"1748 292 LINE",
"1685 192 OFFCURVE",
"1574 109 OFFCURVE",
"1421 109 CURVE SMOOTH",
"1371 109 OFFCURVE",
"1328 118 OFFCURVE",
"1290 135 CURVE SMOOTH",
"1181 185 OFFCURVE",
"1117 296 OFFCURVE",
"1113 450 CURVE SMOOTH",
"1113 470 LINE",
"1868 472 LINE",
"1868 525 LINE SMOOTH",
"1868 835 OFFCURVE",
"1726 1053 OFFCURVE",
"1417 1053 CURVE SMOOTH",
"1216 1053 OFFCURVE",
"1095 963 OFFCURVE",
"1027 821 CURVE",
"952 964 OFFCURVE",
"830 1053 OFFCURVE",
"620 1053 CURVE SMOOTH",
"536 1053 OFFCURVE",
"462 1039 OFFCURVE",
"396 1010 CURVE SMOOTH",
"217 932 OFFCURVE",
"92 761 OFFCURVE",
"92 509 CURVE SMOOTH",
"92 435 OFFCURVE",
"104 365 OFFCURVE",
"127 300 CURVE SMOOTH"
);
},
{
closed = 1;
nodes = (
"945 287 OFFCURVE",
"845 109 OFFCURVE",
"620 109 CURVE SMOOTH",
"559 109 OFFCURVE",
"506 120 OFFCURVE",
"462 141 CURVE SMOOTH",
"338 200 OFFCURVE",
"265 327 OFFCURVE",
"265 507 CURVE SMOOTH",
"265 562 OFFCURVE",
"273 614 OFFCURVE",
"288 663 CURVE SMOOTH",
"330 802 OFFCURVE",
"433 917 OFFCURVE",
"612 917 CURVE SMOOTH",
"846 917 OFFCURVE",
"945 745 OFFCURVE",
"945 511 CURVE SMOOTH"
);
},
{
closed = 1;
nodes = (
"1113 609 LINE",
"1116 649 OFFCURVE",
"1125 688 OFFCURVE",
"1140 725 CURVE SMOOTH",
"1183 830 OFFCURVE",
"1277 917 OFFCURVE",
"1423 917 CURVE SMOOTH",
"1607 917 OFFCURVE",
"1695 793 OFFCURVE",
"1695 609 CURVE"
);
}
);
width = 1970;
}
);
unicode = 0153;
},
{
glyphname = endash;
layers = (
{
layerId = "E08CDE4C-5D6C-43D8-8149-5F9E51F0B944";
name = Bold;
paths = (
{
closed = 1;
nodes = (
"-6 489 LINE",
"1084 489 LINE",
"1084 626 LINE",
"-6 626 LINE"
);
}
);
width = 1085;
}
);
unicode = 2013;
},
{
glyphname = emdash;
layers = (
{
layerId = "E08CDE4C-5D6C-43D8-8149-5F9E51F0B944";
name = Bold;
paths = (
{
closed = 1;
nodes = (
"-3 489 LINE",
"2160 489 LINE",
"2160 626 LINE",
"-3 626 LINE"
);
}
);
width = 2171;
}
);
unicode = 2014;
},
{
glyphname = quotedblleft;
layers = (
{
layerId = "E08CDE4C-5D6C-43D8-8149-5F9E51F0B944";
name = Bold;
paths = (
{
closed = 1;
nodes = (
"179 1023 LINE",
"361 1023 LINE",
"466 1463 LINE",
"333 1463 LINE"
);
},
{
closed = 1;
nodes = (
"528 1023 LINE",
"711 1023 LINE",
"815 1463 LINE",
"682 1463 LINE"
);
}
);
width = 1024;
}
);
unicode = 201C;
},
{
glyphname = quotedblright;
layers = (
{
layerId = "E08CDE4C-5D6C-43D8-8149-5F9E51F0B944";
name = Bold;
paths = (
{
closed = 1;
nodes = (
"208 1023 LINE",
"341 1023 LINE",
"494 1463 LINE",
"312 1463 LINE"
);
},
{
closed = 1;
nodes = (
"534 1023 LINE",
"667 1023 LINE",
"821 1463 LINE",
"639 1463 LINE"
);
}
);
width = 1024;
}
);
unicode = 201D;
},
{
glyphname = quoteleft;
layers = (
{
layerId = "E08CDE4C-5D6C-43D8-8149-5F9E51F0B944";
name = Bold;
paths = (
{
closed = 1;
nodes = (
"130 1023 LINE",
"312 1023 LINE",
"416 1463 LINE",
"284 1463 LINE"
);
}
);
width = 553;
}
);
unicode = 2018;
},
{
glyphname = quoteright;
layers = (
{
layerId = "E08CDE4C-5D6C-43D8-8149-5F9E51F0B944";
name = Bold;
paths = (
{
closed = 1;
nodes = (
"140 1023 LINE",
"272 1023 LINE",
"426 1463 LINE",
"245 1463 LINE"
);
}
);
width = 553;
}
);
unicode = 2019;
},
{
glyphname = divide;
layers = (
{
layerId = "E08CDE4C-5D6C-43D8-8149-5F9E51F0B944";
name = Bold;
paths = (
{
closed = 1;
nodes = (
"619 21 LINE",
"836 21 LINE",
"836 231 LINE",
"619 231 LINE"
);
},
{
closed = 1;
nodes = (
"198 485 LINE",
"1246 485 LINE",
"1246 624 LINE",
"198 624 LINE"
);
},
{
closed = 1;
nodes = (
"619 873 LINE",
"836 873 LINE",
"836 1083 LINE",
"619 1083 LINE"
);
}
);
width = 1458;
}
);
unicode = 00F7;
},
{
glyphname = lozenge;
layers = (
{
layerId = "E08CDE4C-5D6C-43D8-8149-5F9E51F0B944";
name = Bold;
paths = (
{
closed = 1;
nodes = (
"562 -45 LINE",
"668 -45 LINE",
"1130 712 LINE",
"677 1470 LINE",
"570 1470 LINE",
"112 711 LINE"
);
},
{
closed = 1;
nodes = (
"858 506 OFFCURVE",
"731 307 OFFCURVE",
"615 97.9999 CURVE",
"500 306 OFFCURVE",
"379 508 OFFCURVE",
"261 713 CURVE",
"382 917 OFFCURVE",
"510 1114 OFFCURVE",
"625 1324 CURVE",
"739 1116 OFFCURVE",
"861 916 OFFCURVE",
"978.999 711 CURVE"
);
}
);
width = 1248;
}
);
unicode = 25CA;
},
{
glyphname = ydieresis;
layers = (
{
layerId = "E08CDE4C-5D6C-43D8-8149-5F9E51F0B944";
name = Bold;
paths = (
{
closed = 1;
nodes = (
"290 -436 OFFCURVE",
"428 -464 OFFCURVE",
"534 -464 CURVE SMOOTH",
"798 -464 OFFCURVE",
"1033 -286 OFFCURVE",
"1033 67 CURVE SMOOTH",
"1033 1026 LINE",
"869 1026 LINE",
"869 496 LINE SMOOTH",
"869 308 OFFCURVE",
"756 116 OFFCURVE",
"568 116 CURVE SMOOTH",
"431 116 OFFCURVE",
"318 216 OFFCURVE",
"318 398 CURVE SMOOTH",
"321 644 LINE SMOOTH",
"321 923 OFFCURVE",
"282 1026 OFFCURVE",
"282 1026 CURVE",
"117 999.999 LINE",
"117 999.999 OFFCURVE",
"156 884 OFFCURVE",
"156 627 CURVE SMOOTH",
"153 399 LINE SMOOTH",
"145 172 OFFCURVE",
"286 -22 OFFCURVE",
"543 -22 CURVE SMOOTH",
"646 -22 OFFCURVE",
"799 23 OFFCURVE",
"869 145 CURVE",
"869 46 LINE SMOOTH",
"869 -159 OFFCURVE",
"739 -327 OFFCURVE",
"520 -327 CURVE SMOOTH",
"440 -327 OFFCURVE",
"317 -300 OFFCURVE",
"217 -250 CURVE",
"198 -403 LINE"
);
},
{
closed = 1;
nodes = (
"352 1173 LINE",
"516 1173 LINE",
"516 1336 LINE",
"352 1336 LINE"
);
},
{
closed = 1;
nodes = (
"684 1173 LINE",
"848 1173 LINE",
"848 1336 LINE",
"684 1336 LINE"
);
}
);
width = 1186;
}
);
unicode = 00FF;
},
{
glyphname = Ydieresis;
layers = (
{
layerId = "E08CDE4C-5D6C-43D8-8149-5F9E51F0B944";
name = Bold;
paths = (
{
closed = 1;
nodes = (
"543 0 LINE",
"715 0 LINE",
"715 585 LINE",
"1258 1456 LINE",
"1067 1456 LINE",
"632 727 LINE",
"201 1456 LINE",
"9.99999 1456 LINE",
"543 582 LINE"
);
},
{
closed = 1;
nodes = (
"385 1613 LINE",
"549 1613 LINE",
"549 1776 LINE",
"385 1776 LINE"
);
},
{
closed = 1;
nodes = (
"717 1613 LINE",
"881 1613 LINE",
"881 1776 LINE",
"717 1776 LINE"
);
}
);
width = 1266;
}
);
unicode = 0178;
},
{
glyphname = fraction;
layers = (
{
layerId = "E08CDE4C-5D6C-43D8-8149-5F9E51F0B944";
name = Bold;
paths = (
{
closed = 1;
nodes = (
"-337 0 LINE",
"-186 0 LINE",
"717 1436 LINE",
"568 1436 LINE"
);
}
);
width = 368;
}
);
unicode = 2044;
},
{
glyphname = currency;
layers = (
{
layerId = "E08CDE4C-5D6C-43D8-8149-5F9E51F0B944";
name = Bold;
paths = (
{
closed = 1;
nodes = (
"157 195 LINE",
"344 389 LINE",
"311 429 LINE",
"121 232 LINE"
);
},
{
closed = 1;
nodes = (
"301 877 LINE",
"342 913 LINE",
"145 1104 LINE",
"106 1065 LINE"
);
},
{
closed = 1;
nodes = (
"861 482 OFFCURVE",
"733 351 OFFCURVE",
"564 351 CURVE SMOOTH",
"395 351 OFFCURVE",
"263 489 OFFCURVE",
"263 658 CURVE SMOOTH",
"263 827 OFFCURVE",
"403 968.999 OFFCURVE",
"572 965 CURVE SMOOTH",
"740 961 OFFCURVE",
"869 820 OFFCURVE",
"865 651 CURVE SMOOTH"
);
},
{
closed = 1;
nodes = (
"175 448 OFFCURVE",
"353 274 OFFCURVE",
"566 274 CURVE SMOOTH",
"779 274 OFFCURVE",
"952 439 OFFCURVE",
"957 651 CURVE SMOOTH",
"962 864 OFFCURVE",
"789 1043 OFFCURVE",
"576 1048 CURVE SMOOTH",
"363 1053 OFFCURVE",
"175 874 OFFCURVE",
"175 661 CURVE SMOOTH"
);
},
{
closed = 1;
nodes = (
"993.999 210 LINE",
"1031 246 LINE",
"836 434 LINE",
"800 397 LINE"
);
},
{
closed = 1;
nodes = (
"828 887 LINE",
"1016 1081 LINE",
"975.999 1120 LINE",
"788 924 LINE"
);
}
);
width = 1238;
}
);
unicode = 00A4;
},
{
glyphname = guilsinglleft;
layers = (
{
layerId = "E08CDE4C-5D6C-43D8-8149-5F9E51F0B944";
name = Bold;
paths = (
{
closed = 1;
nodes = (
"374 171 LINE",
"530 171 LINE",
"275 541 LINE",
"538 914 LINE",
"379 914 LINE",
"105 541 LINE"
);
}
);
width = 642;
}
);
unicode = 2039;
},
{
glyphname = guilsinglright;
layers = (
{
layerId = "E08CDE4C-5D6C-43D8-8149-5F9E51F0B944";
name = Bold;
paths = (
{
closed = 1;
nodes = (
"103 171 LINE",
"260 171 LINE",
"537 542 LINE",
"266 914 LINE",
"111 914 LINE",
"365 542 LINE"
);
}
);
width = 642;
}
);
unicode = 203A;
},
{
glyphname = daggerdbl;
layers = (
{
layerId = "E08CDE4C-5D6C-43D8-8149-5F9E51F0B944";
name = Bold;
paths = (
{
closed = 1;
nodes = (
"420 113 LINE",
"591 113 LINE",
"565 435 LINE",
"909 435 LINE",
"909 562 LINE",
"565 562 LINE",
"565 982.999 LINE",
"916 982.999 LINE",
"916 1115 LINE",
"572 1115 LINE",
"593 1451 LINE",
"422 1451 LINE",
"448 1115 LINE",
"104 1115 LINE",
"104 982.999 LINE",
"442 982.999 LINE",
"442 562 LINE",
"97.9999 562 LINE",
"97.9999 435 LINE",
"442 435 LINE"
);
}
);
width = 1022;
}
);
unicode = 2021;
},
{
glyphname = periodcentered;
layers = (
{
layerId = "E08CDE4C-5D6C-43D8-8149-5F9E51F0B944";
name = Bold;
paths = (
{
closed = 1;
nodes = (
"76 513 LINE",
"293 513 LINE",
"293 723 LINE",
"76 723 LINE"
);
}
);
width = 444;
}
);
unicode = 00B7;
},
{
glyphname = quotesinglbase;
layers = (
{
layerId = "E08CDE4C-5D6C-43D8-8149-5F9E51F0B944";
name = Bold;
paths = (
{
closed = 1;
nodes = (
"125 -238 LINE",
"258 -238 LINE",
"412 201 LINE",
"231 201 LINE"
);
}
);
width = 553;
}
);
unicode = 201A;
},
{
glyphname = quotedblbase;
layers = (
{
layerId = "E08CDE4C-5D6C-43D8-8149-5F9E51F0B944";
name = Bold;
paths = (
{
closed = 1;
nodes = (
"178 -238 LINE",
"312 -238 LINE",
"465 201 LINE",
"283 201 LINE"
);
},
{
closed = 1;
nodes = (
"537 -238 LINE",
"670 -238 LINE",
"824 201 LINE",
"641 201 LINE"
);
}
);
width = 1024;
}
);
unicode = 201E;
},
{
glyphname = perthousand;
layers = (
{
layerId = "E08CDE4C-5D6C-43D8-8149-5F9E51F0B944";
name = Bold;
paths = (
{
closed = 1;
nodes = (
"73 878 OFFCURVE",
"192 740 OFFCURVE",
"410 740 CURVE SMOOTH",
"463 740 OFFCURVE",
"511 748 OFFCURVE",
"553 766 CURVE SMOOTH",
"670 815 OFFCURVE",
"749 928 OFFCURVE",
"749 1092 CURVE SMOOTH",
"749 1312 OFFCURVE",
"632 1447 OFFCURVE",
"412 1447 CURVE SMOOTH",
"358 1447 OFFCURVE",
"310 1438 OFFCURVE",
"268 1420 CURVE SMOOTH",
"150 1371 OFFCURVE",
"73 1260 OFFCURVE",
"73 1095 CURVE SMOOTH"
);
},
{
closed = 1;
nodes = (
"835 111 OFFCURVE",
"954 -27 OFFCURVE",
"1172 -27 CURVE SMOOTH",
"1226 -27 OFFCURVE",
"1274 -18 OFFCURVE",
"1316 0 CURVE SMOOTH",
"1434 50 OFFCURVE",
"1511 160 OFFCURVE",
"1511 325 CURVE SMOOTH",
"1511 544 OFFCURVE",
"1395 681 OFFCURVE",
"1176 681 CURVE SMOOTH",
"1121 681 OFFCURVE",
"1072 672 OFFCURVE",
"1030 654 CURVE SMOOTH",
"911 604 OFFCURVE",
"835 494 OFFCURVE",
"835 328 CURVE SMOOTH"
);
},
{
closed = 1;
nodes = (
"1623 112 OFFCURVE",
"1742 -27 OFFCURVE",
"1959 -27 CURVE SMOOTH",
"2013 -27 OFFCURVE",
"2061 -18 OFFCURVE",
"2103 0 CURVE SMOOTH",
"2220 49 OFFCURVE",
"2299 161 OFFCURVE",
"2299 325 CURVE SMOOTH",
"2299 545 OFFCURVE",
"2184 681 OFFCURVE",
"1964 681 CURVE SMOOTH",
"1909 681 OFFCURVE",
"1860 672 OFFCURVE",
"1818 654 CURVE SMOOTH",
"1699 604 OFFCURVE",
"1623 494 OFFCURVE",
"1623 328 CURVE SMOOTH"
);
},
{
closed = 1;
nodes = (
"604 963 OFFCURVE",
"545 853 OFFCURVE",
"414 853 CURVE SMOOTH",
"278 853 OFFCURVE",
"219 960 OFFCURVE",
"219 1096 CURVE SMOOTH",
"219 1227 OFFCURVE",
"280 1335 OFFCURVE",
"411 1335 CURVE SMOOTH",
"545 1335 OFFCURVE",
"604 1228 OFFCURVE",
"604 1093 CURVE SMOOTH"
);
},
{
closed = 1;
nodes = (
"245 -21 LINE",
"398 -21 LINE",
"1332 1436 LINE",
"1183 1436 LINE"
);
},
{
closed = 1;
nodes = (
"1367 196 OFFCURVE",
"1306 86 OFFCURVE",
"1175 86 CURVE SMOOTH",
"1040 86 OFFCURVE",
"979.999 192 OFFCURVE",
"979.999 328 CURVE SMOOTH",
"979.999 461 OFFCURVE",
"1041 567 OFFCURVE",
"1174 567 CURVE SMOOTH",
"1309 567 OFFCURVE",
"1367 463 OFFCURVE",
"1367 327 CURVE SMOOTH"
);
},
{
closed = 1;
nodes = (
"2156 195 OFFCURVE",
"2095 86 OFFCURVE",
"1963 86 CURVE SMOOTH",
"1828 86 OFFCURVE",
"1768 192 OFFCURVE",
"1768 328 CURVE SMOOTH",
"1768 461 OFFCURVE",
"1829 567 OFFCURVE",
"1962 567 CURVE SMOOTH",
"2096 567 OFFCURVE",
"2156 461 OFFCURVE",
"2156 327 CURVE SMOOTH"
);
}
);
width = 2386;
}
);
unicode = 2030;
},
{
glyphname = Acircumflex;
layers = (
{
layerId = "E08CDE4C-5D6C-43D8-8149-5F9E51F0B944";
name = Bold;
paths = (
{
closed = 1;
nodes = (
"13 0 LINE",
"199 0 LINE",
"355 397 LINE",
"1053 397 LINE",
"1216 0 LINE",
"1407 0 LINE",
"802 1456 LINE",
"617 1456 LINE"
);
},
{
closed = 1;
nodes = (
"406 1600 LINE",
"532 1600 LINE",
"710 1816 LINE",
"888 1600 LINE",
"1020 1600 LINE",
"791 1924 LINE",
"634 1924 LINE"
);
},
{
closed = 1;
nodes = (
"410 545 LINE",
"655 1149 LINE",
"670 1191 OFFCURVE",
"692 1252 OFFCURVE",
"707 1298 CURVE",
"721 1252 OFFCURVE",
"742 1192 OFFCURVE",
"760 1150 CURVE",
"993.999 545 LINE"
);
}
);
width = 1425;
}
);
unicode = 00C2;
},
{
glyphname = Ecircumflex;
layers = (
{
layerId = "E08CDE4C-5D6C-43D8-8149-5F9E51F0B944";
name = Bold;
paths = (
{
closed = 1;
nodes = (
"200 0 LINE",
"1117 0 LINE",
"1117 148 LINE",
"372 148 LINE",
"372 672 LINE",
"1029 672 LINE",
"1029 820 LINE",
"372 820 LINE",
"372 1308 LINE",
"1067 1308 LINE",
"1067 1456 LINE",
"200 1456 LINE"
);
},
{
closed = 1;
nodes = (
"362 1600 LINE",
"488 1600 LINE",
"666 1816 LINE",
"844 1600 LINE",
"975.999 1600 LINE",
"747 1924 LINE",
"590 1924 LINE"
);
}
);
width = 1213;
}
);
unicode = 00CA;
},
{
glyphname = Aacute;
layers = (
{
layerId = "E08CDE4C-5D6C-43D8-8149-5F9E51F0B944";
name = Bold;
paths = (
{
closed = 1;
nodes = (
"13 0 LINE",
"199 0 LINE",
"355 397 LINE",
"1053 397 LINE",
"1216 0 LINE",
"1407 0 LINE",
"802 1456 LINE",
"617 1456 LINE"
);
},
{
closed = 1;
nodes = (
"410 545 LINE",
"655 1149 LINE",
"670 1191 OFFCURVE",
"692 1252 OFFCURVE",
"707 1298 CURVE",
"721 1252 OFFCURVE",
"742 1192 OFFCURVE",
"760 1150 CURVE",
"993.999 545 LINE"
);
},
{
closed = 1;
nodes = (
"632 1602 LINE",
"762 1602 LINE",
"1070 1922 LINE",
"858 1922 LINE"
);
}
);
width = 1425;
}
);
unicode = 00C1;
},
{
glyphname = Edieresis;
layers = (
{
layerId = "E08CDE4C-5D6C-43D8-8149-5F9E51F0B944";
name = Bold;
paths = (
{
closed = 1;
nodes = (
"200 0 LINE",
"1117 0 LINE",
"1117 148 LINE",
"372 148 LINE",
"372 672 LINE",
"1029 672 LINE",
"1029 820 LINE",
"372 820 LINE",
"372 1308 LINE",
"1067 1308 LINE",
"1067 1456 LINE",
"200 1456 LINE"
);
},
{
closed = 1;
nodes = (
"421 1613 LINE",
"585 1613 LINE",
"585 1776 LINE",
"421 1776 LINE"
);
},
{
closed = 1;
nodes = (
"753 1613 LINE",
"917 1613 LINE",
"917 1776 LINE",
"753 1776 LINE"
);
}
);
width = 1213;
}
);
unicode = 00CB;
},
{
glyphname = Egrave;
layers = (
{
layerId = "E08CDE4C-5D6C-43D8-8149-5F9E51F0B944";
name = Bold;
paths = (
{
closed = 1;
nodes = (
"200 0 LINE",
"1117 0 LINE",
"1117 148 LINE",
"372 148 LINE",
"372 672 LINE",
"1029 672 LINE",
"1029 820 LINE",
"372 820 LINE",
"372 1308 LINE",
"1067 1308 LINE",
"1067 1456 LINE",
"200 1456 LINE"
);
},
{
closed = 1;
nodes = (
"634 1602 LINE",
"763 1602 LINE",
"516 1922 LINE",
"302 1922 LINE"
);
}
);
width = 1213;
}
);
unicode = 00C8;
},
{
glyphname = Iacute;
layers = (
{
layerId = "E08CDE4C-5D6C-43D8-8149-5F9E51F0B944";
name = Bold;
paths = (
{
closed = 1;
nodes = (
"210 0 LINE",
"382 0 LINE",
"382 1456 LINE",
"210 1456 LINE"
);
},
{
closed = 1;
nodes = (
"215 1602 LINE",
"345 1602 LINE",
"653 1922 LINE",
"441 1922 LINE"
);
}
);
width = 591;
}
);
unicode = 00CD;
},
{
glyphname = Icircumflex;
layers = (
{
layerId = "E08CDE4C-5D6C-43D8-8149-5F9E51F0B944";
name = Bold;
paths = (
{
closed = 1;
nodes = (
"-11 1600 LINE",
"115 1600 LINE",
"293 1816 LINE",
"471 1600 LINE",
"603 1600 LINE",
"374 1924 LINE",
"217 1924 LINE"
);
},
{
closed = 1;
nodes = (
"210 0 LINE",
"382 0 LINE",
"382 1456 LINE",
"210 1456 LINE"
);
}
);
width = 591;
}
);
unicode = 00CE;
},
{
glyphname = Idieresis;
layers = (
{
layerId = "E08CDE4C-5D6C-43D8-8149-5F9E51F0B944";
name = Bold;
paths = (
{
closed = 1;
nodes = (
"48 1613 LINE",
"212 1613 LINE",
"212 1776 LINE",
"48 1776 LINE"
);
},
{
closed = 1;
nodes = (
"210 0 LINE",
"382 0 LINE",
"382 1456 LINE",
"210 1456 LINE"
);
},
{
closed = 1;
nodes = (
"380 1613 LINE",
"544 1613 LINE",
"544 1776 LINE",
"380 1776 LINE"
);
}
);
width = 591;
}
);
unicode = 00CF;
},
{
glyphname = Igrave;
layers = (
{
layerId = "E08CDE4C-5D6C-43D8-8149-5F9E51F0B944";
name = Bold;
paths = (
{
closed = 1;
nodes = (
"261 1602 LINE",
"390 1602 LINE",
"143 1922 LINE",
"-71 1922 LINE"
);
},
{
closed = 1;
nodes = (
"210 0 LINE",
"382 0 LINE",
"382 1456 LINE",
"210 1456 LINE"
);
}
);
width = 591;
}
);
unicode = 00CC;
},
{
glyphname = Oacute;
layers = (
{
layerId = "E08CDE4C-5D6C-43D8-8149-5F9E51F0B944";
name = Bold;
paths = (
{
closed = 1;
nodes = (
"1358 330 OFFCURVE",
"1106 123 OFFCURVE",
"834 123 CURVE SMOOTH",
"471 123 OFFCURVE",
"300 390 OFFCURVE",
"300 729 CURVE SMOOTH",
"300 1128 OFFCURVE",
"556 1334 OFFCURVE",
"834 1334 CURVE SMOOTH",
"1190 1334 OFFCURVE",
"1358 1068 OFFCURVE",
"1358 729 CURVE SMOOTH"
);
},
{
closed = 1;
nodes = (
"116 218 OFFCURVE",
"432 -22 OFFCURVE",
"834 -22 CURVE SMOOTH",
"1304 -22 OFFCURVE",
"1546 338 OFFCURVE",
"1546 730 CURVE SMOOTH",
"1546 1242 OFFCURVE",
"1233 1483 OFFCURVE",
"834 1483 CURVE SMOOTH",
"360 1483 OFFCURVE",
"116 1122 OFFCURVE",
"116 730 CURVE SMOOTH"
);
},
{
closed = 1;
nodes = (
"750 1602 LINE",
"880 1602 LINE",
"1188 1922 LINE",
"975.999 1922 LINE"
);
}
);
width = 1662;
}
);
unicode = 00D3;
},
{
glyphname = Ocircumflex;
layers = (
{
layerId = "E08CDE4C-5D6C-43D8-8149-5F9E51F0B944";
name = Bold;
paths = (
{
closed = 1;
nodes = (
"524 1600 LINE",
"650 1600 LINE",
"828 1816 LINE",
"1006 1600 LINE",
"1138 1600 LINE",
"909 1924 LINE",
"752 1924 LINE"
);
},
{
closed = 1;
nodes = (
"1358 330 OFFCURVE",
"1106 123 OFFCURVE",
"834 123 CURVE SMOOTH",
"471 123 OFFCURVE",
"300 390 OFFCURVE",
"300 729 CURVE SMOOTH",
"300 1128 OFFCURVE",
"556 1334 OFFCURVE",
"834 1334 CURVE SMOOTH",
"1190 1334 OFFCURVE",
"1358 1068 OFFCURVE",
"1358 729 CURVE SMOOTH"
);
},
{
closed = 1;
nodes = (
"116 218 OFFCURVE",
"432 -22 OFFCURVE",
"834 -22 CURVE SMOOTH",
"1304 -22 OFFCURVE",
"1546 338 OFFCURVE",
"1546 730 CURVE SMOOTH",
"1546 1242 OFFCURVE",
"1233 1483 OFFCURVE",
"834 1483 CURVE SMOOTH",
"360 1483 OFFCURVE",
"116 1122 OFFCURVE",
"116 730 CURVE SMOOTH"
);
}
);
width = 1662;
}
);
unicode = 00D4;
},
{
glyphname = Ograve;
layers = (
{
layerId = "E08CDE4C-5D6C-43D8-8149-5F9E51F0B944";
name = Bold;
paths = (
{
closed = 1;
nodes = (
"796 1602 LINE",
"925 1602 LINE",
"678 1922 LINE",
"464 1922 LINE"
);
},
{
closed = 1;
nodes = (
"1358 330 OFFCURVE",
"1106 123 OFFCURVE",
"834 123 CURVE SMOOTH",
"471 123 OFFCURVE",
"300 390 OFFCURVE",
"300 729 CURVE SMOOTH",
"300 1128 OFFCURVE",
"556 1334 OFFCURVE",
"834 1334 CURVE SMOOTH",
"1190 1334 OFFCURVE",
"1358 1068 OFFCURVE",
"1358 729 CURVE SMOOTH"
);
},
{
closed = 1;
nodes = (
"116 218 OFFCURVE",
"432 -22 OFFCURVE",
"834 -22 CURVE SMOOTH",
"1304 -22 OFFCURVE",
"1546 338 OFFCURVE",
"1546 730 CURVE SMOOTH",
"1546 1242 OFFCURVE",
"1233 1483 OFFCURVE",
"834 1483 CURVE SMOOTH",
"360 1483 OFFCURVE",
"116 1122 OFFCURVE",
"116 730 CURVE SMOOTH"
);
}
);
width = 1662;
}
);
unicode = 00D2;
},
{
glyphname = Uacute;
layers = (
{
layerId = "E08CDE4C-5D6C-43D8-8149-5F9E51F0B944";
name = Bold;
paths = (
{
closed = 1;
nodes = (
"191 157 OFFCURVE",
"392 -22 OFFCURVE",
"776 -22 CURVE SMOOTH",
"1138 -22 OFFCURVE",
"1334 191 OFFCURVE",
"1336 551 CURVE SMOOTH",
"1336 1456 LINE",
"1165 1456 LINE",
"1165 539 LINE SMOOTH",
"1165 279 OFFCURVE",
"1026 123 OFFCURVE",
"774 123 CURVE SMOOTH",
"502 123 OFFCURVE",
"363 260 OFFCURVE",
"363 546 CURVE SMOOTH",
"363 1456 LINE",
"191 1456 LINE",
"191 541 LINE SMOOTH"
);
},
{
closed = 1;
nodes = (
"685 1602 LINE",
"815 1602 LINE",
"1123 1922 LINE",
"911 1922 LINE"
);
}
);
width = 1532;
}
);
unicode = 00DA;
},
{
glyphname = Ucircumflex;
layers = (
{
layerId = "E08CDE4C-5D6C-43D8-8149-5F9E51F0B944";
name = Bold;
paths = (
{
closed = 1;
nodes = (
"191 157 OFFCURVE",
"392 -22 OFFCURVE",
"776 -22 CURVE SMOOTH",
"1138 -22 OFFCURVE",
"1334 191 OFFCURVE",
"1336 551 CURVE SMOOTH",
"1336 1456 LINE",
"1165 1456 LINE",
"1165 539 LINE SMOOTH",
"1165 279 OFFCURVE",
"1026 123 OFFCURVE",
"774 123 CURVE SMOOTH",
"502 123 OFFCURVE",
"363 260 OFFCURVE",
"363 546 CURVE SMOOTH",
"363 1456 LINE",
"191 1456 LINE",
"191 541 LINE SMOOTH"
);
},
{
closed = 1;
nodes = (
"459 1600 LINE",
"585 1600 LINE",
"763 1816 LINE",
"941 1600 LINE",
"1073 1600 LINE",
"844 1924 LINE",
"687 1924 LINE"
);
}
);
width = 1532;
}
);
unicode = 00DB;
},
{
glyphname = Ugrave;
layers = (
{
layerId = "E08CDE4C-5D6C-43D8-8149-5F9E51F0B944";
name = Bold;
paths = (
{
closed = 1;
nodes = (
"191 157 OFFCURVE",
"392 -22 OFFCURVE",
"776 -22 CURVE SMOOTH",
"1138 -22 OFFCURVE",
"1334 191 OFFCURVE",
"1336 551 CURVE SMOOTH",
"1336 1456 LINE",
"1165 1456 LINE",
"1165 539 LINE SMOOTH",
"1165 279 OFFCURVE",
"1026 123 OFFCURVE",
"774 123 CURVE SMOOTH",
"502 123 OFFCURVE",
"363 260 OFFCURVE",
"363 546 CURVE SMOOTH",
"363 1456 LINE",
"191 1456 LINE",
"191 541 LINE SMOOTH"
);
},
{
closed = 1;
nodes = (
"731 1602 LINE",
"860 1602 LINE",
"613 1922 LINE",
"399 1922 LINE"
);
}
);
width = 1532;
}
);
unicode = 00D9;
},
{
glyphname = dotlessi;
lastChange = "2013-01-23 08:48:39 -0800";
layers = (
{
anchors = (
{
name = ogonek;
position = "{453, 10}";
},
{
name = top;
position = "{252, 0}";
}
);
layerId = "E08CDE4C-5D6C-43D8-8149-5F9E51F0B944";
name = Bold;
paths = (
{
closed = 1;
nodes = (
"105 100 OFFCURVE",
"231 -5 OFFCURVE",
"444 -5 CURVE SMOOTH",
"493 -5 OFFCURVE",
"555 8 OFFCURVE",
"610 30 CURVE",
"590 210 LINE",
"551 195 OFFCURVE",
"510 186 OFFCURVE",
"481 186 CURVE SMOOTH",
"406 186 OFFCURVE",
"361 248 OFFCURVE",
"361 352 CURVE SMOOTH",
"361 1026 LINE",
"105 1026 LINE",
"105 278 LINE SMOOTH"
);
}
);
width = 603;
}
);
unicode = 0131;
},
{
glyphname = circumflex;
lastChange = "2013-01-23 08:46:46 -0800";
layers = (
{
anchors = (
{
name = _top;
position = "{342, 0}";
}
);
layerId = "E08CDE4C-5D6C-43D8-8149-5F9E51F0B944";
name = Bold;
paths = (
{
closed = 1;
nodes = (
"15 1170 LINE",
"201 1170 LINE",
"342 1327 LINE",
"477 1170 LINE",
"669 1170 LINE",
"420 1494 LINE",
"263 1494 LINE"
);
}
);
width = 699;
}
);
unicode = 02C6;
},
{
glyphname = tilde;
layers = (
{
anchors = (
{
name = _top;
position = "{336, 0}";
}
);
layerId = "E08CDE4C-5D6C-43D8-8149-5F9E51F0B944";
name = Bold;
paths = (
{
closed = 1;
nodes = (
"89 1413 OFFCURVE",
"24 1319 OFFCURVE",
"14 1203 CURVE",
"119 1203 LINE",
"126 1260 OFFCURVE",
"156 1288 OFFCURVE",
"210 1288 CURVE SMOOTH",
"305 1288 OFFCURVE",
"367 1220 OFFCURVE",
"463 1220 CURVE SMOOTH",
"587 1220 OFFCURVE",
"645 1322 OFFCURVE",
"658 1435 CURVE",
"550 1435 LINE",
"543 1384 OFFCURVE",
"516 1345 OFFCURVE",
"463 1345 CURVE SMOOTH",
"444 1345 OFFCURVE",
"424 1349 OFFCURVE",
"404 1356 CURVE SMOOTH",
"346 1377 OFFCURVE",
"289 1413 OFFCURVE",
"213 1413 CURVE SMOOTH"
);
}
);
width = 663;
}
);
unicode = 02DC;
},
{
glyphname = macron;
layers = (
{
anchors = (
{
name = _top;
position = "{365, 0}";
}
);
layerId = "E08CDE4C-5D6C-43D8-8149-5F9E51F0B944";
name = Bold;
paths = (
{
closed = 1;
nodes = (
"79 1183 LINE",
"651 1183 LINE",
"651 1317 LINE",
"79 1317 LINE"
);
}
);
width = 728;
}
);
unicode = 00AF;
},
{
glyphname = breve;
layers = (
{
anchors = (
{
name = _top;
position = "{314, 0}";
}
);
layerId = "E08CDE4C-5D6C-43D8-8149-5F9E51F0B944";
name = Bold;
paths = (
{
closed = 1;
nodes = (
"45 1294 OFFCURVE",
"145 1218 OFFCURVE",
"316 1218 CURVE SMOOTH",
"482 1218 OFFCURVE",
"583 1300 OFFCURVE",
"596 1454 CURVE",
"510 1454 LINE",
"490 1370 OFFCURVE",
"411 1325 OFFCURVE",
"309 1325 CURVE SMOOTH",
"207 1325 OFFCURVE",
"134 1366 OFFCURVE",
"119 1454 CURVE",
"32 1454 LINE"
);
}
);
width = 629;
}
);
unicode = 02D8;
},
{
glyphname = dotaccent;
layers = (
{
anchors = (
{
name = _top;
position = "{264, 0}";
}
);
layerId = "E08CDE4C-5D6C-43D8-8149-5F9E51F0B944";
name = Bold;
paths = (
{
closed = 1;
nodes = (
"184 1246 LINE",
"344 1246 LINE",
"344 1409 LINE",
"184 1409 LINE"
);
}
);
width = 524;
}
);
unicode = 02D9;
},
{
glyphname = ring;
layers = (
{
anchors = (
{
name = _top;
position = "{300, 0}";
}
);
layerId = "E08CDE4C-5D6C-43D8-8149-5F9E51F0B944";
name = Bold;
paths = (
{
closed = 1;
nodes = (
"137 1199 OFFCURVE",
"206 1149 OFFCURVE",
"301 1149 CURVE SMOOTH",
"329 1149 OFFCURVE",
"356 1154 OFFCURVE",
"381 1164 CURVE SMOOTH",
"448 1190 OFFCURVE",
"510 1249 OFFCURVE",
"510 1340 CURVE SMOOTH",
"510 1366 OFFCURVE",
"505 1391 OFFCURVE",
"494 1414 CURVE SMOOTH",
"464 1480 OFFCURVE",
"395 1530 OFFCURVE",
"300 1530 CURVE SMOOTH",
"271 1530 OFFCURVE",
"243 1526 OFFCURVE",
"218 1516 CURVE SMOOTH",
"150 1490 OFFCURVE",
"90 1431 OFFCURVE",
"90 1339 CURVE SMOOTH",
"90 1312 OFFCURVE",
"94.9999 1287 OFFCURVE",
"106 1264 CURVE SMOOTH"
);
},
{
closed = 1;
nodes = (
"410 1280 OFFCURVE",
"359 1235 OFFCURVE",
"299 1235 CURVE SMOOTH",
"234 1235 OFFCURVE",
"189 1276 OFFCURVE",
"189 1340 CURVE SMOOTH",
"189 1400 OFFCURVE",
"239 1445 OFFCURVE",
"299 1445 CURVE SMOOTH",
"361 1445 OFFCURVE",
"410 1402 OFFCURVE",
"410 1340 CURVE SMOOTH"
);
}
);
width = 605;
}
);
unicode = 02DA;
},
{
glyphname = cedilla;
layers = (
{
anchors = (
{
name = _bottom;
position = "{260, 0}";
}
);
layerId = "E08CDE4C-5D6C-43D8-8149-5F9E51F0B944";
name = Bold;
paths = (
{
closed = 1;
nodes = (
"106 -385 OFFCURVE",
"167 -396 OFFCURVE",
"227 -396 CURVE SMOOTH",
"348 -396 OFFCURVE",
"468 -359 OFFCURVE",
"468 -239 CURVE SMOOTH",
"468 -131 OFFCURVE",
"372 -95 OFFCURVE",
"268 -90 CURVE",
"259 -90 LINE",
"277 17 LINE",
"180 17 LINE",
"147 -173 LINE",
"179 -171 LINE SMOOTH",
"190 -170 OFFCURVE",
"207 -168 OFFCURVE",
"216 -168 CURVE SMOOTH",
"276 -168 OFFCURVE",
"325 -182 OFFCURVE",
"325 -241 CURVE SMOOTH",
"325 -297 OFFCURVE",
"277 -313 OFFCURVE",
"211 -313 CURVE SMOOTH",
"157 -313 OFFCURVE",
"110 -301 OFFCURVE",
"60 -289 CURVE",
"52 -374 LINE"
);
}
);
width = 529;
}
);
unicode = 00B8;
},
{
glyphname = hungarumlaut;
layers = (
{
anchors = (
{
name = _top;
position = "{493.5, 0}";
}
);
layerId = "E08CDE4C-5D6C-43D8-8149-5F9E51F0B944";
name = Bold;
paths = (
{
closed = 1;
nodes = (
"162 1174 LINE",
"280 1174 LINE",
"555 1487 LINE",
"379 1487 LINE"
);
},
{
closed = 1;
nodes = (
"429 1174 LINE",
"549 1174 LINE",
"825 1487 LINE",
"649 1487 LINE"
);
}
);
width = 968;
}
);
unicode = 02DD;
},
{
glyphname = ogonek;
layers = (
{
anchors = (
{
name = _ogonek;
position = "{443, 10}";
}
);
layerId = "E08CDE4C-5D6C-43D8-8149-5F9E51F0B944";
name = Bold;
paths = (
{
closed = 1;
nodes = (
"98.9999 -357 OFFCURVE",
"172 -390 OFFCURVE",
"266 -390 CURVE SMOOTH",
"330 -390 OFFCURVE",
"397 -380 OFFCURVE",
"443 -361 CURVE",
"443 -250 LINE",
"397 -268 OFFCURVE",
"353 -281 OFFCURVE",
"289 -281 CURVE SMOOTH",
"238 -281 OFFCURVE",
"189 -250 OFFCURVE",
"189 -199 CURVE SMOOTH",
"189 -183 OFFCURVE",
"194 -167 OFFCURVE",
"204 -151 CURVE SMOOTH",
"246 -86 OFFCURVE",
"323 -42 OFFCURVE",
"392 0 CURVE",
"263 12 LINE",
"209 -14 OFFCURVE",
"155 -49 OFFCURVE",
"115 -89 CURVE SMOOTH",
"82 -122 OFFCURVE",
"48 -167 OFFCURVE",
"48 -225 CURVE SMOOTH",
"48 -252 OFFCURVE",
"54 -276 OFFCURVE",
"65 -296 CURVE SMOOTH"
);
}
);
width = 508;
}
);
unicode = 02DB;
},
{
glyphname = caron;
layers = (
{
anchors = (
{
name = _top;
position = "{345.5, 0}";
}
);
layerId = "E08CDE4C-5D6C-43D8-8149-5F9E51F0B944";
name = Bold;
paths = (
{
closed = 1;
nodes = (
"268 1170 LINE",
"424 1170 LINE",
"662 1493 LINE",
"508 1493 LINE",
"340 1278 LINE",
"176 1493 LINE",
"29 1493 LINE"
);
}
);
width = 699;
}
);
unicode = 02C7;
},
{
glyphname = kgreenlandic;
layers = (
{
layerId = "E08CDE4C-5D6C-43D8-8149-5F9E51F0B944";
name = Bold;
paths = (
{
closed = 1;
nodes = (
"178 0 LINE",
"343 0 LINE",
"343 471 LINE",
"853 0 LINE",
"1072 0 LINE",
"881 174 OFFCURVE",
"695 338 OFFCURVE",
"504 512 CURVE",
"1034 1026 LINE",
"809 1026 LINE",
"343 557 LINE",
"343 1026 LINE",
"178 1026 LINE"
);
}
);
width = 1082;
}
);
unicode = 0138;
},
{
glyphname = abreve;
layers = (
{
layerId = "E08CDE4C-5D6C-43D8-8149-5F9E51F0B944";
name = Bold;
paths = (
{
closed = 1;
nodes = (
"114 161 OFFCURVE",
"278 -22 OFFCURVE",
"519 -22 CURVE SMOOTH",
"641 -22 OFFCURVE",
"788 13 OFFCURVE",
"881 166 CURVE",
"908 46 OFFCURVE",
"1026 -4 OFFCURVE",
"1113 -4 CURVE",
"1147 139 LINE",
"1095 139 OFFCURVE",
"1022 170 OFFCURVE",
"1022 286 CURVE SMOOTH",
"1022 962 LINE",
"918 1024 OFFCURVE",
"795 1048 OFFCURVE",
"671 1048 CURVE SMOOTH",
"339 1048 OFFCURVE",
"114 806 OFFCURVE",
"114 438 CURVE SMOOTH"
);
},
{
closed = 1;
nodes = (
"374 1294 OFFCURVE",
"474 1218 OFFCURVE",
"645 1218 CURVE SMOOTH",
"811 1218 OFFCURVE",
"912 1300 OFFCURVE",
"925 1454 CURVE",
"839 1454 LINE",
"819 1370 OFFCURVE",
"740 1325 OFFCURVE",
"638 1325 CURVE SMOOTH",
"536 1325 OFFCURVE",
"463 1366 OFFCURVE",
"448 1454 CURVE",
"361 1454 LINE"
);
},
{
closed = 1;
nodes = (
"858 226 OFFCURVE",
"702 116 OFFCURVE",
"544 116 CURVE SMOOTH",
"388 116 OFFCURVE",
"284 249 OFFCURVE",
"284 448 CURVE SMOOTH",
"284 725 OFFCURVE",
"438 907 OFFCURVE",
"668 907 CURVE SMOOTH",
"724 907 OFFCURVE",
"803 899 OFFCURVE",
"858 872 CURVE",
"858 403 LINE SMOOTH"
);
}
);
width = 1218;
}
);
unicode = 0103;
},
{
glyphname = uni0210;
layers = (
{
layerId = "E08CDE4C-5D6C-43D8-8149-5F9E51F0B944";
name = Bold;
paths = (
{
closed = 1;
nodes = (
"200 0 LINE",
"372 0 LINE",
"372 652 LINE",
"642 652 LINE SMOOTH",
"838 652 OFFCURVE",
"888 564 OFFCURVE",
"941 419 CURVE SMOOTH",
"1094 0 LINE",
"1282 0 LINE",
"1119 410 LINE SMOOTH",
"1065 546 OFFCURVE",
"1020 670 OFFCURVE",
"884 715 CURVE",
"1050 758 OFFCURVE",
"1194 867 OFFCURVE",
"1194 1074 CURVE SMOOTH",
"1194 1410 OFFCURVE",
"891 1456 OFFCURVE",
"556 1456 CURVE SMOOTH",
"200 1456 LINE"
);
},
{
closed = 1;
nodes = (
"372 799 LINE",
"372 1308 LINE",
"649 1308 LINE SMOOTH",
"852 1308 OFFCURVE",
"1012 1261 OFFCURVE",
"1012 1058 CURVE SMOOTH",
"1012 859 OFFCURVE",
"835 799 OFFCURVE",
"638 799 CURVE SMOOTH"
);
},
{
closed = 1;
nodes = (
"497 1604 LINE",
"617 1604 LINE",
"397 1917 LINE",
"221 1917 LINE"
);
},
{
closed = 1;
nodes = (
"766 1604 LINE",
"884 1604 LINE",
"667 1917 LINE",
"491 1917 LINE"
);
}
);
width = 1372;
}
);
unicode = 0210;
},
{
glyphname = uni0237;
layers = (
{
anchors = (
{
name = top;
position = "{252, 0}";
}
);
layerId = "E08CDE4C-5D6C-43D8-8149-5F9E51F0B944";
name = Bold;
paths = (
{
closed = 1;
nodes = (
"-63 -425 OFFCURVE",
"-23 -429 OFFCURVE",
"21 -429 CURVE SMOOTH",
"67 -429 OFFCURVE",
"106 -422 OFFCURVE",
"140 -407 CURVE SMOOTH",
"296 -339 OFFCURVE",
"340 -150 OFFCURVE",
"340 73 CURVE SMOOTH",
"340 1026 LINE",
"175 1026 LINE",
"175 31 LINE SMOOTH",
"175 -146 OFFCURVE",
"138 -283 OFFCURVE",
"-18 -283 CURVE SMOOTH",
"-48 -283 OFFCURVE",
"-72 -278 OFFCURVE",
"-102 -273 CURVE",
"-101 -416 LINE"
);
}
);
width = 503;
}
);
unicode = 0237;
},
{
glyphname = uni020F;
layers = (
{
layerId = "E08CDE4C-5D6C-43D8-8149-5F9E51F0B944";
name = Bold;
paths = (
{
closed = 1;
nodes = (
"446 1454 OFFCURVE",
"346 1378 OFFCURVE",
"333 1218 CURVE",
"420 1218 LINE",
"435 1306 OFFCURVE",
"508 1347 OFFCURVE",
"610 1347 CURVE SMOOTH",
"712 1347 OFFCURVE",
"791 1302 OFFCURVE",
"811 1218 CURVE",
"897 1218 LINE",
"884 1372 OFFCURVE",
"783 1454 OFFCURVE",
"617 1454 CURVE SMOOTH"
);
},
{
closed = 1;
nodes = (
"969.999 297 OFFCURVE",
"859 116 OFFCURVE",
"620 116 CURVE SMOOTH",
"420 116 OFFCURVE",
"260 242 OFFCURVE",
"260 509 CURVE SMOOTH",
"260 727 OFFCURVE",
"375 907 OFFCURVE",
"619 907 CURVE SMOOTH",
"815 907 OFFCURVE",
"969.999 782 OFFCURVE",
"969.999 511 CURVE SMOOTH"
);
},
{
closed = 1;
nodes = (
"90 212 OFFCURVE",
"262 -22 OFFCURVE",
"620 -22 CURVE SMOOTH",
"905 -22 OFFCURVE",
"1140 142 OFFCURVE",
"1140 513 CURVE SMOOTH",
"1140 814 OFFCURVE",
"972.999 1048 OFFCURVE",
"619 1048 CURVE SMOOTH",
"331 1048 OFFCURVE",
"90 885 OFFCURVE",
"90 511 CURVE SMOOTH"
);
}
);
width = 1230;
}
);
unicode = 020F;
},
{
glyphname = uni020E;
layers = (
{
layerId = "E08CDE4C-5D6C-43D8-8149-5F9E51F0B944";
name = Bold;
paths = (
{
closed = 1;
nodes = (
"658 1884 OFFCURVE",
"558 1808 OFFCURVE",
"545 1648 CURVE",
"632 1648 LINE",
"647 1736 OFFCURVE",
"720 1777 OFFCURVE",
"822 1777 CURVE SMOOTH",
"924 1777 OFFCURVE",
"1003 1732 OFFCURVE",
"1023 1648 CURVE",
"1109 1648 LINE",
"1096 1802 OFFCURVE",
"994.999 1884 OFFCURVE",
"829 1884 CURVE SMOOTH"
);
},
{
closed = 1;
nodes = (
"1358 330 OFFCURVE",
"1106 123 OFFCURVE",
"834 123 CURVE SMOOTH",
"471 123 OFFCURVE",
"300 390 OFFCURVE",
"300 729 CURVE SMOOTH",
"300 1128 OFFCURVE",
"556 1334 OFFCURVE",
"834 1334 CURVE SMOOTH",
"1190 1334 OFFCURVE",
"1358 1068 OFFCURVE",
"1358 729 CURVE SMOOTH"
);
},
{
closed = 1;
nodes = (
"116 218 OFFCURVE",
"432 -22 OFFCURVE",
"834 -22 CURVE SMOOTH",
"1304 -22 OFFCURVE",
"1546 338 OFFCURVE",
"1546 730 CURVE SMOOTH",
"1546 1242 OFFCURVE",
"1233 1483 OFFCURVE",
"834 1483 CURVE SMOOTH",
"360 1483 OFFCURVE",
"116 1122 OFFCURVE",
"116 730 CURVE SMOOTH"
);
}
);
width = 1662;
}
);
unicode = 020E;
},
{
glyphname = uni020C;
layers = (
{
layerId = "E08CDE4C-5D6C-43D8-8149-5F9E51F0B944";
name = Bold;
paths = (
{
closed = 1;
nodes = (
"643 1604 LINE",
"763 1604 LINE",
"543 1917 LINE",
"367 1917 LINE"
);
},
{
closed = 1;
nodes = (
"1358 330 OFFCURVE",
"1106 123 OFFCURVE",
"834 123 CURVE SMOOTH",
"471 123 OFFCURVE",
"300 390 OFFCURVE",
"300 729 CURVE SMOOTH",
"300 1128 OFFCURVE",
"556 1334 OFFCURVE",
"834 1334 CURVE SMOOTH",
"1190 1334 OFFCURVE",
"1358 1068 OFFCURVE",
"1358 729 CURVE SMOOTH"
);
},
{
closed = 1;
nodes = (
"116 218 OFFCURVE",
"432 -22 OFFCURVE",
"834 -22 CURVE SMOOTH",
"1304 -22 OFFCURVE",
"1546 338 OFFCURVE",
"1546 730 CURVE SMOOTH",
"1546 1242 OFFCURVE",
"1233 1483 OFFCURVE",
"834 1483 CURVE SMOOTH",
"360 1483 OFFCURVE",
"116 1122 OFFCURVE",
"116 730 CURVE SMOOTH"
);
},
{
closed = 1;
nodes = (
"912 1604 LINE",
"1030 1604 LINE",
"813 1917 LINE",
"637 1917 LINE"
);
}
);
width = 1662;
}
);
unicode = 020C;
},
{
glyphname = uni020B;
layers = (
{
layerId = "E08CDE4C-5D6C-43D8-8149-5F9E51F0B944";
name = Bold;
paths = (
{
closed = 1;
nodes = (
"167 67 OFFCURVE",
"292 -5 OFFCURVE",
"434 -5 CURVE SMOOTH",
"481 -5 OFFCURVE",
"550 9.99999 OFFCURVE",
"600 30 CURVE",
"580 141 LINE",
"545 128 OFFCURVE",
"487 118 OFFCURVE",
"457 118 CURVE SMOOTH",
"389 118 OFFCURVE",
"332 143 OFFCURVE",
"332 283 CURVE SMOOTH",
"332 1026 LINE",
"167 1026 LINE",
"167 278 LINE SMOOTH"
);
},
{
closed = 1;
nodes = (
"79 1454 OFFCURVE",
"-21 1378 OFFCURVE",
"-34 1218 CURVE",
"53 1218 LINE",
"68 1306 OFFCURVE",
"141 1347 OFFCURVE",
"243 1347 CURVE SMOOTH",
"345 1347 OFFCURVE",
"424 1302 OFFCURVE",
"444 1218 CURVE",
"530 1218 LINE",
"517 1372 OFFCURVE",
"416 1454 OFFCURVE",
"250 1454 CURVE SMOOTH"
);
}
);
width = 503;
}
);
unicode = 020B;
},
{
glyphname = uni020A;
layers = (
{
layerId = "E08CDE4C-5D6C-43D8-8149-5F9E51F0B944";
name = Bold;
paths = (
{
closed = 1;
nodes = (
"123 1884 OFFCURVE",
"23 1808 OFFCURVE",
"9.99999 1648 CURVE",
"96.9999 1648 LINE",
"112 1736 OFFCURVE",
"185 1777 OFFCURVE",
"287 1777 CURVE SMOOTH",
"389 1777 OFFCURVE",
"468 1732 OFFCURVE",
"488 1648 CURVE",
"574 1648 LINE",
"561 1802 OFFCURVE",
"460 1884 OFFCURVE",
"294 1884 CURVE SMOOTH"
);
},
{
closed = 1;
nodes = (
"210 0 LINE",
"382 0 LINE",
"382 1456 LINE",
"210 1456 LINE"
);
}
);
width = 591;
}
);
unicode = 020A;
},
{
glyphname = u.alt;
layers = (
{
anchors = (
{
name = ogonek;
position = "{1093, 10}";
},
{
name = top;
position = "{608, 0}";
}
);
layerId = "E08CDE4C-5D6C-43D8-8149-5F9E51F0B944";
name = Bold;
paths = (
{
closed = 1;
nodes = (
"159 93.9999 OFFCURVE",
"336 -24 OFFCURVE",
"530 -24 CURVE SMOOTH",
"688 -24 OFFCURVE",
"807 38 OFFCURVE",
"889 155 CURVE",
"916 44 OFFCURVE",
"1014 -4 OFFCURVE",
"1111 -4 CURVE",
"1146 139 LINE",
"1094 139 OFFCURVE",
"1022 170 OFFCURVE",
"1022 286 CURVE SMOOTH",
"1022 1026 LINE",
"857 1026 LINE",
"857 418 LINE SMOOTH",
"857 222 OFFCURVE",
"699 118 OFFCURVE",
"555 118 CURVE SMOOTH",
"434 118 OFFCURVE",
"324 183 OFFCURVE",
"324 379 CURVE SMOOTH",
"324 595 LINE SMOOTH",
"324 911 OFFCURVE",
"285 1026 OFFCURVE",
"285 1026 CURVE",
"120 1026 LINE",
"120 1026 OFFCURVE",
"159 871 OFFCURVE",
"159 582 CURVE SMOOTH",
"159 379 LINE SMOOTH"
);
}
);
width = 1215;
}
);
},
{
glyphname = kcommaaccent;
layers = (
{
layerId = "E08CDE4C-5D6C-43D8-8149-5F9E51F0B944";
name = Bold;
paths = (
{
closed = 1;
nodes = (
"848 55 OFFCURVE",
"940 -26 OFFCURVE",
"1044 -45 CURVE",
"1113 79 LINE",
"1040 88 OFFCURVE",
"962 158 OFFCURVE",
"891 270 CURVE SMOOTH",
"694 580 LINE",
"980.999 975.999 LINE",
"832 1026 LINE",
"316 308 LINE",
"316 1526 LINE",
"152 1496 LINE",
"152 0 LINE",
"277 0 LINE",
"602 445 LINE",
"763 189 LINE SMOOTH"
);
},
{
closed = 1;
nodes = (
"440 -625 LINE",
"571 -625 LINE",
"734 -162 LINE",
"547 -162 LINE"
);
}
);
width = 1107;
}
);
unicode = 0137;
},
{
glyphname = zdotaccent;
layers = (
{
layerId = "E08CDE4C-5D6C-43D8-8149-5F9E51F0B944";
name = Bold;
paths = (
{
closed = 1;
nodes = (
"80 0 LINE",
"920 0 LINE",
"920 134 LINE",
"305 134 LINE",
"903 939 LINE",
"903 1026 LINE",
"106 1026 LINE",
"106 891 LINE",
"680 891 LINE",
"80 89 LINE"
);
},
{
closed = 1;
nodes = (
"430 1173 LINE",
"590 1173 LINE",
"590 1336 LINE",
"430 1336 LINE"
);
}
);
width = 978;
}
);
unicode = 017C;
},
{
glyphname = Scommaaccent;
layers = (
{
layerId = "E08CDE4C-5D6C-43D8-8149-5F9E51F0B944";
name = Bold;
paths = (
{
closed = 1;
nodes = (
"280 35 OFFCURVE",
"486 -22 OFFCURVE",
"664 -22 CURVE SMOOTH",
"989.999 -22 OFFCURVE",
"1135 166 OFFCURVE",
"1135 395 CURVE SMOOTH",
"1135 578 OFFCURVE",
"1052 709 OFFCURVE",
"676 817 CURVE SMOOTH",
"370 905 OFFCURVE",
"318 982.999 OFFCURVE",
"324 1120 CURVE SMOOTH",
"330 1262 OFFCURVE",
"441 1334 OFFCURVE",
"656 1334 CURVE SMOOTH",
"780 1334 OFFCURVE",
"921 1288 OFFCURVE",
"1033 1218 CURVE",
"1085 1359 LINE",
"930 1456 OFFCURVE",
"773 1483 OFFCURVE",
"636 1483 CURVE SMOOTH",
"344 1483 OFFCURVE",
"145 1339 OFFCURVE",
"141 1109 CURVE SMOOTH",
"137 902 OFFCURVE",
"224 769 OFFCURVE",
"566 671 CURVE SMOOTH",
"911 572 OFFCURVE",
"951 500 OFFCURVE",
"951 401 CURVE SMOOTH",
"951 230 OFFCURVE",
"855 123 OFFCURVE",
"649 123 CURVE SMOOTH",
"503 123 OFFCURVE",
"305 187 OFFCURVE",
"174 289 CURVE",
"146 123 LINE"
);
},
{
closed = 1;
nodes = (
"475 -625 LINE",
"606 -625 LINE",
"769 -162 LINE",
"582 -162 LINE"
);
}
);
width = 1244;
}
);
unicode = 0218;
},
{
glyphname = ccaron;
layers = (
{
layerId = "E08CDE4C-5D6C-43D8-8149-5F9E51F0B944";
name = Bold;
paths = (
{
closed = 1;
nodes = (
"90 222 OFFCURVE",
"274 -22 OFFCURVE",
"612 -22 CURVE SMOOTH",
"750 -22 OFFCURVE",
"864 20 OFFCURVE",
"988.999 117 CURVE",
"928 238 LINE",
"817 157 OFFCURVE",
"724 116 OFFCURVE",
"616 116 CURVE SMOOTH",
"427 116 OFFCURVE",
"260 259 OFFCURVE",
"260 508 CURVE SMOOTH",
"260 762 OFFCURVE",
"437 907 OFFCURVE",
"608 907 CURVE SMOOTH",
"713 907 OFFCURVE",
"796 879 OFFCURVE",
"886 802 CURVE",
"956 912 LINE",
"856 1008 OFFCURVE",
"752 1048 OFFCURVE",
"608 1048 CURVE SMOOTH",
"351 1048 OFFCURVE",
"90 846 OFFCURVE",
"90 503 CURVE SMOOTH"
);
},
{
closed = 1;
nodes = (
"539 1170 LINE",
"695 1170 LINE",
"933 1493 LINE",
"779 1493 LINE",
"611 1278 LINE",
"447 1493 LINE",
"300 1493 LINE"
);
}
);
width = 1025;
}
);
unicode = 010D;
},
{
glyphname = e.alt;
layers = (
{
anchors = (
{
name = bottom;
position = "{537, 0}";
},
{
name = ogonek;
position = "{966, 10}";
},
{
name = top;
position = "{537, 0}";
}
);
layerId = "E08CDE4C-5D6C-43D8-8149-5F9E51F0B944";
name = Bold;
paths = (
{
closed = 1;
nodes = (
"93.9999 176 OFFCURVE",
"325 -19 OFFCURVE",
"589 -19 CURVE SMOOTH",
"758 -19 OFFCURVE",
"895 46 OFFCURVE",
"1013 170 CURVE",
"930 276 LINE",
"856 187 OFFCURVE",
"735 123 OFFCURVE",
"596 123 CURVE SMOOTH",
"462 123 OFFCURVE",
"334 192 OFFCURVE",
"289 371 CURVE",
"655 425 OFFCURVE",
"946 506 OFFCURVE",
"946 751 CURVE SMOOTH",
"946 918 OFFCURVE",
"808 1056 OFFCURVE",
"592 1056 CURVE SMOOTH",
"269 1056 OFFCURVE",
"93.9999 805 OFFCURVE",
"93.9999 516 CURVE SMOOTH"
);
},
{
closed = 1;
nodes = (
"783 594 OFFCURVE",
"563 534 OFFCURVE",
"277 490 CURVE",
"275 507 OFFCURVE",
"274 523 OFFCURVE",
"274 539 CURVE SMOOTH",
"274 735 OFFCURVE",
"392 913 OFFCURVE",
"593 913 CURVE SMOOTH",
"714 913 OFFCURVE",
"783 846 OFFCURVE",
"783 755 CURVE SMOOTH"
);
}
);
width = 1073;
}
);
},
{
glyphname = Zacute;
layers = (
{
layerId = "E08CDE4C-5D6C-43D8-8149-5F9E51F0B944";
name = Bold;
paths = (
{
closed = 1;
nodes = (
"58 0 LINE",
"1146 0 LINE",
"1146 148 LINE",
"286 148 LINE",
"1154 1368 LINE",
"1154 1456 LINE",
"90 1456 LINE",
"90 1308 LINE",
"922 1308 LINE",
"58 92 LINE"
);
},
{
closed = 1;
nodes = (
"590 1602 LINE",
"720 1602 LINE",
"1028 1922 LINE",
"816 1922 LINE"
);
}
);
width = 1222;
}
);
unicode = 0179;
},
{
glyphname = Aogonek;
layers = (
{
layerId = "E08CDE4C-5D6C-43D8-8149-5F9E51F0B944";
name = Bold;
paths = (
{
closed = 1;
nodes = (
"1050 -357 OFFCURVE",
"1123 -390 OFFCURVE",
"1217 -390 CURVE SMOOTH",
"1281 -390 OFFCURVE",
"1348 -380 OFFCURVE",
"1394 -361 CURVE",
"1394 -250 LINE",
"1348 -268 OFFCURVE",
"1304 -281 OFFCURVE",
"1240 -281 CURVE SMOOTH",
"1189 -281 OFFCURVE",
"1140 -250 OFFCURVE",
"1140 -199 CURVE SMOOTH",
"1140 -183 OFFCURVE",
"1145 -167 OFFCURVE",
"1155 -151 CURVE SMOOTH",
"1197 -86 OFFCURVE",
"1274 -42 OFFCURVE",
"1343 0 CURVE",
"1214 12 LINE",
"1160 -14 OFFCURVE",
"1106 -49 OFFCURVE",
"1066 -89 CURVE SMOOTH",
"1033 -122 OFFCURVE",
"998.999 -167 OFFCURVE",
"998.999 -225 CURVE SMOOTH",
"998.999 -252 OFFCURVE",
"1005 -276 OFFCURVE",
"1016 -296 CURVE SMOOTH"
);
},
{
closed = 1;
nodes = (
"13 0 LINE",
"199 0 LINE",
"355 397 LINE",
"1053 397 LINE",
"1216 0 LINE",
"1407 0 LINE",
"802 1456 LINE",
"617 1456 LINE"
);
},
{
closed = 1;
nodes = (
"410 545 LINE",
"655 1149 LINE",
"670 1191 OFFCURVE",
"692 1252 OFFCURVE",
"707 1298 CURVE",
"721 1252 OFFCURVE",
"742 1192 OFFCURVE",
"760 1150 CURVE",
"993.999 545 LINE"
);
}
);
width = 1425;
}
);
unicode = 0104;
},
{
glyphname = Euro;
layers = (
{
layerId = "E08CDE4C-5D6C-43D8-8149-5F9E51F0B944";
name = Bold;
paths = (
{
closed = 1;
nodes = (
"251 209 OFFCURVE",
"407 -21 OFFCURVE",
"751 -21 CURVE SMOOTH",
"890 -21 OFFCURVE",
"993.999 14 OFFCURVE",
"1083 75 CURVE",
"1084 253 LINE",
"994.999 184 OFFCURVE",
"900 125 OFFCURVE",
"767 125 CURVE SMOOTH",
"520 125 OFFCURVE",
"422 297 OFFCURVE",
"392 516 CURVE",
"934 516 LINE",
"953 654 LINE",
"378 654 LINE",
"376 702 LINE SMOOTH",
"375 720 OFFCURVE",
"374 742 OFFCURVE",
"375 761 CURVE",
"375 773 LINE SMOOTH",
"375 777 OFFCURVE",
"376 781 OFFCURVE",
"377 784 CURVE",
"967 784 LINE",
"986.999 922 LINE",
"395 922 LINE",
"437 1116 OFFCURVE",
"541 1303 OFFCURVE",
"776 1303 CURVE SMOOTH",
"914 1303 OFFCURVE",
"1009 1232 OFFCURVE",
"1070 1141 CURVE",
"1106 1330 LINE",
"1028 1404 OFFCURVE",
"928 1448 OFFCURVE",
"783 1448 CURVE SMOOTH",
"704 1448 OFFCURVE",
"632 1435 OFFCURVE",
"569 1409 CURVE SMOOTH",
"376 1330 OFFCURVE",
"260 1153 OFFCURVE",
"218 922 CURVE",
"96.9999 922 LINE",
"75 784 LINE",
"199 784 LINE",
"198 761 OFFCURVE",
"197 741 OFFCURVE",
"197 719 CURVE SMOOTH",
"197 694 OFFCURVE",
"198 672 OFFCURVE",
"200 654 CURVE",
"97.9999 654 LINE",
"78 516 LINE",
"213 516 LINE"
);
}
);
width = 1190;
}
);
unicode = 20AC;
},
{
glyphname = cacute;
layers = (
{
layerId = "E08CDE4C-5D6C-43D8-8149-5F9E51F0B944";
name = Bold;
paths = (
{
closed = 1;
nodes = (
"90 222 OFFCURVE",
"274 -22 OFFCURVE",
"612 -22 CURVE SMOOTH",
"750 -22 OFFCURVE",
"864 20 OFFCURVE",
"988.999 117 CURVE",
"928 238 LINE",
"817 157 OFFCURVE",
"724 116 OFFCURVE",
"616 116 CURVE SMOOTH",
"427 116 OFFCURVE",
"260 259 OFFCURVE",
"260 508 CURVE SMOOTH",
"260 762 OFFCURVE",
"437 907 OFFCURVE",
"608 907 CURVE SMOOTH",
"713 907 OFFCURVE",
"796 879 OFFCURVE",
"886 802 CURVE",
"956 912 LINE",
"856 1008 OFFCURVE",
"752 1048 OFFCURVE",
"608 1048 CURVE SMOOTH",
"351 1048 OFFCURVE",
"90 846 OFFCURVE",
"90 503 CURVE SMOOTH"
);
},
{
closed = 1;
nodes = (
"545 1173 LINE",
"675 1173 LINE",
"982.999 1493 LINE",
"771 1493 LINE"
);
}
);
width = 1025;
}
);
unicode = 0107;
},
{
glyphname = n.alt;
layers = (
{
anchors = (
{
name = bottom;
position = "{632, 0}";
},
{
name = top;
position = "{632, 0}";
}
);
layerId = "E08CDE4C-5D6C-43D8-8149-5F9E51F0B944";
name = Bold;
paths = (
{
closed = 1;
nodes = (
"881 62 OFFCURVE",
"908 -2 OFFCURVE",
"1096 -24 CURVE",
"1132 102 LINE",
"1057 117 OFFCURVE",
"1046 142 OFFCURVE",
"1046 255 CURVE SMOOTH",
"1046 270 LINE",
"1048 567 LINE",
"1048 577 LINE SMOOTH",
"1048 867 OFFCURVE",
"960 1051 OFFCURVE",
"667 1051 CURVE SMOOTH",
"499 1051 OFFCURVE",
"416 987.999 OFFCURVE",
"343 884 CURVE",
"321 1026 LINE",
"154 1026 LINE",
"160 976.999 OFFCURVE",
"180 784 OFFCURVE",
"180 699 CURVE SMOOTH",
"180 0 LINE",
"345 0 LINE",
"345 652 LINE SMOOTH",
"345 799 OFFCURVE",
"485 911 OFFCURVE",
"639 911 CURVE SMOOTH",
"850 911 OFFCURVE",
"883 790 OFFCURVE",
"883 585 CURVE SMOOTH",
"883 572 LINE",
"881 265 LINE",
"881 248 LINE SMOOTH"
);
}
);
width = 1263;
}
);
},
{
glyphname = uni0209;
layers = (
{
layerId = "E08CDE4C-5D6C-43D8-8149-5F9E51F0B944";
name = Bold;
paths = (
{
closed = 1;
nodes = (
"167 67 OFFCURVE",
"292 -5 OFFCURVE",
"434 -5 CURVE SMOOTH",
"481 -5 OFFCURVE",
"550 9.99999 OFFCURVE",
"600 30 CURVE",
"580 141 LINE",
"545 128 OFFCURVE",
"487 118 OFFCURVE",
"457 118 CURVE SMOOTH",
"389 118 OFFCURVE",
"332 143 OFFCURVE",
"332 283 CURVE SMOOTH",
"332 1026 LINE",
"167 1026 LINE",
"167 278 LINE SMOOTH"
);
},
{
closed = 1;
nodes = (
"64 1174 LINE",
"184 1174 LINE",
"-36 1487 LINE",
"-212 1487 LINE"
);
},
{
closed = 1;
nodes = (
"333 1174 LINE",
"451 1174 LINE",
"234 1487 LINE",
"58 1487 LINE"
);
}
);
width = 503;
}
);
unicode = 0209;
},
{
glyphname = uni0208;
layers = (
{
layerId = "E08CDE4C-5D6C-43D8-8149-5F9E51F0B944";
name = Bold;
paths = (
{
closed = 1;
nodes = (
"108 1604 LINE",
"228 1604 LINE",
"8 1917 LINE",
"-168 1917 LINE"
);
},
{
closed = 1;
nodes = (
"210 0 LINE",
"382 0 LINE",
"382 1456 LINE",
"210 1456 LINE"
);
},
{
closed = 1;
nodes = (
"377 1604 LINE",
"495 1604 LINE",
"278 1917 LINE",
"102 1917 LINE"
);
}
);
width = 591;
}
);
unicode = 0208;
},
{
glyphname = uni0207;
layers = (
{
layerId = "E08CDE4C-5D6C-43D8-8149-5F9E51F0B944";
name = Bold;
paths = (
{
closed = 1;
nodes = (
"90 187 OFFCURVE",
"293 -22 OFFCURVE",
"597 -22 CURVE SMOOTH",
"757 -22 OFFCURVE",
"909 43 OFFCURVE",
"1009 146 CURVE",
"926 252 LINE",
"859 176 OFFCURVE",
"736 116 OFFCURVE",
"597 116 CURVE SMOOTH",
"449 116 OFFCURVE",
"325 219 OFFCURVE",
"285 371 CURVE",
"651 425 OFFCURVE",
"942 506 OFFCURVE",
"942 751 CURVE SMOOTH",
"942 918 OFFCURVE",
"804 1048 OFFCURVE",
"588 1048 CURVE SMOOTH",
"259 1048 OFFCURVE",
"90 797 OFFCURVE",
"90 516 CURVE SMOOTH"
);
},
{
closed = 1;
nodes = (
"393 1454 OFFCURVE",
"293 1378 OFFCURVE",
"280 1218 CURVE",
"367 1218 LINE",
"382 1306 OFFCURVE",
"455 1347 OFFCURVE",
"557 1347 CURVE SMOOTH",
"659 1347 OFFCURVE",
"738 1302 OFFCURVE",
"758 1218 CURVE",
"844 1218 LINE",
"831 1372 OFFCURVE",
"730 1454 OFFCURVE",
"564 1454 CURVE SMOOTH"
);
},
{
closed = 1;
nodes = (
"779 594 OFFCURVE",
"559 534 OFFCURVE",
"273 490 CURVE",
"271 506 OFFCURVE",
"270 525 OFFCURVE",
"270 539 CURVE SMOOTH",
"270 786 OFFCURVE",
"423 907 OFFCURVE",
"589 907 CURVE SMOOTH",
"710 907 OFFCURVE",
"779 846 OFFCURVE",
"779 755 CURVE SMOOTH"
);
}
);
width = 1074;
}
);
unicode = 0207;
},
{
glyphname = uni0205;
layers = (
{
layerId = "E08CDE4C-5D6C-43D8-8149-5F9E51F0B944";
name = Bold;
paths = (
{
closed = 1;
nodes = (
"90 187 OFFCURVE",
"293 -22 OFFCURVE",
"597 -22 CURVE SMOOTH",
"757 -22 OFFCURVE",
"909 43 OFFCURVE",
"1009 146 CURVE",
"926 252 LINE",
"859 176 OFFCURVE",
"736 116 OFFCURVE",
"597 116 CURVE SMOOTH",
"449 116 OFFCURVE",
"325 219 OFFCURVE",
"285 371 CURVE",
"651 425 OFFCURVE",
"942 506 OFFCURVE",
"942 751 CURVE SMOOTH",
"942 918 OFFCURVE",
"804 1048 OFFCURVE",
"588 1048 CURVE SMOOTH",
"259 1048 OFFCURVE",
"90 797 OFFCURVE",
"90 516 CURVE SMOOTH"
);
},
{
closed = 1;
nodes = (
"378 1174 LINE",
"498 1174 LINE",
"278 1487 LINE",
"102 1487 LINE"
);
},
{
closed = 1;
nodes = (
"779 594 OFFCURVE",
"559 534 OFFCURVE",
"273 490 CURVE",
"271 506 OFFCURVE",
"270 525 OFFCURVE",
"270 539 CURVE SMOOTH",
"270 786 OFFCURVE",
"423 907 OFFCURVE",
"589 907 CURVE SMOOTH",
"710 907 OFFCURVE",
"779 846 OFFCURVE",
"779 755 CURVE SMOOTH"
);
},
{
closed = 1;
nodes = (
"647 1174 LINE",
"765 1174 LINE",
"548 1487 LINE",
"372 1487 LINE"
);
}
);
width = 1074;
}
);
unicode = 0205;
},
{
glyphname = uni0204;
layers = (
{
layerId = "E08CDE4C-5D6C-43D8-8149-5F9E51F0B944";
name = Bold;
paths = (
{
closed = 1;
nodes = (
"200 0 LINE",
"1117 0 LINE",
"1117 148 LINE",
"372 148 LINE",
"372 672 LINE",
"1029 672 LINE",
"1029 820 LINE",
"372 820 LINE",
"372 1308 LINE",
"1067 1308 LINE",
"1067 1456 LINE",
"200 1456 LINE"
);
},
{
closed = 1;
nodes = (
"481 1604 LINE",
"601 1604 LINE",
"381 1917 LINE",
"205 1917 LINE"
);
},
{
closed = 1;
nodes = (
"750 1604 LINE",
"868 1604 LINE",
"651 1917 LINE",
"475 1917 LINE"
);
}
);
width = 1213;
}
);
unicode = 0204;
},
{
glyphname = uni0203;
layers = (
{
layerId = "E08CDE4C-5D6C-43D8-8149-5F9E51F0B944";
name = Bold;
paths = (
{
closed = 1;
nodes = (
"114 161 OFFCURVE",
"278 -22 OFFCURVE",
"519 -22 CURVE SMOOTH",
"641 -22 OFFCURVE",
"788 13 OFFCURVE",
"881 166 CURVE",
"908 46 OFFCURVE",
"1026 -4 OFFCURVE",
"1113 -4 CURVE",
"1147 139 LINE",
"1095 139 OFFCURVE",
"1022 170 OFFCURVE",
"1022 286 CURVE SMOOTH",
"1022 962 LINE",
"918 1024 OFFCURVE",
"795 1048 OFFCURVE",
"671 1048 CURVE SMOOTH",
"339 1048 OFFCURVE",
"114 806 OFFCURVE",
"114 438 CURVE SMOOTH"
);
},
{
closed = 1;
nodes = (
"470 1454 OFFCURVE",
"370 1378 OFFCURVE",
"357 1218 CURVE",
"444 1218 LINE",
"459 1306 OFFCURVE",
"532 1347 OFFCURVE",
"634 1347 CURVE SMOOTH",
"736 1347 OFFCURVE",
"815 1302 OFFCURVE",
"835 1218 CURVE",
"921 1218 LINE",
"908 1372 OFFCURVE",
"807 1454 OFFCURVE",
"641 1454 CURVE SMOOTH"
);
},
{
closed = 1;
nodes = (
"858 226 OFFCURVE",
"702 116 OFFCURVE",
"544 116 CURVE SMOOTH",
"388 116 OFFCURVE",
"284 249 OFFCURVE",
"284 448 CURVE SMOOTH",
"284 725 OFFCURVE",
"438 907 OFFCURVE",
"668 907 CURVE SMOOTH",
"724 907 OFFCURVE",
"803 899 OFFCURVE",
"858 872 CURVE",
"858 403 LINE SMOOTH"
);
}
);
width = 1218;
}
);
unicode = 0203;
},
{
glyphname = uni0202;
layers = (
{
layerId = "E08CDE4C-5D6C-43D8-8149-5F9E51F0B944";
name = Bold;
paths = (
{
closed = 1;
nodes = (
"13 0 LINE",
"199 0 LINE",
"355 397 LINE",
"1053 397 LINE",
"1216 0 LINE",
"1407 0 LINE",
"802 1456 LINE",
"617 1456 LINE"
);
},
{
closed = 1;
nodes = (
"540 1884 OFFCURVE",
"440 1808 OFFCURVE",
"427 1648 CURVE",
"514 1648 LINE",
"529 1736 OFFCURVE",
"602 1777 OFFCURVE",
"704 1777 CURVE SMOOTH",
"806 1777 OFFCURVE",
"885 1732 OFFCURVE",
"905 1648 CURVE",
"990.999 1648 LINE",
"977.999 1802 OFFCURVE",
"877 1884 OFFCURVE",
"711 1884 CURVE SMOOTH"
);
},
{
closed = 1;
nodes = (
"410 545 LINE",
"655 1149 LINE",
"670 1191 OFFCURVE",
"692 1252 OFFCURVE",
"707 1298 CURVE",
"721 1252 OFFCURVE",
"742 1192 OFFCURVE",
"760 1150 CURVE",
"993.999 545 LINE"
);
}
);
width = 1425;
}
);
unicode = 0202;
},
{
glyphname = uni0201;
layers = (
{
layerId = "E08CDE4C-5D6C-43D8-8149-5F9E51F0B944";
name = Bold;
paths = (
{
closed = 1;
nodes = (
"114 161 OFFCURVE",
"278 -22 OFFCURVE",
"519 -22 CURVE SMOOTH",
"641 -22 OFFCURVE",
"788 13 OFFCURVE",
"881 166 CURVE",
"908 46 OFFCURVE",
"1026 -4 OFFCURVE",
"1113 -4 CURVE",
"1147 139 LINE",
"1095 139 OFFCURVE",
"1022 170 OFFCURVE",
"1022 286 CURVE SMOOTH",
"1022 962 LINE",
"918 1024 OFFCURVE",
"795 1048 OFFCURVE",
"671 1048 CURVE SMOOTH",
"339 1048 OFFCURVE",
"114 806 OFFCURVE",
"114 438 CURVE SMOOTH"
);
},
{
closed = 1;
nodes = (
"858 226 OFFCURVE",
"702 116 OFFCURVE",
"544 116 CURVE SMOOTH",
"388 116 OFFCURVE",
"284 249 OFFCURVE",
"284 448 CURVE SMOOTH",
"284 725 OFFCURVE",
"438 907 OFFCURVE",
"668 907 CURVE SMOOTH",
"724 907 OFFCURVE",
"803 899 OFFCURVE",
"858 872 CURVE",
"858 403 LINE SMOOTH"
);
},
{
closed = 1;
nodes = (
"455 1174 LINE",
"575 1174 LINE",
"355 1487 LINE",
"179 1487 LINE"
);
},
{
closed = 1;
nodes = (
"724 1174 LINE",
"842 1174 LINE",
"625 1487 LINE",
"449 1487 LINE"
);
}
);
width = 1218;
}
);
unicode = 0201;
},
{
glyphname = uni0200;
layers = (
{
layerId = "E08CDE4C-5D6C-43D8-8149-5F9E51F0B944";
name = Bold;
paths = (
{
closed = 1;
nodes = (
"13 0 LINE",
"199 0 LINE",
"355 397 LINE",
"1053 397 LINE",
"1216 0 LINE",
"1407 0 LINE",
"802 1456 LINE",
"617 1456 LINE"
);
},
{
closed = 1;
nodes = (
"410 545 LINE",
"655 1149 LINE",
"670 1191 OFFCURVE",
"692 1252 OFFCURVE",
"707 1298 CURVE",
"721 1252 OFFCURVE",
"742 1192 OFFCURVE",
"760 1150 CURVE",
"993.999 545 LINE"
);
},
{
closed = 1;
nodes = (
"525 1604 LINE",
"645 1604 LINE",
"425 1917 LINE",
"249 1917 LINE"
);
},
{
closed = 1;
nodes = (
"794 1604 LINE",
"912 1604 LINE",
"695 1917 LINE",
"519 1917 LINE"
);
}
);
width = 1425;
}
);
unicode = 0200;
},
{
glyphname = amacron;
layers = (
{
layerId = "E08CDE4C-5D6C-43D8-8149-5F9E51F0B944";
name = Bold;
paths = (
{
closed = 1;
nodes = (
"114 161 OFFCURVE",
"278 -22 OFFCURVE",
"519 -22 CURVE SMOOTH",
"641 -22 OFFCURVE",
"788 13 OFFCURVE",
"881 166 CURVE",
"908 46 OFFCURVE",
"1026 -4 OFFCURVE",
"1113 -4 CURVE",
"1147 139 LINE",
"1095 139 OFFCURVE",
"1022 170 OFFCURVE",
"1022 286 CURVE SMOOTH",
"1022 962 LINE",
"918 1024 OFFCURVE",
"795 1048 OFFCURVE",
"671 1048 CURVE SMOOTH",
"339 1048 OFFCURVE",
"114 806 OFFCURVE",
"114 438 CURVE SMOOTH"
);
},
{
closed = 1;
nodes = (
"858 226 OFFCURVE",
"702 116 OFFCURVE",
"544 116 CURVE SMOOTH",
"388 116 OFFCURVE",
"284 249 OFFCURVE",
"284 448 CURVE SMOOTH",
"284 725 OFFCURVE",
"438 907 OFFCURVE",
"668 907 CURVE SMOOTH",
"724 907 OFFCURVE",
"803 899 OFFCURVE",
"858 872 CURVE",
"858 403 LINE SMOOTH"
);
},
{
closed = 1;
nodes = (
"357 1183 LINE",
"929 1183 LINE",
"929 1317 LINE",
"357 1317 LINE"
);
}
);
width = 1218;
}
);
unicode = 0101;
},
{
glyphname = gcommaaccent;
layers = (
{
layerId = "E08CDE4C-5D6C-43D8-8149-5F9E51F0B944";
name = Bold;
paths = (
{
closed = 1;
nodes = (
"290 -440 OFFCURVE",
"424 -464 OFFCURVE",
"517 -464 CURVE SMOOTH",
"866 -464 OFFCURVE",
"1016 -294 OFFCURVE",
"1016 104 CURVE SMOOTH",
"1016 954 LINE",
"912 1016 OFFCURVE",
"788 1048 OFFCURVE",
"664 1048 CURVE SMOOTH",
"327 1048 OFFCURVE",
"96.9999 800 OFFCURVE",
"96.9999 422 CURVE SMOOTH",
"96.9999 155 OFFCURVE",
"262 -22 OFFCURVE",
"503 -22 CURVE SMOOTH",
"625 -22 OFFCURVE",
"764 38 OFFCURVE",
"851 129 CURVE",
"851 6 LINE SMOOTH",
"851 -227 OFFCURVE",
"747 -327 OFFCURVE",
"503 -327 CURVE SMOOTH",
"414 -327 OFFCURVE",
"292 -296 OFFCURVE",
"200 -250 CURVE",
"181 -403 LINE"
);
},
{
closed = 1;
nodes = (
"760 185 OFFCURVE",
"633 116 OFFCURVE",
"535 116 CURVE SMOOTH",
"372 116 OFFCURVE",
"267 243 OFFCURVE",
"267 431 CURVE SMOOTH",
"267 718 OFFCURVE",
"423 907 OFFCURVE",
"662 907 CURVE SMOOTH",
"718 907 OFFCURVE",
"798 899 OFFCURVE",
"852 872 CURVE",
"852 287 LINE"
);
},
{
closed = 1;
nodes = (
"423 1162 LINE",
"610 1162 LINE",
"717 1625 LINE",
"586 1625 LINE"
);
}
);
width = 1143;
}
);
unicode = 0123;
},
{
glyphname = uni0206;
layers = (
{
layerId = "E08CDE4C-5D6C-43D8-8149-5F9E51F0B944";
name = Bold;
paths = (
{
closed = 1;
nodes = (
"200 0 LINE",
"1117 0 LINE",
"1117 148 LINE",
"372 148 LINE",
"372 672 LINE",
"1029 672 LINE",
"1029 820 LINE",
"372 820 LINE",
"372 1308 LINE",
"1067 1308 LINE",
"1067 1456 LINE",
"200 1456 LINE"
);
},
{
closed = 1;
nodes = (
"496 1884 OFFCURVE",
"396 1808 OFFCURVE",
"383 1648 CURVE",
"470 1648 LINE",
"485 1736 OFFCURVE",
"558 1777 OFFCURVE",
"660 1777 CURVE SMOOTH",
"762 1777 OFFCURVE",
"841 1732 OFFCURVE",
"861 1648 CURVE",
"947 1648 LINE",
"934 1802 OFFCURVE",
"833 1884 OFFCURVE",
"667 1884 CURVE SMOOTH"
);
}
);
width = 1213;
}
);
unicode = 0206;
},
{
glyphname = aogonek;
layers = (
{
layerId = "E08CDE4C-5D6C-43D8-8149-5F9E51F0B944";
name = Bold;
paths = (
{
closed = 1;
nodes = (
"858 -344 OFFCURVE",
"931 -377 OFFCURVE",
"1025 -377 CURVE SMOOTH",
"1089 -377 OFFCURVE",
"1156 -367 OFFCURVE",
"1202 -348 CURVE",
"1202 -237 LINE",
"1156 -255 OFFCURVE",
"1112 -268 OFFCURVE",
"1048 -268 CURVE SMOOTH",
"996.999 -268 OFFCURVE",
"948 -237 OFFCURVE",
"948 -186 CURVE SMOOTH",
"948 -170 OFFCURVE",
"953 -154 OFFCURVE",
"963 -138 CURVE SMOOTH",
"1005 -73 OFFCURVE",
"1082 -29 OFFCURVE",
"1151 13 CURVE",
"1022 25 LINE",
"967.999 -1 OFFCURVE",
"914 -36 OFFCURVE",
"874 -76 CURVE SMOOTH",
"841 -109 OFFCURVE",
"807 -154 OFFCURVE",
"807 -212 CURVE SMOOTH",
"807 -239 OFFCURVE",
"813 -263 OFFCURVE",
"824 -283 CURVE SMOOTH"
);
},
{
closed = 1;
nodes = (
"114 161 OFFCURVE",
"278 -22 OFFCURVE",
"519 -22 CURVE SMOOTH",
"641 -22 OFFCURVE",
"788 13 OFFCURVE",
"881 166 CURVE",
"908 46 OFFCURVE",
"1026 -4 OFFCURVE",
"1113 -4 CURVE",
"1147 139 LINE",
"1095 139 OFFCURVE",
"1022 170 OFFCURVE",
"1022 286 CURVE SMOOTH",
"1022 962 LINE",
"918 1024 OFFCURVE",
"795 1048 OFFCURVE",
"671 1048 CURVE SMOOTH",
"339 1048 OFFCURVE",
"114 806 OFFCURVE",
"114 438 CURVE SMOOTH"
);
},
{
closed = 1;
nodes = (
"858 226 OFFCURVE",
"702 116 OFFCURVE",
"544 116 CURVE SMOOTH",
"388 116 OFFCURVE",
"284 249 OFFCURVE",
"284 448 CURVE SMOOTH",
"284 725 OFFCURVE",
"438 907 OFFCURVE",
"668 907 CURVE SMOOTH",
"724 907 OFFCURVE",
"803 899 OFFCURVE",
"858 872 CURVE",
"858 403 LINE SMOOTH"
);
}
);
width = 1218;
}
);
unicode = 0105;
},
{
glyphname = uni00B9;
layers = (
{
layerId = "E08CDE4C-5D6C-43D8-8149-5F9E51F0B944";
name = Bold;
paths = (
{
closed = 1;
nodes = (
"270 604 LINE",
"635 604 LINE",
"635 720 LINE",
"513 720 LINE",
"513 1427 LINE",
"408 1412 LINE",
"356 1381 OFFCURVE",
"307 1354 OFFCURVE",
"240 1333 CURVE",
"239 1203 LINE",
"289 1222 OFFCURVE",
"347 1248 OFFCURVE",
"391 1271 CURVE",
"391 1168 LINE SMOOTH",
"391 1116 OFFCURVE",
"392 1067 OFFCURVE",
"392 1008 CURVE SMOOTH",
"392 723 LINE",
"270 723 LINE"
);
}
);
width = 1190;
}
);
unicode = 00B9;
},
{
glyphname = J.alt;
layers = (
{
anchors = (
{
name = top;
position = "{470, 0}";
}
);
layerId = "E08CDE4C-5D6C-43D8-8149-5F9E51F0B944";
name = Bold;
paths = (
{
closed = 1;
nodes = (
"131 21 OFFCURVE",
"208 -23 OFFCURVE",
"321 -23 CURVE SMOOTH",
"388 -23 OFFCURVE",
"448 -12 OFFCURVE",
"502 11 CURVE SMOOTH",
"671 82 OFFCURVE",
"755 256 OFFCURVE",
"755 499 CURVE SMOOTH",
"755 1456 LINE",
"583 1456 LINE",
"583 488 LINE SMOOTH",
"583 296 OFFCURVE",
"517 125 OFFCURVE",
"326 125 CURVE SMOOTH",
"237 125 OFFCURVE",
"176 156 OFFCURVE",
"122 197 CURVE",
"71 81 LINE"
);
}
);
width = 939;
}
);
},
{
glyphname = rcaron;
layers = (
{
layerId = "E08CDE4C-5D6C-43D8-8149-5F9E51F0B944";
name = Bold;
paths = (
{
closed = 1;
nodes = (
"182 0 LINE",
"346 0 LINE",
"346 568 LINE SMOOTH",
"346 803 OFFCURVE",
"470 907 OFFCURVE",
"616 907 CURVE SMOOTH",
"701 907 OFFCURVE",
"744 889 OFFCURVE",
"761 883 CURVE",
"775 1028 LINE",
"739 1038 OFFCURVE",
"704 1048 OFFCURVE",
"621 1048 CURVE SMOOTH",
"493 1048 OFFCURVE",
"394 967.999 OFFCURVE",
"346 871 CURVE",
"320 1026 LINE",
"156 1001 LINE",
"162 955 OFFCURVE",
"182 861 OFFCURVE",
"182 779 CURVE SMOOTH"
);
},
{
closed = 1;
nodes = (
"366 1173 LINE",
"522 1173 LINE",
"760 1496 LINE",
"606 1496 LINE",
"438 1281 LINE",
"274 1496 LINE",
"127 1496 LINE"
);
}
);
width = 795;
}
);
unicode = 0159;
},
{
glyphname = Ccaron;
layers = (
{
layerId = "E08CDE4C-5D6C-43D8-8149-5F9E51F0B944";
name = Bold;
paths = (
{
closed = 1;
nodes = (
"116 287 OFFCURVE",
"379 -22 OFFCURVE",
"820 -22 CURVE SMOOTH",
"1021 -22 OFFCURVE",
"1180 31 OFFCURVE",
"1299 127 CURVE",
"1242 267 LINE",
"1141 179 OFFCURVE",
"1006 123 OFFCURVE",
"825 123 CURVE SMOOTH",
"469 123 OFFCURVE",
"299 382 OFFCURVE",
"299 725 CURVE SMOOTH",
"299 1076 OFFCURVE",
"487 1334 OFFCURVE",
"841 1334 CURVE SMOOTH",
"977.999 1334 OFFCURVE",
"1105 1283 OFFCURVE",
"1206 1206 CURVE",
"1285 1332 LINE",
"1175 1414 OFFCURVE",
"1042 1483 OFFCURVE",
"822 1483 CURVE SMOOTH",
"394 1483 OFFCURVE",
"116 1168 OFFCURVE",
"116 726 CURVE SMOOTH"
);
},
{
closed = 1;
nodes = (
"727 1600 LINE",
"883 1600 LINE",
"1121 1923 LINE",
"967 1923 LINE",
"799 1708 LINE",
"635 1923 LINE",
"488 1923 LINE"
);
}
);
width = 1429;
}
);
unicode = 010C;
},
{
glyphname = jcircumflex;
layers = (
{
layerId = "E08CDE4C-5D6C-43D8-8149-5F9E51F0B944";
name = Bold;
paths = (
{
closed = 1;
nodes = (
"-63 -425 OFFCURVE",
"-23 -429 OFFCURVE",
"21 -429 CURVE SMOOTH",
"67 -429 OFFCURVE",
"106 -422 OFFCURVE",
"140 -407 CURVE SMOOTH",
"296 -339 OFFCURVE",
"340 -150 OFFCURVE",
"340 73 CURVE SMOOTH",
"340 1026 LINE",
"175 1026 LINE",
"175 31 LINE SMOOTH",
"175 -146 OFFCURVE",
"138 -283 OFFCURVE",
"-18 -283 CURVE SMOOTH",
"-48 -283 OFFCURVE",
"-72 -278 OFFCURVE",
"-102 -273 CURVE",
"-101 -416 LINE"
);
},
{
closed = 1;
nodes = (
"-50 1173 LINE",
"76 1173 LINE",
"254 1389 LINE",
"432 1173 LINE",
"564 1173 LINE",
"335 1497 LINE",
"178 1497 LINE"
);
}
);
width = 503;
}
);
unicode = 0135;
},
{
glyphname = Sacute;
layers = (
{
layerId = "E08CDE4C-5D6C-43D8-8149-5F9E51F0B944";
name = Bold;
paths = (
{
closed = 1;
nodes = (
"280 35 OFFCURVE",
"486 -22 OFFCURVE",
"664 -22 CURVE SMOOTH",
"989.999 -22 OFFCURVE",
"1135 166 OFFCURVE",
"1135 395 CURVE SMOOTH",
"1135 578 OFFCURVE",
"1052 709 OFFCURVE",
"676 817 CURVE SMOOTH",
"370 905 OFFCURVE",
"318 982.999 OFFCURVE",
"324 1120 CURVE SMOOTH",
"330 1262 OFFCURVE",
"441 1334 OFFCURVE",
"656 1334 CURVE SMOOTH",
"780 1334 OFFCURVE",
"921 1288 OFFCURVE",
"1033 1218 CURVE",
"1085 1359 LINE",
"930 1456 OFFCURVE",
"773 1483 OFFCURVE",
"636 1483 CURVE SMOOTH",
"344 1483 OFFCURVE",
"145 1339 OFFCURVE",
"141 1109 CURVE SMOOTH",
"137 902 OFFCURVE",
"224 769 OFFCURVE",
"566 671 CURVE SMOOTH",
"911 572 OFFCURVE",
"951 500 OFFCURVE",
"951 401 CURVE SMOOTH",
"951 230 OFFCURVE",
"855 123 OFFCURVE",
"649 123 CURVE SMOOTH",
"503 123 OFFCURVE",
"305 187 OFFCURVE",
"174 289 CURVE",
"146 123 LINE"
);
},
{
closed = 1;
nodes = (
"559 1602 LINE",
"689 1602 LINE",
"996.999 1922 LINE",
"785 1922 LINE"
);
}
);
width = 1244;
}
);
unicode = 015A;
},
{
glyphname = uni0214;
layers = (
{
layerId = "E08CDE4C-5D6C-43D8-8149-5F9E51F0B944";
name = Bold;
paths = (
{
closed = 1;
nodes = (
"191 157 OFFCURVE",
"392 -22 OFFCURVE",
"776 -22 CURVE SMOOTH",
"1138 -22 OFFCURVE",
"1334 191 OFFCURVE",
"1336 551 CURVE SMOOTH",
"1336 1456 LINE",
"1165 1456 LINE",
"1165 539 LINE SMOOTH",
"1165 279 OFFCURVE",
"1026 123 OFFCURVE",
"774 123 CURVE SMOOTH",
"502 123 OFFCURVE",
"363 260 OFFCURVE",
"363 546 CURVE SMOOTH",
"363 1456 LINE",
"191 1456 LINE",
"191 541 LINE SMOOTH"
);
},
{
closed = 1;
nodes = (
"578 1604 LINE",
"698 1604 LINE",
"478 1917 LINE",
"302 1917 LINE"
);
},
{
closed = 1;
nodes = (
"847 1604 LINE",
"965 1604 LINE",
"748 1917 LINE",
"572 1917 LINE"
);
}
);
width = 1532;
}
);
unicode = 0214;
},
{
glyphname = uni0215;
layers = (
{
layerId = "E08CDE4C-5D6C-43D8-8149-5F9E51F0B944";
name = Bold;
paths = (
{
closed = 1;
nodes = (
"142 80 OFFCURVE",
"333 -22 OFFCURVE",
"527 -22 CURVE SMOOTH",
"685 -22 OFFCURVE",
"809 40 OFFCURVE",
"886 164 CURVE",
"913 53 OFFCURVE",
"1021 -4 OFFCURVE",
"1118 -4 CURVE",
"1153 139 LINE",
"1101 139 OFFCURVE",
"1019 170 OFFCURVE",
"1019 286 CURVE SMOOTH",
"1019 1026 LINE",
"855 1026 LINE",
"855 427 LINE SMOOTH",
"855 231 OFFCURVE",
"717 116 OFFCURVE",
"552 116 CURVE SMOOTH",
"431 116 OFFCURVE",
"310 169 OFFCURVE",
"315 365 CURVE SMOOTH",
"321 595 LINE SMOOTH",
"330 911 OFFCURVE",
"282 1026 OFFCURVE",
"282 1026 CURVE",
"117 999.999 LINE",
"117 999.999 OFFCURVE",
"165 871 OFFCURVE",
"156 582 CURVE SMOOTH",
"150 365 LINE SMOOTH"
);
},
{
closed = 1;
nodes = (
"417 1174 LINE",
"537 1174 LINE",
"317 1487 LINE",
"141 1487 LINE"
);
},
{
closed = 1;
nodes = (
"686 1174 LINE",
"804 1174 LINE",
"587 1487 LINE",
"411 1487 LINE"
);
}
);
width = 1201;
}
);
unicode = 0215;
},
{
glyphname = Cacute;
layers = (
{
layerId = "E08CDE4C-5D6C-43D8-8149-5F9E51F0B944";
name = Bold;
paths = (
{
closed = 1;
nodes = (
"116 287 OFFCURVE",
"379 -22 OFFCURVE",
"820 -22 CURVE SMOOTH",
"1021 -22 OFFCURVE",
"1180 31 OFFCURVE",
"1299 127 CURVE",
"1242 267 LINE",
"1141 179 OFFCURVE",
"1006 123 OFFCURVE",
"825 123 CURVE SMOOTH",
"469 123 OFFCURVE",
"299 382 OFFCURVE",
"299 725 CURVE SMOOTH",
"299 1076 OFFCURVE",
"487 1334 OFFCURVE",
"841 1334 CURVE SMOOTH",
"977.999 1334 OFFCURVE",
"1105 1283 OFFCURVE",
"1206 1206 CURVE",
"1285 1332 LINE",
"1175 1414 OFFCURVE",
"1042 1483 OFFCURVE",
"822 1483 CURVE SMOOTH",
"394 1483 OFFCURVE",
"116 1168 OFFCURVE",
"116 726 CURVE SMOOTH"
);
},
{
closed = 1;
nodes = (
"724 1602 LINE",
"854 1602 LINE",
"1162 1922 LINE",
"950 1922 LINE"
);
}
);
width = 1429;
}
);
unicode = 0106;
},
{
glyphname = uni0211;
layers = (
{
layerId = "E08CDE4C-5D6C-43D8-8149-5F9E51F0B944";
name = Bold;
paths = (
{
closed = 1;
nodes = (
"182 0 LINE",
"346 0 LINE",
"346 568 LINE SMOOTH",
"346 803 OFFCURVE",
"470 907 OFFCURVE",
"616 907 CURVE SMOOTH",
"701 907 OFFCURVE",
"744 889 OFFCURVE",
"761 883 CURVE",
"775 1028 LINE",
"739 1038 OFFCURVE",
"704 1048 OFFCURVE",
"621 1048 CURVE SMOOTH",
"493 1048 OFFCURVE",
"394 967.999 OFFCURVE",
"346 871 CURVE",
"320 1026 LINE",
"156 1001 LINE",
"162 955 OFFCURVE",
"182 861 OFFCURVE",
"182 779 CURVE SMOOTH"
);
},
{
closed = 1;
nodes = (
"300 1174 LINE",
"420 1174 LINE",
"200 1487 LINE",
"24 1487 LINE"
);
},
{
closed = 1;
nodes = (
"569 1174 LINE",
"687 1174 LINE",
"470 1487 LINE",
"294 1487 LINE"
);
}
);
width = 795;
}
);
unicode = 0211;
},
{
glyphname = uni0212;
layers = (
{
layerId = "E08CDE4C-5D6C-43D8-8149-5F9E51F0B944";
name = Bold;
paths = (
{
closed = 1;
nodes = (
"200 0 LINE",
"372 0 LINE",
"372 652 LINE",
"642 652 LINE SMOOTH",
"838 652 OFFCURVE",
"888 564 OFFCURVE",
"941 419 CURVE SMOOTH",
"1094 0 LINE",
"1282 0 LINE",
"1119 410 LINE SMOOTH",
"1065 546 OFFCURVE",
"1020 670 OFFCURVE",
"884 715 CURVE",
"1050 758 OFFCURVE",
"1194 867 OFFCURVE",
"1194 1074 CURVE SMOOTH",
"1194 1410 OFFCURVE",
"891 1456 OFFCURVE",
"556 1456 CURVE SMOOTH",
"200 1456 LINE"
);
},
{
closed = 1;
nodes = (
"512 1884 OFFCURVE",
"412 1808 OFFCURVE",
"399 1648 CURVE",
"486 1648 LINE",
"501 1736 OFFCURVE",
"574 1777 OFFCURVE",
"676 1777 CURVE SMOOTH",
"778 1777 OFFCURVE",
"857 1732 OFFCURVE",
"877 1648 CURVE",
"963 1648 LINE",
"950 1802 OFFCURVE",
"849 1884 OFFCURVE",
"683 1884 CURVE SMOOTH"
);
},
{
closed = 1;
nodes = (
"372 799 LINE",
"372 1308 LINE",
"649 1308 LINE SMOOTH",
"852 1308 OFFCURVE",
"1012 1261 OFFCURVE",
"1012 1058 CURVE SMOOTH",
"1012 859 OFFCURVE",
"835 799 OFFCURVE",
"638 799 CURVE SMOOTH"
);
}
);
width = 1372;
}
);
unicode = 0212;
},
{
glyphname = uni0213;
layers = (
{
layerId = "E08CDE4C-5D6C-43D8-8149-5F9E51F0B944";
name = Bold;
paths = (
{
closed = 1;
nodes = (
"182 0 LINE",
"346 0 LINE",
"346 568 LINE SMOOTH",
"346 803 OFFCURVE",
"470 907 OFFCURVE",
"616 907 CURVE SMOOTH",
"701 907 OFFCURVE",
"744 889 OFFCURVE",
"761 883 CURVE",
"775 1028 LINE",
"739 1038 OFFCURVE",
"704 1048 OFFCURVE",
"621 1048 CURVE SMOOTH",
"493 1048 OFFCURVE",
"394 967.999 OFFCURVE",
"346 871 CURVE",
"320 1026 LINE",
"156 1001 LINE",
"162 955 OFFCURVE",
"182 861 OFFCURVE",
"182 779 CURVE SMOOTH"
);
},
{
closed = 1;
nodes = (
"315 1454 OFFCURVE",
"215 1378 OFFCURVE",
"202 1218 CURVE",
"289 1218 LINE",
"304 1306 OFFCURVE",
"377 1347 OFFCURVE",
"479 1347 CURVE SMOOTH",
"581 1347 OFFCURVE",
"660 1302 OFFCURVE",
"680 1218 CURVE",
"766 1218 LINE",
"753 1372 OFFCURVE",
"652 1454 OFFCURVE",
"486 1454 CURVE SMOOTH"
);
}
);
width = 795;
}
);
unicode = 0213;
},
{
glyphname = sacute;
layers = (
{
layerId = "E08CDE4C-5D6C-43D8-8149-5F9E51F0B944";
name = Bold;
paths = (
{
closed = 1;
nodes = (
"183 16 OFFCURVE",
"314 -22 OFFCURVE",
"456 -22 CURVE SMOOTH",
"585 -22 OFFCURVE",
"811 17 OFFCURVE",
"811 284 CURVE SMOOTH",
"811 445 OFFCURVE",
"724 520 OFFCURVE",
"501 596 CURVE SMOOTH",
"330 654 OFFCURVE",
"272 691 OFFCURVE",
"272 774 CURVE SMOOTH",
"272 862 OFFCURVE",
"334 907 OFFCURVE",
"450 907 CURVE SMOOTH",
"590 907 OFFCURVE",
"673 861 OFFCURVE",
"731 832 CURVE",
"775 967 LINE",
"702 1008 OFFCURVE",
"577 1048 OFFCURVE",
"451 1048 CURVE SMOOTH",
"240 1048 OFFCURVE",
"108 946 OFFCURVE",
"108 771 CURVE SMOOTH",
"108 612 OFFCURVE",
"193 532 OFFCURVE",
"409 463 CURVE SMOOTH",
"601 402 OFFCURVE",
"652 361 OFFCURVE",
"652 268 CURVE SMOOTH",
"652 126 OFFCURVE",
"551 116 OFFCURVE",
"444 116 CURVE SMOOTH",
"320 116 OFFCURVE",
"199 160 OFFCURVE",
"128 222 CURVE",
"108 71 LINE"
);
},
{
closed = 1;
nodes = (
"429 1178 LINE",
"559 1178 LINE",
"867 1498 LINE",
"655 1498 LINE"
);
}
);
width = 907;
}
);
unicode = 015B;
},
